%TF.GenerationSoftware,KiCad,Pcbnew,8.0.2*%
%TF.CreationDate,2024-06-04T16:14:46-04:00*%
%TF.ProjectId,Power Supply,506f7765-7220-4537-9570-706c792e6b69,rev?*%
%TF.SameCoordinates,Original*%
%TF.FileFunction,Legend,Top*%
%TF.FilePolarity,Positive*%
%FSLAX46Y46*%
G04 Gerber Fmt 4.6, Leading zero omitted, Abs format (unit mm)*
G04 Created by KiCad (PCBNEW 8.0.2) date 2024-06-04 16:14:46*
%MOMM*%
%LPD*%
G01*
G04 APERTURE LIST*
%ADD10C,0.150000*%
%ADD11C,0.120000*%
%ADD12C,0.152400*%
%ADD13C,0.350000*%
G04 APERTURE END LIST*
D10*
X165860588Y-99417438D02*
X165765350Y-99369819D01*
X165765350Y-99369819D02*
X165622493Y-99369819D01*
X165622493Y-99369819D02*
X165479636Y-99417438D01*
X165479636Y-99417438D02*
X165384398Y-99512676D01*
X165384398Y-99512676D02*
X165336779Y-99607914D01*
X165336779Y-99607914D02*
X165289160Y-99798390D01*
X165289160Y-99798390D02*
X165289160Y-99941247D01*
X165289160Y-99941247D02*
X165336779Y-100131723D01*
X165336779Y-100131723D02*
X165384398Y-100226961D01*
X165384398Y-100226961D02*
X165479636Y-100322200D01*
X165479636Y-100322200D02*
X165622493Y-100369819D01*
X165622493Y-100369819D02*
X165717731Y-100369819D01*
X165717731Y-100369819D02*
X165860588Y-100322200D01*
X165860588Y-100322200D02*
X165908207Y-100274580D01*
X165908207Y-100274580D02*
X165908207Y-99941247D01*
X165908207Y-99941247D02*
X165717731Y-99941247D01*
X166336779Y-100369819D02*
X166336779Y-99369819D01*
X166336779Y-99369819D02*
X166908207Y-100369819D01*
X166908207Y-100369819D02*
X166908207Y-99369819D01*
X167384398Y-100369819D02*
X167384398Y-99369819D01*
X167384398Y-99369819D02*
X167622493Y-99369819D01*
X167622493Y-99369819D02*
X167765350Y-99417438D01*
X167765350Y-99417438D02*
X167860588Y-99512676D01*
X167860588Y-99512676D02*
X167908207Y-99607914D01*
X167908207Y-99607914D02*
X167955826Y-99798390D01*
X167955826Y-99798390D02*
X167955826Y-99941247D01*
X167955826Y-99941247D02*
X167908207Y-100131723D01*
X167908207Y-100131723D02*
X167860588Y-100226961D01*
X167860588Y-100226961D02*
X167765350Y-100322200D01*
X167765350Y-100322200D02*
X167622493Y-100369819D01*
X167622493Y-100369819D02*
X167384398Y-100369819D01*
X145857142Y-74179580D02*
X145809523Y-74227200D01*
X145809523Y-74227200D02*
X145666666Y-74274819D01*
X145666666Y-74274819D02*
X145571428Y-74274819D01*
X145571428Y-74274819D02*
X145428571Y-74227200D01*
X145428571Y-74227200D02*
X145333333Y-74131961D01*
X145333333Y-74131961D02*
X145285714Y-74036723D01*
X145285714Y-74036723D02*
X145238095Y-73846247D01*
X145238095Y-73846247D02*
X145238095Y-73703390D01*
X145238095Y-73703390D02*
X145285714Y-73512914D01*
X145285714Y-73512914D02*
X145333333Y-73417676D01*
X145333333Y-73417676D02*
X145428571Y-73322438D01*
X145428571Y-73322438D02*
X145571428Y-73274819D01*
X145571428Y-73274819D02*
X145666666Y-73274819D01*
X145666666Y-73274819D02*
X145809523Y-73322438D01*
X145809523Y-73322438D02*
X145857142Y-73370057D01*
X146809523Y-74274819D02*
X146238095Y-74274819D01*
X146523809Y-74274819D02*
X146523809Y-73274819D01*
X146523809Y-73274819D02*
X146428571Y-73417676D01*
X146428571Y-73417676D02*
X146333333Y-73512914D01*
X146333333Y-73512914D02*
X146238095Y-73560533D01*
X147666666Y-73608152D02*
X147666666Y-74274819D01*
X147428571Y-73227200D02*
X147190476Y-73941485D01*
X147190476Y-73941485D02*
X147809523Y-73941485D01*
X158358333Y-93359580D02*
X158310714Y-93407200D01*
X158310714Y-93407200D02*
X158167857Y-93454819D01*
X158167857Y-93454819D02*
X158072619Y-93454819D01*
X158072619Y-93454819D02*
X157929762Y-93407200D01*
X157929762Y-93407200D02*
X157834524Y-93311961D01*
X157834524Y-93311961D02*
X157786905Y-93216723D01*
X157786905Y-93216723D02*
X157739286Y-93026247D01*
X157739286Y-93026247D02*
X157739286Y-92883390D01*
X157739286Y-92883390D02*
X157786905Y-92692914D01*
X157786905Y-92692914D02*
X157834524Y-92597676D01*
X157834524Y-92597676D02*
X157929762Y-92502438D01*
X157929762Y-92502438D02*
X158072619Y-92454819D01*
X158072619Y-92454819D02*
X158167857Y-92454819D01*
X158167857Y-92454819D02*
X158310714Y-92502438D01*
X158310714Y-92502438D02*
X158358333Y-92550057D01*
X158691667Y-92454819D02*
X159310714Y-92454819D01*
X159310714Y-92454819D02*
X158977381Y-92835771D01*
X158977381Y-92835771D02*
X159120238Y-92835771D01*
X159120238Y-92835771D02*
X159215476Y-92883390D01*
X159215476Y-92883390D02*
X159263095Y-92931009D01*
X159263095Y-92931009D02*
X159310714Y-93026247D01*
X159310714Y-93026247D02*
X159310714Y-93264342D01*
X159310714Y-93264342D02*
X159263095Y-93359580D01*
X159263095Y-93359580D02*
X159215476Y-93407200D01*
X159215476Y-93407200D02*
X159120238Y-93454819D01*
X159120238Y-93454819D02*
X158834524Y-93454819D01*
X158834524Y-93454819D02*
X158739286Y-93407200D01*
X158739286Y-93407200D02*
X158691667Y-93359580D01*
X141357142Y-107859580D02*
X141309523Y-107907200D01*
X141309523Y-107907200D02*
X141166666Y-107954819D01*
X141166666Y-107954819D02*
X141071428Y-107954819D01*
X141071428Y-107954819D02*
X140928571Y-107907200D01*
X140928571Y-107907200D02*
X140833333Y-107811961D01*
X140833333Y-107811961D02*
X140785714Y-107716723D01*
X140785714Y-107716723D02*
X140738095Y-107526247D01*
X140738095Y-107526247D02*
X140738095Y-107383390D01*
X140738095Y-107383390D02*
X140785714Y-107192914D01*
X140785714Y-107192914D02*
X140833333Y-107097676D01*
X140833333Y-107097676D02*
X140928571Y-107002438D01*
X140928571Y-107002438D02*
X141071428Y-106954819D01*
X141071428Y-106954819D02*
X141166666Y-106954819D01*
X141166666Y-106954819D02*
X141309523Y-107002438D01*
X141309523Y-107002438D02*
X141357142Y-107050057D01*
X142309523Y-107954819D02*
X141738095Y-107954819D01*
X142023809Y-107954819D02*
X142023809Y-106954819D01*
X142023809Y-106954819D02*
X141928571Y-107097676D01*
X141928571Y-107097676D02*
X141833333Y-107192914D01*
X141833333Y-107192914D02*
X141738095Y-107240533D01*
X142642857Y-106954819D02*
X143261904Y-106954819D01*
X143261904Y-106954819D02*
X142928571Y-107335771D01*
X142928571Y-107335771D02*
X143071428Y-107335771D01*
X143071428Y-107335771D02*
X143166666Y-107383390D01*
X143166666Y-107383390D02*
X143214285Y-107431009D01*
X143214285Y-107431009D02*
X143261904Y-107526247D01*
X143261904Y-107526247D02*
X143261904Y-107764342D01*
X143261904Y-107764342D02*
X143214285Y-107859580D01*
X143214285Y-107859580D02*
X143166666Y-107907200D01*
X143166666Y-107907200D02*
X143071428Y-107954819D01*
X143071428Y-107954819D02*
X142785714Y-107954819D01*
X142785714Y-107954819D02*
X142690476Y-107907200D01*
X142690476Y-107907200D02*
X142642857Y-107859580D01*
X157947142Y-66359580D02*
X157899523Y-66407200D01*
X157899523Y-66407200D02*
X157756666Y-66454819D01*
X157756666Y-66454819D02*
X157661428Y-66454819D01*
X157661428Y-66454819D02*
X157518571Y-66407200D01*
X157518571Y-66407200D02*
X157423333Y-66311961D01*
X157423333Y-66311961D02*
X157375714Y-66216723D01*
X157375714Y-66216723D02*
X157328095Y-66026247D01*
X157328095Y-66026247D02*
X157328095Y-65883390D01*
X157328095Y-65883390D02*
X157375714Y-65692914D01*
X157375714Y-65692914D02*
X157423333Y-65597676D01*
X157423333Y-65597676D02*
X157518571Y-65502438D01*
X157518571Y-65502438D02*
X157661428Y-65454819D01*
X157661428Y-65454819D02*
X157756666Y-65454819D01*
X157756666Y-65454819D02*
X157899523Y-65502438D01*
X157899523Y-65502438D02*
X157947142Y-65550057D01*
X158899523Y-66454819D02*
X158328095Y-66454819D01*
X158613809Y-66454819D02*
X158613809Y-65454819D01*
X158613809Y-65454819D02*
X158518571Y-65597676D01*
X158518571Y-65597676D02*
X158423333Y-65692914D01*
X158423333Y-65692914D02*
X158328095Y-65740533D01*
X159518571Y-65454819D02*
X159613809Y-65454819D01*
X159613809Y-65454819D02*
X159709047Y-65502438D01*
X159709047Y-65502438D02*
X159756666Y-65550057D01*
X159756666Y-65550057D02*
X159804285Y-65645295D01*
X159804285Y-65645295D02*
X159851904Y-65835771D01*
X159851904Y-65835771D02*
X159851904Y-66073866D01*
X159851904Y-66073866D02*
X159804285Y-66264342D01*
X159804285Y-66264342D02*
X159756666Y-66359580D01*
X159756666Y-66359580D02*
X159709047Y-66407200D01*
X159709047Y-66407200D02*
X159613809Y-66454819D01*
X159613809Y-66454819D02*
X159518571Y-66454819D01*
X159518571Y-66454819D02*
X159423333Y-66407200D01*
X159423333Y-66407200D02*
X159375714Y-66359580D01*
X159375714Y-66359580D02*
X159328095Y-66264342D01*
X159328095Y-66264342D02*
X159280476Y-66073866D01*
X159280476Y-66073866D02*
X159280476Y-65835771D01*
X159280476Y-65835771D02*
X159328095Y-65645295D01*
X159328095Y-65645295D02*
X159375714Y-65550057D01*
X159375714Y-65550057D02*
X159423333Y-65502438D01*
X159423333Y-65502438D02*
X159518571Y-65454819D01*
X160454819Y-100191666D02*
X159978628Y-100524999D01*
X160454819Y-100763094D02*
X159454819Y-100763094D01*
X159454819Y-100763094D02*
X159454819Y-100382142D01*
X159454819Y-100382142D02*
X159502438Y-100286904D01*
X159502438Y-100286904D02*
X159550057Y-100239285D01*
X159550057Y-100239285D02*
X159645295Y-100191666D01*
X159645295Y-100191666D02*
X159788152Y-100191666D01*
X159788152Y-100191666D02*
X159883390Y-100239285D01*
X159883390Y-100239285D02*
X159931009Y-100286904D01*
X159931009Y-100286904D02*
X159978628Y-100382142D01*
X159978628Y-100382142D02*
X159978628Y-100763094D01*
X160454819Y-99239285D02*
X160454819Y-99810713D01*
X160454819Y-99524999D02*
X159454819Y-99524999D01*
X159454819Y-99524999D02*
X159597676Y-99620237D01*
X159597676Y-99620237D02*
X159692914Y-99715475D01*
X159692914Y-99715475D02*
X159740533Y-99810713D01*
X162954819Y-101239285D02*
X162954819Y-100620238D01*
X162954819Y-100620238D02*
X163335771Y-100953571D01*
X163335771Y-100953571D02*
X163335771Y-100810714D01*
X163335771Y-100810714D02*
X163383390Y-100715476D01*
X163383390Y-100715476D02*
X163431009Y-100667857D01*
X163431009Y-100667857D02*
X163526247Y-100620238D01*
X163526247Y-100620238D02*
X163764342Y-100620238D01*
X163764342Y-100620238D02*
X163859580Y-100667857D01*
X163859580Y-100667857D02*
X163907200Y-100715476D01*
X163907200Y-100715476D02*
X163954819Y-100810714D01*
X163954819Y-100810714D02*
X163954819Y-101096428D01*
X163954819Y-101096428D02*
X163907200Y-101191666D01*
X163907200Y-101191666D02*
X163859580Y-101239285D01*
X163954819Y-99667857D02*
X163954819Y-100239285D01*
X163954819Y-99953571D02*
X162954819Y-99953571D01*
X162954819Y-99953571D02*
X163097676Y-100048809D01*
X163097676Y-100048809D02*
X163192914Y-100144047D01*
X163192914Y-100144047D02*
X163240533Y-100239285D01*
X163954819Y-99239285D02*
X162954819Y-99239285D01*
X163573866Y-99144047D02*
X163954819Y-98858333D01*
X163288152Y-98858333D02*
X163669104Y-99239285D01*
X156333333Y-107859580D02*
X156285714Y-107907200D01*
X156285714Y-107907200D02*
X156142857Y-107954819D01*
X156142857Y-107954819D02*
X156047619Y-107954819D01*
X156047619Y-107954819D02*
X155904762Y-107907200D01*
X155904762Y-107907200D02*
X155809524Y-107811961D01*
X155809524Y-107811961D02*
X155761905Y-107716723D01*
X155761905Y-107716723D02*
X155714286Y-107526247D01*
X155714286Y-107526247D02*
X155714286Y-107383390D01*
X155714286Y-107383390D02*
X155761905Y-107192914D01*
X155761905Y-107192914D02*
X155809524Y-107097676D01*
X155809524Y-107097676D02*
X155904762Y-107002438D01*
X155904762Y-107002438D02*
X156047619Y-106954819D01*
X156047619Y-106954819D02*
X156142857Y-106954819D01*
X156142857Y-106954819D02*
X156285714Y-107002438D01*
X156285714Y-107002438D02*
X156333333Y-107050057D01*
X157285714Y-107954819D02*
X156714286Y-107954819D01*
X157000000Y-107954819D02*
X157000000Y-106954819D01*
X157000000Y-106954819D02*
X156904762Y-107097676D01*
X156904762Y-107097676D02*
X156809524Y-107192914D01*
X156809524Y-107192914D02*
X156714286Y-107240533D01*
X146333333Y-71954819D02*
X146000000Y-71478628D01*
X145761905Y-71954819D02*
X145761905Y-70954819D01*
X145761905Y-70954819D02*
X146142857Y-70954819D01*
X146142857Y-70954819D02*
X146238095Y-71002438D01*
X146238095Y-71002438D02*
X146285714Y-71050057D01*
X146285714Y-71050057D02*
X146333333Y-71145295D01*
X146333333Y-71145295D02*
X146333333Y-71288152D01*
X146333333Y-71288152D02*
X146285714Y-71383390D01*
X146285714Y-71383390D02*
X146238095Y-71431009D01*
X146238095Y-71431009D02*
X146142857Y-71478628D01*
X146142857Y-71478628D02*
X145761905Y-71478628D01*
X146666667Y-70954819D02*
X147285714Y-70954819D01*
X147285714Y-70954819D02*
X146952381Y-71335771D01*
X146952381Y-71335771D02*
X147095238Y-71335771D01*
X147095238Y-71335771D02*
X147190476Y-71383390D01*
X147190476Y-71383390D02*
X147238095Y-71431009D01*
X147238095Y-71431009D02*
X147285714Y-71526247D01*
X147285714Y-71526247D02*
X147285714Y-71764342D01*
X147285714Y-71764342D02*
X147238095Y-71859580D01*
X147238095Y-71859580D02*
X147190476Y-71907200D01*
X147190476Y-71907200D02*
X147095238Y-71954819D01*
X147095238Y-71954819D02*
X146809524Y-71954819D01*
X146809524Y-71954819D02*
X146714286Y-71907200D01*
X146714286Y-71907200D02*
X146666667Y-71859580D01*
X166619048Y-104954819D02*
X166619048Y-103954819D01*
X166619048Y-103954819D02*
X166857143Y-103954819D01*
X166857143Y-103954819D02*
X167000000Y-104002438D01*
X167000000Y-104002438D02*
X167095238Y-104097676D01*
X167095238Y-104097676D02*
X167142857Y-104192914D01*
X167142857Y-104192914D02*
X167190476Y-104383390D01*
X167190476Y-104383390D02*
X167190476Y-104526247D01*
X167190476Y-104526247D02*
X167142857Y-104716723D01*
X167142857Y-104716723D02*
X167095238Y-104811961D01*
X167095238Y-104811961D02*
X167000000Y-104907200D01*
X167000000Y-104907200D02*
X166857143Y-104954819D01*
X166857143Y-104954819D02*
X166619048Y-104954819D01*
X167619048Y-104954819D02*
X167619048Y-104288152D01*
X167619048Y-103954819D02*
X167571429Y-104002438D01*
X167571429Y-104002438D02*
X167619048Y-104050057D01*
X167619048Y-104050057D02*
X167666667Y-104002438D01*
X167666667Y-104002438D02*
X167619048Y-103954819D01*
X167619048Y-103954819D02*
X167619048Y-104050057D01*
X168000000Y-104288152D02*
X168238095Y-104954819D01*
X168238095Y-104954819D02*
X168476190Y-104288152D01*
X143833333Y-93859580D02*
X143785714Y-93907200D01*
X143785714Y-93907200D02*
X143642857Y-93954819D01*
X143642857Y-93954819D02*
X143547619Y-93954819D01*
X143547619Y-93954819D02*
X143404762Y-93907200D01*
X143404762Y-93907200D02*
X143309524Y-93811961D01*
X143309524Y-93811961D02*
X143261905Y-93716723D01*
X143261905Y-93716723D02*
X143214286Y-93526247D01*
X143214286Y-93526247D02*
X143214286Y-93383390D01*
X143214286Y-93383390D02*
X143261905Y-93192914D01*
X143261905Y-93192914D02*
X143309524Y-93097676D01*
X143309524Y-93097676D02*
X143404762Y-93002438D01*
X143404762Y-93002438D02*
X143547619Y-92954819D01*
X143547619Y-92954819D02*
X143642857Y-92954819D01*
X143642857Y-92954819D02*
X143785714Y-93002438D01*
X143785714Y-93002438D02*
X143833333Y-93050057D01*
X144738095Y-92954819D02*
X144261905Y-92954819D01*
X144261905Y-92954819D02*
X144214286Y-93431009D01*
X144214286Y-93431009D02*
X144261905Y-93383390D01*
X144261905Y-93383390D02*
X144357143Y-93335771D01*
X144357143Y-93335771D02*
X144595238Y-93335771D01*
X144595238Y-93335771D02*
X144690476Y-93383390D01*
X144690476Y-93383390D02*
X144738095Y-93431009D01*
X144738095Y-93431009D02*
X144785714Y-93526247D01*
X144785714Y-93526247D02*
X144785714Y-93764342D01*
X144785714Y-93764342D02*
X144738095Y-93859580D01*
X144738095Y-93859580D02*
X144690476Y-93907200D01*
X144690476Y-93907200D02*
X144595238Y-93954819D01*
X144595238Y-93954819D02*
X144357143Y-93954819D01*
X144357143Y-93954819D02*
X144261905Y-93907200D01*
X144261905Y-93907200D02*
X144214286Y-93859580D01*
X141333333Y-93859580D02*
X141285714Y-93907200D01*
X141285714Y-93907200D02*
X141142857Y-93954819D01*
X141142857Y-93954819D02*
X141047619Y-93954819D01*
X141047619Y-93954819D02*
X140904762Y-93907200D01*
X140904762Y-93907200D02*
X140809524Y-93811961D01*
X140809524Y-93811961D02*
X140761905Y-93716723D01*
X140761905Y-93716723D02*
X140714286Y-93526247D01*
X140714286Y-93526247D02*
X140714286Y-93383390D01*
X140714286Y-93383390D02*
X140761905Y-93192914D01*
X140761905Y-93192914D02*
X140809524Y-93097676D01*
X140809524Y-93097676D02*
X140904762Y-93002438D01*
X140904762Y-93002438D02*
X141047619Y-92954819D01*
X141047619Y-92954819D02*
X141142857Y-92954819D01*
X141142857Y-92954819D02*
X141285714Y-93002438D01*
X141285714Y-93002438D02*
X141333333Y-93050057D01*
X142190476Y-92954819D02*
X142000000Y-92954819D01*
X142000000Y-92954819D02*
X141904762Y-93002438D01*
X141904762Y-93002438D02*
X141857143Y-93050057D01*
X141857143Y-93050057D02*
X141761905Y-93192914D01*
X141761905Y-93192914D02*
X141714286Y-93383390D01*
X141714286Y-93383390D02*
X141714286Y-93764342D01*
X141714286Y-93764342D02*
X141761905Y-93859580D01*
X141761905Y-93859580D02*
X141809524Y-93907200D01*
X141809524Y-93907200D02*
X141904762Y-93954819D01*
X141904762Y-93954819D02*
X142095238Y-93954819D01*
X142095238Y-93954819D02*
X142190476Y-93907200D01*
X142190476Y-93907200D02*
X142238095Y-93859580D01*
X142238095Y-93859580D02*
X142285714Y-93764342D01*
X142285714Y-93764342D02*
X142285714Y-93526247D01*
X142285714Y-93526247D02*
X142238095Y-93431009D01*
X142238095Y-93431009D02*
X142190476Y-93383390D01*
X142190476Y-93383390D02*
X142095238Y-93335771D01*
X142095238Y-93335771D02*
X141904762Y-93335771D01*
X141904762Y-93335771D02*
X141809524Y-93383390D01*
X141809524Y-93383390D02*
X141761905Y-93431009D01*
X141761905Y-93431009D02*
X141714286Y-93526247D01*
X150833333Y-76954819D02*
X150500000Y-76478628D01*
X150261905Y-76954819D02*
X150261905Y-75954819D01*
X150261905Y-75954819D02*
X150642857Y-75954819D01*
X150642857Y-75954819D02*
X150738095Y-76002438D01*
X150738095Y-76002438D02*
X150785714Y-76050057D01*
X150785714Y-76050057D02*
X150833333Y-76145295D01*
X150833333Y-76145295D02*
X150833333Y-76288152D01*
X150833333Y-76288152D02*
X150785714Y-76383390D01*
X150785714Y-76383390D02*
X150738095Y-76431009D01*
X150738095Y-76431009D02*
X150642857Y-76478628D01*
X150642857Y-76478628D02*
X150261905Y-76478628D01*
X151738095Y-75954819D02*
X151261905Y-75954819D01*
X151261905Y-75954819D02*
X151214286Y-76431009D01*
X151214286Y-76431009D02*
X151261905Y-76383390D01*
X151261905Y-76383390D02*
X151357143Y-76335771D01*
X151357143Y-76335771D02*
X151595238Y-76335771D01*
X151595238Y-76335771D02*
X151690476Y-76383390D01*
X151690476Y-76383390D02*
X151738095Y-76431009D01*
X151738095Y-76431009D02*
X151785714Y-76526247D01*
X151785714Y-76526247D02*
X151785714Y-76764342D01*
X151785714Y-76764342D02*
X151738095Y-76859580D01*
X151738095Y-76859580D02*
X151690476Y-76907200D01*
X151690476Y-76907200D02*
X151595238Y-76954819D01*
X151595238Y-76954819D02*
X151357143Y-76954819D01*
X151357143Y-76954819D02*
X151261905Y-76907200D01*
X151261905Y-76907200D02*
X151214286Y-76859580D01*
X149138152Y-75404761D02*
X149804819Y-75404761D01*
X148757200Y-75642856D02*
X149471485Y-75880951D01*
X149471485Y-75880951D02*
X149471485Y-75261904D01*
X149804819Y-74833332D02*
X149804819Y-74642856D01*
X149804819Y-74642856D02*
X149757200Y-74547618D01*
X149757200Y-74547618D02*
X149709580Y-74499999D01*
X149709580Y-74499999D02*
X149566723Y-74404761D01*
X149566723Y-74404761D02*
X149376247Y-74357142D01*
X149376247Y-74357142D02*
X148995295Y-74357142D01*
X148995295Y-74357142D02*
X148900057Y-74404761D01*
X148900057Y-74404761D02*
X148852438Y-74452380D01*
X148852438Y-74452380D02*
X148804819Y-74547618D01*
X148804819Y-74547618D02*
X148804819Y-74738094D01*
X148804819Y-74738094D02*
X148852438Y-74833332D01*
X148852438Y-74833332D02*
X148900057Y-74880951D01*
X148900057Y-74880951D02*
X148995295Y-74928570D01*
X148995295Y-74928570D02*
X149233390Y-74928570D01*
X149233390Y-74928570D02*
X149328628Y-74880951D01*
X149328628Y-74880951D02*
X149376247Y-74833332D01*
X149376247Y-74833332D02*
X149423866Y-74738094D01*
X149423866Y-74738094D02*
X149423866Y-74547618D01*
X149423866Y-74547618D02*
X149376247Y-74452380D01*
X149376247Y-74452380D02*
X149328628Y-74404761D01*
X149328628Y-74404761D02*
X149233390Y-74357142D01*
X149709580Y-73928570D02*
X149757200Y-73880951D01*
X149757200Y-73880951D02*
X149804819Y-73928570D01*
X149804819Y-73928570D02*
X149757200Y-73976189D01*
X149757200Y-73976189D02*
X149709580Y-73928570D01*
X149709580Y-73928570D02*
X149804819Y-73928570D01*
X149804819Y-73404761D02*
X149804819Y-73214285D01*
X149804819Y-73214285D02*
X149757200Y-73119047D01*
X149757200Y-73119047D02*
X149709580Y-73071428D01*
X149709580Y-73071428D02*
X149566723Y-72976190D01*
X149566723Y-72976190D02*
X149376247Y-72928571D01*
X149376247Y-72928571D02*
X148995295Y-72928571D01*
X148995295Y-72928571D02*
X148900057Y-72976190D01*
X148900057Y-72976190D02*
X148852438Y-73023809D01*
X148852438Y-73023809D02*
X148804819Y-73119047D01*
X148804819Y-73119047D02*
X148804819Y-73309523D01*
X148804819Y-73309523D02*
X148852438Y-73404761D01*
X148852438Y-73404761D02*
X148900057Y-73452380D01*
X148900057Y-73452380D02*
X148995295Y-73499999D01*
X148995295Y-73499999D02*
X149233390Y-73499999D01*
X149233390Y-73499999D02*
X149328628Y-73452380D01*
X149328628Y-73452380D02*
X149376247Y-73404761D01*
X149376247Y-73404761D02*
X149423866Y-73309523D01*
X149423866Y-73309523D02*
X149423866Y-73119047D01*
X149423866Y-73119047D02*
X149376247Y-73023809D01*
X149376247Y-73023809D02*
X149328628Y-72976190D01*
X149328628Y-72976190D02*
X149233390Y-72928571D01*
X149804819Y-72499999D02*
X148804819Y-72499999D01*
X149423866Y-72404761D02*
X149804819Y-72119047D01*
X149138152Y-72119047D02*
X149519104Y-72499999D01*
X159833333Y-75454819D02*
X159500000Y-74978628D01*
X159261905Y-75454819D02*
X159261905Y-74454819D01*
X159261905Y-74454819D02*
X159642857Y-74454819D01*
X159642857Y-74454819D02*
X159738095Y-74502438D01*
X159738095Y-74502438D02*
X159785714Y-74550057D01*
X159785714Y-74550057D02*
X159833333Y-74645295D01*
X159833333Y-74645295D02*
X159833333Y-74788152D01*
X159833333Y-74788152D02*
X159785714Y-74883390D01*
X159785714Y-74883390D02*
X159738095Y-74931009D01*
X159738095Y-74931009D02*
X159642857Y-74978628D01*
X159642857Y-74978628D02*
X159261905Y-74978628D01*
X160690476Y-74454819D02*
X160500000Y-74454819D01*
X160500000Y-74454819D02*
X160404762Y-74502438D01*
X160404762Y-74502438D02*
X160357143Y-74550057D01*
X160357143Y-74550057D02*
X160261905Y-74692914D01*
X160261905Y-74692914D02*
X160214286Y-74883390D01*
X160214286Y-74883390D02*
X160214286Y-75264342D01*
X160214286Y-75264342D02*
X160261905Y-75359580D01*
X160261905Y-75359580D02*
X160309524Y-75407200D01*
X160309524Y-75407200D02*
X160404762Y-75454819D01*
X160404762Y-75454819D02*
X160595238Y-75454819D01*
X160595238Y-75454819D02*
X160690476Y-75407200D01*
X160690476Y-75407200D02*
X160738095Y-75359580D01*
X160738095Y-75359580D02*
X160785714Y-75264342D01*
X160785714Y-75264342D02*
X160785714Y-75026247D01*
X160785714Y-75026247D02*
X160738095Y-74931009D01*
X160738095Y-74931009D02*
X160690476Y-74883390D01*
X160690476Y-74883390D02*
X160595238Y-74835771D01*
X160595238Y-74835771D02*
X160404762Y-74835771D01*
X160404762Y-74835771D02*
X160309524Y-74883390D01*
X160309524Y-74883390D02*
X160261905Y-74931009D01*
X160261905Y-74931009D02*
X160214286Y-75026247D01*
X160917319Y-74466070D02*
X160917319Y-73847023D01*
X160917319Y-73847023D02*
X161298271Y-74180356D01*
X161298271Y-74180356D02*
X161298271Y-74037499D01*
X161298271Y-74037499D02*
X161345890Y-73942261D01*
X161345890Y-73942261D02*
X161393509Y-73894642D01*
X161393509Y-73894642D02*
X161488747Y-73847023D01*
X161488747Y-73847023D02*
X161726842Y-73847023D01*
X161726842Y-73847023D02*
X161822080Y-73894642D01*
X161822080Y-73894642D02*
X161869700Y-73942261D01*
X161869700Y-73942261D02*
X161917319Y-74037499D01*
X161917319Y-74037499D02*
X161917319Y-74323213D01*
X161917319Y-74323213D02*
X161869700Y-74418451D01*
X161869700Y-74418451D02*
X161822080Y-74466070D01*
X160917319Y-73513689D02*
X160917319Y-72894642D01*
X160917319Y-72894642D02*
X161298271Y-73227975D01*
X161298271Y-73227975D02*
X161298271Y-73085118D01*
X161298271Y-73085118D02*
X161345890Y-72989880D01*
X161345890Y-72989880D02*
X161393509Y-72942261D01*
X161393509Y-72942261D02*
X161488747Y-72894642D01*
X161488747Y-72894642D02*
X161726842Y-72894642D01*
X161726842Y-72894642D02*
X161822080Y-72942261D01*
X161822080Y-72942261D02*
X161869700Y-72989880D01*
X161869700Y-72989880D02*
X161917319Y-73085118D01*
X161917319Y-73085118D02*
X161917319Y-73370832D01*
X161917319Y-73370832D02*
X161869700Y-73466070D01*
X161869700Y-73466070D02*
X161822080Y-73513689D01*
X161822080Y-72466070D02*
X161869700Y-72418451D01*
X161869700Y-72418451D02*
X161917319Y-72466070D01*
X161917319Y-72466070D02*
X161869700Y-72513689D01*
X161869700Y-72513689D02*
X161822080Y-72466070D01*
X161822080Y-72466070D02*
X161917319Y-72466070D01*
X161012557Y-72037499D02*
X160964938Y-71989880D01*
X160964938Y-71989880D02*
X160917319Y-71894642D01*
X160917319Y-71894642D02*
X160917319Y-71656547D01*
X160917319Y-71656547D02*
X160964938Y-71561309D01*
X160964938Y-71561309D02*
X161012557Y-71513690D01*
X161012557Y-71513690D02*
X161107795Y-71466071D01*
X161107795Y-71466071D02*
X161203033Y-71466071D01*
X161203033Y-71466071D02*
X161345890Y-71513690D01*
X161345890Y-71513690D02*
X161917319Y-72085118D01*
X161917319Y-72085118D02*
X161917319Y-71466071D01*
X161917319Y-71037499D02*
X160917319Y-71037499D01*
X161536366Y-70942261D02*
X161917319Y-70656547D01*
X161250652Y-70656547D02*
X161631604Y-71037499D01*
X146333333Y-63359580D02*
X146285714Y-63407200D01*
X146285714Y-63407200D02*
X146142857Y-63454819D01*
X146142857Y-63454819D02*
X146047619Y-63454819D01*
X146047619Y-63454819D02*
X145904762Y-63407200D01*
X145904762Y-63407200D02*
X145809524Y-63311961D01*
X145809524Y-63311961D02*
X145761905Y-63216723D01*
X145761905Y-63216723D02*
X145714286Y-63026247D01*
X145714286Y-63026247D02*
X145714286Y-62883390D01*
X145714286Y-62883390D02*
X145761905Y-62692914D01*
X145761905Y-62692914D02*
X145809524Y-62597676D01*
X145809524Y-62597676D02*
X145904762Y-62502438D01*
X145904762Y-62502438D02*
X146047619Y-62454819D01*
X146047619Y-62454819D02*
X146142857Y-62454819D01*
X146142857Y-62454819D02*
X146285714Y-62502438D01*
X146285714Y-62502438D02*
X146333333Y-62550057D01*
X146904762Y-62883390D02*
X146809524Y-62835771D01*
X146809524Y-62835771D02*
X146761905Y-62788152D01*
X146761905Y-62788152D02*
X146714286Y-62692914D01*
X146714286Y-62692914D02*
X146714286Y-62645295D01*
X146714286Y-62645295D02*
X146761905Y-62550057D01*
X146761905Y-62550057D02*
X146809524Y-62502438D01*
X146809524Y-62502438D02*
X146904762Y-62454819D01*
X146904762Y-62454819D02*
X147095238Y-62454819D01*
X147095238Y-62454819D02*
X147190476Y-62502438D01*
X147190476Y-62502438D02*
X147238095Y-62550057D01*
X147238095Y-62550057D02*
X147285714Y-62645295D01*
X147285714Y-62645295D02*
X147285714Y-62692914D01*
X147285714Y-62692914D02*
X147238095Y-62788152D01*
X147238095Y-62788152D02*
X147190476Y-62835771D01*
X147190476Y-62835771D02*
X147095238Y-62883390D01*
X147095238Y-62883390D02*
X146904762Y-62883390D01*
X146904762Y-62883390D02*
X146809524Y-62931009D01*
X146809524Y-62931009D02*
X146761905Y-62978628D01*
X146761905Y-62978628D02*
X146714286Y-63073866D01*
X146714286Y-63073866D02*
X146714286Y-63264342D01*
X146714286Y-63264342D02*
X146761905Y-63359580D01*
X146761905Y-63359580D02*
X146809524Y-63407200D01*
X146809524Y-63407200D02*
X146904762Y-63454819D01*
X146904762Y-63454819D02*
X147095238Y-63454819D01*
X147095238Y-63454819D02*
X147190476Y-63407200D01*
X147190476Y-63407200D02*
X147238095Y-63359580D01*
X147238095Y-63359580D02*
X147285714Y-63264342D01*
X147285714Y-63264342D02*
X147285714Y-63073866D01*
X147285714Y-63073866D02*
X147238095Y-62978628D01*
X147238095Y-62978628D02*
X147190476Y-62931009D01*
X147190476Y-62931009D02*
X147095238Y-62883390D01*
X146333333Y-65859580D02*
X146285714Y-65907200D01*
X146285714Y-65907200D02*
X146142857Y-65954819D01*
X146142857Y-65954819D02*
X146047619Y-65954819D01*
X146047619Y-65954819D02*
X145904762Y-65907200D01*
X145904762Y-65907200D02*
X145809524Y-65811961D01*
X145809524Y-65811961D02*
X145761905Y-65716723D01*
X145761905Y-65716723D02*
X145714286Y-65526247D01*
X145714286Y-65526247D02*
X145714286Y-65383390D01*
X145714286Y-65383390D02*
X145761905Y-65192914D01*
X145761905Y-65192914D02*
X145809524Y-65097676D01*
X145809524Y-65097676D02*
X145904762Y-65002438D01*
X145904762Y-65002438D02*
X146047619Y-64954819D01*
X146047619Y-64954819D02*
X146142857Y-64954819D01*
X146142857Y-64954819D02*
X146285714Y-65002438D01*
X146285714Y-65002438D02*
X146333333Y-65050057D01*
X146666667Y-64954819D02*
X147333333Y-64954819D01*
X147333333Y-64954819D02*
X146904762Y-65954819D01*
X165834523Y-91454819D02*
X165358333Y-91454819D01*
X165358333Y-91454819D02*
X165310714Y-91931009D01*
X165310714Y-91931009D02*
X165358333Y-91883390D01*
X165358333Y-91883390D02*
X165453571Y-91835771D01*
X165453571Y-91835771D02*
X165691666Y-91835771D01*
X165691666Y-91835771D02*
X165786904Y-91883390D01*
X165786904Y-91883390D02*
X165834523Y-91931009D01*
X165834523Y-91931009D02*
X165882142Y-92026247D01*
X165882142Y-92026247D02*
X165882142Y-92264342D01*
X165882142Y-92264342D02*
X165834523Y-92359580D01*
X165834523Y-92359580D02*
X165786904Y-92407200D01*
X165786904Y-92407200D02*
X165691666Y-92454819D01*
X165691666Y-92454819D02*
X165453571Y-92454819D01*
X165453571Y-92454819D02*
X165358333Y-92407200D01*
X165358333Y-92407200D02*
X165310714Y-92359580D01*
X166167857Y-91454819D02*
X166501190Y-92454819D01*
X166501190Y-92454819D02*
X166834523Y-91454819D01*
X141857142Y-89859580D02*
X141809523Y-89907200D01*
X141809523Y-89907200D02*
X141666666Y-89954819D01*
X141666666Y-89954819D02*
X141571428Y-89954819D01*
X141571428Y-89954819D02*
X141428571Y-89907200D01*
X141428571Y-89907200D02*
X141333333Y-89811961D01*
X141333333Y-89811961D02*
X141285714Y-89716723D01*
X141285714Y-89716723D02*
X141238095Y-89526247D01*
X141238095Y-89526247D02*
X141238095Y-89383390D01*
X141238095Y-89383390D02*
X141285714Y-89192914D01*
X141285714Y-89192914D02*
X141333333Y-89097676D01*
X141333333Y-89097676D02*
X141428571Y-89002438D01*
X141428571Y-89002438D02*
X141571428Y-88954819D01*
X141571428Y-88954819D02*
X141666666Y-88954819D01*
X141666666Y-88954819D02*
X141809523Y-89002438D01*
X141809523Y-89002438D02*
X141857142Y-89050057D01*
X142809523Y-89954819D02*
X142238095Y-89954819D01*
X142523809Y-89954819D02*
X142523809Y-88954819D01*
X142523809Y-88954819D02*
X142428571Y-89097676D01*
X142428571Y-89097676D02*
X142333333Y-89192914D01*
X142333333Y-89192914D02*
X142238095Y-89240533D01*
X143714285Y-88954819D02*
X143238095Y-88954819D01*
X143238095Y-88954819D02*
X143190476Y-89431009D01*
X143190476Y-89431009D02*
X143238095Y-89383390D01*
X143238095Y-89383390D02*
X143333333Y-89335771D01*
X143333333Y-89335771D02*
X143571428Y-89335771D01*
X143571428Y-89335771D02*
X143666666Y-89383390D01*
X143666666Y-89383390D02*
X143714285Y-89431009D01*
X143714285Y-89431009D02*
X143761904Y-89526247D01*
X143761904Y-89526247D02*
X143761904Y-89764342D01*
X143761904Y-89764342D02*
X143714285Y-89859580D01*
X143714285Y-89859580D02*
X143666666Y-89907200D01*
X143666666Y-89907200D02*
X143571428Y-89954819D01*
X143571428Y-89954819D02*
X143333333Y-89954819D01*
X143333333Y-89954819D02*
X143238095Y-89907200D01*
X143238095Y-89907200D02*
X143190476Y-89859580D01*
X144333333Y-107859580D02*
X144285714Y-107907200D01*
X144285714Y-107907200D02*
X144142857Y-107954819D01*
X144142857Y-107954819D02*
X144047619Y-107954819D01*
X144047619Y-107954819D02*
X143904762Y-107907200D01*
X143904762Y-107907200D02*
X143809524Y-107811961D01*
X143809524Y-107811961D02*
X143761905Y-107716723D01*
X143761905Y-107716723D02*
X143714286Y-107526247D01*
X143714286Y-107526247D02*
X143714286Y-107383390D01*
X143714286Y-107383390D02*
X143761905Y-107192914D01*
X143761905Y-107192914D02*
X143809524Y-107097676D01*
X143809524Y-107097676D02*
X143904762Y-107002438D01*
X143904762Y-107002438D02*
X144047619Y-106954819D01*
X144047619Y-106954819D02*
X144142857Y-106954819D01*
X144142857Y-106954819D02*
X144285714Y-107002438D01*
X144285714Y-107002438D02*
X144333333Y-107050057D01*
X144714286Y-107050057D02*
X144761905Y-107002438D01*
X144761905Y-107002438D02*
X144857143Y-106954819D01*
X144857143Y-106954819D02*
X145095238Y-106954819D01*
X145095238Y-106954819D02*
X145190476Y-107002438D01*
X145190476Y-107002438D02*
X145238095Y-107050057D01*
X145238095Y-107050057D02*
X145285714Y-107145295D01*
X145285714Y-107145295D02*
X145285714Y-107240533D01*
X145285714Y-107240533D02*
X145238095Y-107383390D01*
X145238095Y-107383390D02*
X144666667Y-107954819D01*
X144666667Y-107954819D02*
X145285714Y-107954819D01*
X166166666Y-105454819D02*
X166166666Y-106169104D01*
X166166666Y-106169104D02*
X166119047Y-106311961D01*
X166119047Y-106311961D02*
X166023809Y-106407200D01*
X166023809Y-106407200D02*
X165880952Y-106454819D01*
X165880952Y-106454819D02*
X165785714Y-106454819D01*
X166547619Y-105454819D02*
X167166666Y-105454819D01*
X167166666Y-105454819D02*
X166833333Y-105835771D01*
X166833333Y-105835771D02*
X166976190Y-105835771D01*
X166976190Y-105835771D02*
X167071428Y-105883390D01*
X167071428Y-105883390D02*
X167119047Y-105931009D01*
X167119047Y-105931009D02*
X167166666Y-106026247D01*
X167166666Y-106026247D02*
X167166666Y-106264342D01*
X167166666Y-106264342D02*
X167119047Y-106359580D01*
X167119047Y-106359580D02*
X167071428Y-106407200D01*
X167071428Y-106407200D02*
X166976190Y-106454819D01*
X166976190Y-106454819D02*
X166690476Y-106454819D01*
X166690476Y-106454819D02*
X166595238Y-106407200D01*
X166595238Y-106407200D02*
X166547619Y-106359580D01*
X165119048Y-76454819D02*
X165119048Y-75454819D01*
X165119048Y-75454819D02*
X165357143Y-75454819D01*
X165357143Y-75454819D02*
X165500000Y-75502438D01*
X165500000Y-75502438D02*
X165595238Y-75597676D01*
X165595238Y-75597676D02*
X165642857Y-75692914D01*
X165642857Y-75692914D02*
X165690476Y-75883390D01*
X165690476Y-75883390D02*
X165690476Y-76026247D01*
X165690476Y-76026247D02*
X165642857Y-76216723D01*
X165642857Y-76216723D02*
X165595238Y-76311961D01*
X165595238Y-76311961D02*
X165500000Y-76407200D01*
X165500000Y-76407200D02*
X165357143Y-76454819D01*
X165357143Y-76454819D02*
X165119048Y-76454819D01*
X166119048Y-76454819D02*
X166119048Y-75788152D01*
X166119048Y-75454819D02*
X166071429Y-75502438D01*
X166071429Y-75502438D02*
X166119048Y-75550057D01*
X166119048Y-75550057D02*
X166166667Y-75502438D01*
X166166667Y-75502438D02*
X166119048Y-75454819D01*
X166119048Y-75454819D02*
X166119048Y-75550057D01*
X166500000Y-75788152D02*
X166738095Y-76454819D01*
X166738095Y-76454819D02*
X166976190Y-75788152D01*
X164523810Y-63954819D02*
X165142857Y-63954819D01*
X165142857Y-63954819D02*
X164809524Y-64335771D01*
X164809524Y-64335771D02*
X164952381Y-64335771D01*
X164952381Y-64335771D02*
X165047619Y-64383390D01*
X165047619Y-64383390D02*
X165095238Y-64431009D01*
X165095238Y-64431009D02*
X165142857Y-64526247D01*
X165142857Y-64526247D02*
X165142857Y-64764342D01*
X165142857Y-64764342D02*
X165095238Y-64859580D01*
X165095238Y-64859580D02*
X165047619Y-64907200D01*
X165047619Y-64907200D02*
X164952381Y-64954819D01*
X164952381Y-64954819D02*
X164666667Y-64954819D01*
X164666667Y-64954819D02*
X164571429Y-64907200D01*
X164571429Y-64907200D02*
X164523810Y-64859580D01*
X165571429Y-64859580D02*
X165619048Y-64907200D01*
X165619048Y-64907200D02*
X165571429Y-64954819D01*
X165571429Y-64954819D02*
X165523810Y-64907200D01*
X165523810Y-64907200D02*
X165571429Y-64859580D01*
X165571429Y-64859580D02*
X165571429Y-64954819D01*
X165952381Y-63954819D02*
X166571428Y-63954819D01*
X166571428Y-63954819D02*
X166238095Y-64335771D01*
X166238095Y-64335771D02*
X166380952Y-64335771D01*
X166380952Y-64335771D02*
X166476190Y-64383390D01*
X166476190Y-64383390D02*
X166523809Y-64431009D01*
X166523809Y-64431009D02*
X166571428Y-64526247D01*
X166571428Y-64526247D02*
X166571428Y-64764342D01*
X166571428Y-64764342D02*
X166523809Y-64859580D01*
X166523809Y-64859580D02*
X166476190Y-64907200D01*
X166476190Y-64907200D02*
X166380952Y-64954819D01*
X166380952Y-64954819D02*
X166095238Y-64954819D01*
X166095238Y-64954819D02*
X166000000Y-64907200D01*
X166000000Y-64907200D02*
X165952381Y-64859580D01*
X166857143Y-63954819D02*
X167190476Y-64954819D01*
X167190476Y-64954819D02*
X167523809Y-63954819D01*
X156819642Y-75359580D02*
X156772023Y-75407200D01*
X156772023Y-75407200D02*
X156629166Y-75454819D01*
X156629166Y-75454819D02*
X156533928Y-75454819D01*
X156533928Y-75454819D02*
X156391071Y-75407200D01*
X156391071Y-75407200D02*
X156295833Y-75311961D01*
X156295833Y-75311961D02*
X156248214Y-75216723D01*
X156248214Y-75216723D02*
X156200595Y-75026247D01*
X156200595Y-75026247D02*
X156200595Y-74883390D01*
X156200595Y-74883390D02*
X156248214Y-74692914D01*
X156248214Y-74692914D02*
X156295833Y-74597676D01*
X156295833Y-74597676D02*
X156391071Y-74502438D01*
X156391071Y-74502438D02*
X156533928Y-74454819D01*
X156533928Y-74454819D02*
X156629166Y-74454819D01*
X156629166Y-74454819D02*
X156772023Y-74502438D01*
X156772023Y-74502438D02*
X156819642Y-74550057D01*
X157772023Y-75454819D02*
X157200595Y-75454819D01*
X157486309Y-75454819D02*
X157486309Y-74454819D01*
X157486309Y-74454819D02*
X157391071Y-74597676D01*
X157391071Y-74597676D02*
X157295833Y-74692914D01*
X157295833Y-74692914D02*
X157200595Y-74740533D01*
X158152976Y-74550057D02*
X158200595Y-74502438D01*
X158200595Y-74502438D02*
X158295833Y-74454819D01*
X158295833Y-74454819D02*
X158533928Y-74454819D01*
X158533928Y-74454819D02*
X158629166Y-74502438D01*
X158629166Y-74502438D02*
X158676785Y-74550057D01*
X158676785Y-74550057D02*
X158724404Y-74645295D01*
X158724404Y-74645295D02*
X158724404Y-74740533D01*
X158724404Y-74740533D02*
X158676785Y-74883390D01*
X158676785Y-74883390D02*
X158105357Y-75454819D01*
X158105357Y-75454819D02*
X158724404Y-75454819D01*
X155750652Y-73513690D02*
X156417319Y-73513690D01*
X155369700Y-73751785D02*
X156083985Y-73989880D01*
X156083985Y-73989880D02*
X156083985Y-73370833D01*
X156322080Y-72989880D02*
X156369700Y-72942261D01*
X156369700Y-72942261D02*
X156417319Y-72989880D01*
X156417319Y-72989880D02*
X156369700Y-73037499D01*
X156369700Y-73037499D02*
X156322080Y-72989880D01*
X156322080Y-72989880D02*
X156417319Y-72989880D01*
X155417319Y-72608928D02*
X155417319Y-71942262D01*
X155417319Y-71942262D02*
X156417319Y-72370833D01*
X155750652Y-71132738D02*
X156417319Y-71132738D01*
X155750652Y-71561309D02*
X156274461Y-71561309D01*
X156274461Y-71561309D02*
X156369700Y-71513690D01*
X156369700Y-71513690D02*
X156417319Y-71418452D01*
X156417319Y-71418452D02*
X156417319Y-71275595D01*
X156417319Y-71275595D02*
X156369700Y-71180357D01*
X156369700Y-71180357D02*
X156322080Y-71132738D01*
X160454819Y-100166666D02*
X159978628Y-100499999D01*
X160454819Y-100738094D02*
X159454819Y-100738094D01*
X159454819Y-100738094D02*
X159454819Y-100357142D01*
X159454819Y-100357142D02*
X159502438Y-100261904D01*
X159502438Y-100261904D02*
X159550057Y-100214285D01*
X159550057Y-100214285D02*
X159645295Y-100166666D01*
X159645295Y-100166666D02*
X159788152Y-100166666D01*
X159788152Y-100166666D02*
X159883390Y-100214285D01*
X159883390Y-100214285D02*
X159931009Y-100261904D01*
X159931009Y-100261904D02*
X159978628Y-100357142D01*
X159978628Y-100357142D02*
X159978628Y-100738094D01*
X159550057Y-99785713D02*
X159502438Y-99738094D01*
X159502438Y-99738094D02*
X159454819Y-99642856D01*
X159454819Y-99642856D02*
X159454819Y-99404761D01*
X159454819Y-99404761D02*
X159502438Y-99309523D01*
X159502438Y-99309523D02*
X159550057Y-99261904D01*
X159550057Y-99261904D02*
X159645295Y-99214285D01*
X159645295Y-99214285D02*
X159740533Y-99214285D01*
X159740533Y-99214285D02*
X159883390Y-99261904D01*
X159883390Y-99261904D02*
X160454819Y-99833332D01*
X160454819Y-99833332D02*
X160454819Y-99214285D01*
X156954819Y-100570238D02*
X156954819Y-101141666D01*
X156954819Y-100855952D02*
X155954819Y-100855952D01*
X155954819Y-100855952D02*
X156097676Y-100951190D01*
X156097676Y-100951190D02*
X156192914Y-101046428D01*
X156192914Y-101046428D02*
X156240533Y-101141666D01*
X155954819Y-99951190D02*
X155954819Y-99855952D01*
X155954819Y-99855952D02*
X156002438Y-99760714D01*
X156002438Y-99760714D02*
X156050057Y-99713095D01*
X156050057Y-99713095D02*
X156145295Y-99665476D01*
X156145295Y-99665476D02*
X156335771Y-99617857D01*
X156335771Y-99617857D02*
X156573866Y-99617857D01*
X156573866Y-99617857D02*
X156764342Y-99665476D01*
X156764342Y-99665476D02*
X156859580Y-99713095D01*
X156859580Y-99713095D02*
X156907200Y-99760714D01*
X156907200Y-99760714D02*
X156954819Y-99855952D01*
X156954819Y-99855952D02*
X156954819Y-99951190D01*
X156954819Y-99951190D02*
X156907200Y-100046428D01*
X156907200Y-100046428D02*
X156859580Y-100094047D01*
X156859580Y-100094047D02*
X156764342Y-100141666D01*
X156764342Y-100141666D02*
X156573866Y-100189285D01*
X156573866Y-100189285D02*
X156335771Y-100189285D01*
X156335771Y-100189285D02*
X156145295Y-100141666D01*
X156145295Y-100141666D02*
X156050057Y-100094047D01*
X156050057Y-100094047D02*
X156002438Y-100046428D01*
X156002438Y-100046428D02*
X155954819Y-99951190D01*
X156954819Y-99189285D02*
X155954819Y-99189285D01*
X156573866Y-99094047D02*
X156954819Y-98808333D01*
X156288152Y-98808333D02*
X156669104Y-99189285D01*
X152833333Y-76954819D02*
X152500000Y-76478628D01*
X152261905Y-76954819D02*
X152261905Y-75954819D01*
X152261905Y-75954819D02*
X152642857Y-75954819D01*
X152642857Y-75954819D02*
X152738095Y-76002438D01*
X152738095Y-76002438D02*
X152785714Y-76050057D01*
X152785714Y-76050057D02*
X152833333Y-76145295D01*
X152833333Y-76145295D02*
X152833333Y-76288152D01*
X152833333Y-76288152D02*
X152785714Y-76383390D01*
X152785714Y-76383390D02*
X152738095Y-76431009D01*
X152738095Y-76431009D02*
X152642857Y-76478628D01*
X152642857Y-76478628D02*
X152261905Y-76478628D01*
X153690476Y-76288152D02*
X153690476Y-76954819D01*
X153452381Y-75907200D02*
X153214286Y-76621485D01*
X153214286Y-76621485D02*
X153833333Y-76621485D01*
X154438152Y-75166666D02*
X155104819Y-75166666D01*
X154057200Y-75404761D02*
X154771485Y-75642856D01*
X154771485Y-75642856D02*
X154771485Y-75023809D01*
X154104819Y-74166666D02*
X154104819Y-74642856D01*
X154104819Y-74642856D02*
X154581009Y-74690475D01*
X154581009Y-74690475D02*
X154533390Y-74642856D01*
X154533390Y-74642856D02*
X154485771Y-74547618D01*
X154485771Y-74547618D02*
X154485771Y-74309523D01*
X154485771Y-74309523D02*
X154533390Y-74214285D01*
X154533390Y-74214285D02*
X154581009Y-74166666D01*
X154581009Y-74166666D02*
X154676247Y-74119047D01*
X154676247Y-74119047D02*
X154914342Y-74119047D01*
X154914342Y-74119047D02*
X155009580Y-74166666D01*
X155009580Y-74166666D02*
X155057200Y-74214285D01*
X155057200Y-74214285D02*
X155104819Y-74309523D01*
X155104819Y-74309523D02*
X155104819Y-74547618D01*
X155104819Y-74547618D02*
X155057200Y-74642856D01*
X155057200Y-74642856D02*
X155009580Y-74690475D01*
X154104819Y-73785713D02*
X154104819Y-73166666D01*
X154104819Y-73166666D02*
X154485771Y-73499999D01*
X154485771Y-73499999D02*
X154485771Y-73357142D01*
X154485771Y-73357142D02*
X154533390Y-73261904D01*
X154533390Y-73261904D02*
X154581009Y-73214285D01*
X154581009Y-73214285D02*
X154676247Y-73166666D01*
X154676247Y-73166666D02*
X154914342Y-73166666D01*
X154914342Y-73166666D02*
X155009580Y-73214285D01*
X155009580Y-73214285D02*
X155057200Y-73261904D01*
X155057200Y-73261904D02*
X155104819Y-73357142D01*
X155104819Y-73357142D02*
X155104819Y-73642856D01*
X155104819Y-73642856D02*
X155057200Y-73738094D01*
X155057200Y-73738094D02*
X155009580Y-73785713D01*
X155104819Y-72738094D02*
X154104819Y-72738094D01*
X154723866Y-72642856D02*
X155104819Y-72357142D01*
X154438152Y-72357142D02*
X154819104Y-72738094D01*
X162261905Y-107954819D02*
X162261905Y-106954819D01*
X162261905Y-106954819D02*
X162500000Y-106954819D01*
X162500000Y-106954819D02*
X162642857Y-107002438D01*
X162642857Y-107002438D02*
X162738095Y-107097676D01*
X162738095Y-107097676D02*
X162785714Y-107192914D01*
X162785714Y-107192914D02*
X162833333Y-107383390D01*
X162833333Y-107383390D02*
X162833333Y-107526247D01*
X162833333Y-107526247D02*
X162785714Y-107716723D01*
X162785714Y-107716723D02*
X162738095Y-107811961D01*
X162738095Y-107811961D02*
X162642857Y-107907200D01*
X162642857Y-107907200D02*
X162500000Y-107954819D01*
X162500000Y-107954819D02*
X162261905Y-107954819D01*
X163785714Y-107954819D02*
X163214286Y-107954819D01*
X163500000Y-107954819D02*
X163500000Y-106954819D01*
X163500000Y-106954819D02*
X163404762Y-107097676D01*
X163404762Y-107097676D02*
X163309524Y-107192914D01*
X163309524Y-107192914D02*
X163214286Y-107240533D01*
X150464895Y-90495719D02*
X150464895Y-91305242D01*
X150464895Y-91305242D02*
X150512514Y-91400480D01*
X150512514Y-91400480D02*
X150560133Y-91448100D01*
X150560133Y-91448100D02*
X150655371Y-91495719D01*
X150655371Y-91495719D02*
X150845847Y-91495719D01*
X150845847Y-91495719D02*
X150941085Y-91448100D01*
X150941085Y-91448100D02*
X150988704Y-91400480D01*
X150988704Y-91400480D02*
X151036323Y-91305242D01*
X151036323Y-91305242D02*
X151036323Y-90495719D01*
X152036323Y-91495719D02*
X151464895Y-91495719D01*
X151750609Y-91495719D02*
X151750609Y-90495719D01*
X151750609Y-90495719D02*
X151655371Y-90638576D01*
X151655371Y-90638576D02*
X151560133Y-90733814D01*
X151560133Y-90733814D02*
X151464895Y-90781433D01*
X148595237Y-92954819D02*
X148119047Y-92954819D01*
X148119047Y-92954819D02*
X148119047Y-91954819D01*
X148785714Y-91954819D02*
X149357142Y-91954819D01*
X149071428Y-92954819D02*
X149071428Y-91954819D01*
X150214285Y-92954819D02*
X149642857Y-92954819D01*
X149928571Y-92954819D02*
X149928571Y-91954819D01*
X149928571Y-91954819D02*
X149833333Y-92097676D01*
X149833333Y-92097676D02*
X149738095Y-92192914D01*
X149738095Y-92192914D02*
X149642857Y-92240533D01*
X150547619Y-91954819D02*
X151214285Y-91954819D01*
X151214285Y-91954819D02*
X150785714Y-92954819D01*
X152023809Y-91954819D02*
X151833333Y-91954819D01*
X151833333Y-91954819D02*
X151738095Y-92002438D01*
X151738095Y-92002438D02*
X151690476Y-92050057D01*
X151690476Y-92050057D02*
X151595238Y-92192914D01*
X151595238Y-92192914D02*
X151547619Y-92383390D01*
X151547619Y-92383390D02*
X151547619Y-92764342D01*
X151547619Y-92764342D02*
X151595238Y-92859580D01*
X151595238Y-92859580D02*
X151642857Y-92907200D01*
X151642857Y-92907200D02*
X151738095Y-92954819D01*
X151738095Y-92954819D02*
X151928571Y-92954819D01*
X151928571Y-92954819D02*
X152023809Y-92907200D01*
X152023809Y-92907200D02*
X152071428Y-92859580D01*
X152071428Y-92859580D02*
X152119047Y-92764342D01*
X152119047Y-92764342D02*
X152119047Y-92526247D01*
X152119047Y-92526247D02*
X152071428Y-92431009D01*
X152071428Y-92431009D02*
X152023809Y-92383390D01*
X152023809Y-92383390D02*
X151928571Y-92335771D01*
X151928571Y-92335771D02*
X151738095Y-92335771D01*
X151738095Y-92335771D02*
X151642857Y-92383390D01*
X151642857Y-92383390D02*
X151595238Y-92431009D01*
X151595238Y-92431009D02*
X151547619Y-92526247D01*
X152976190Y-92288152D02*
X152976190Y-92954819D01*
X152738095Y-91907200D02*
X152500000Y-92621485D01*
X152500000Y-92621485D02*
X153119047Y-92621485D01*
X153452381Y-92669104D02*
X153928571Y-92669104D01*
X153357143Y-92954819D02*
X153690476Y-91954819D01*
X153690476Y-91954819D02*
X154023809Y-92954819D01*
X160857142Y-66359580D02*
X160809523Y-66407200D01*
X160809523Y-66407200D02*
X160666666Y-66454819D01*
X160666666Y-66454819D02*
X160571428Y-66454819D01*
X160571428Y-66454819D02*
X160428571Y-66407200D01*
X160428571Y-66407200D02*
X160333333Y-66311961D01*
X160333333Y-66311961D02*
X160285714Y-66216723D01*
X160285714Y-66216723D02*
X160238095Y-66026247D01*
X160238095Y-66026247D02*
X160238095Y-65883390D01*
X160238095Y-65883390D02*
X160285714Y-65692914D01*
X160285714Y-65692914D02*
X160333333Y-65597676D01*
X160333333Y-65597676D02*
X160428571Y-65502438D01*
X160428571Y-65502438D02*
X160571428Y-65454819D01*
X160571428Y-65454819D02*
X160666666Y-65454819D01*
X160666666Y-65454819D02*
X160809523Y-65502438D01*
X160809523Y-65502438D02*
X160857142Y-65550057D01*
X161809523Y-66454819D02*
X161238095Y-66454819D01*
X161523809Y-66454819D02*
X161523809Y-65454819D01*
X161523809Y-65454819D02*
X161428571Y-65597676D01*
X161428571Y-65597676D02*
X161333333Y-65692914D01*
X161333333Y-65692914D02*
X161238095Y-65740533D01*
X162761904Y-66454819D02*
X162190476Y-66454819D01*
X162476190Y-66454819D02*
X162476190Y-65454819D01*
X162476190Y-65454819D02*
X162380952Y-65597676D01*
X162380952Y-65597676D02*
X162285714Y-65692914D01*
X162285714Y-65692914D02*
X162190476Y-65740533D01*
X151738095Y-65454819D02*
X151738095Y-66264342D01*
X151738095Y-66264342D02*
X151785714Y-66359580D01*
X151785714Y-66359580D02*
X151833333Y-66407200D01*
X151833333Y-66407200D02*
X151928571Y-66454819D01*
X151928571Y-66454819D02*
X152119047Y-66454819D01*
X152119047Y-66454819D02*
X152214285Y-66407200D01*
X152214285Y-66407200D02*
X152261904Y-66359580D01*
X152261904Y-66359580D02*
X152309523Y-66264342D01*
X152309523Y-66264342D02*
X152309523Y-65454819D01*
X152738095Y-65550057D02*
X152785714Y-65502438D01*
X152785714Y-65502438D02*
X152880952Y-65454819D01*
X152880952Y-65454819D02*
X153119047Y-65454819D01*
X153119047Y-65454819D02*
X153214285Y-65502438D01*
X153214285Y-65502438D02*
X153261904Y-65550057D01*
X153261904Y-65550057D02*
X153309523Y-65645295D01*
X153309523Y-65645295D02*
X153309523Y-65740533D01*
X153309523Y-65740533D02*
X153261904Y-65883390D01*
X153261904Y-65883390D02*
X152690476Y-66454819D01*
X152690476Y-66454819D02*
X153309523Y-66454819D01*
X142523809Y-69454819D02*
X142047619Y-69454819D01*
X142047619Y-69454819D02*
X142047619Y-68454819D01*
X142714286Y-68454819D02*
X143285714Y-68454819D01*
X143000000Y-69454819D02*
X143000000Y-68454819D01*
X143523810Y-68454819D02*
X144142857Y-68454819D01*
X144142857Y-68454819D02*
X143809524Y-68835771D01*
X143809524Y-68835771D02*
X143952381Y-68835771D01*
X143952381Y-68835771D02*
X144047619Y-68883390D01*
X144047619Y-68883390D02*
X144095238Y-68931009D01*
X144095238Y-68931009D02*
X144142857Y-69026247D01*
X144142857Y-69026247D02*
X144142857Y-69264342D01*
X144142857Y-69264342D02*
X144095238Y-69359580D01*
X144095238Y-69359580D02*
X144047619Y-69407200D01*
X144047619Y-69407200D02*
X143952381Y-69454819D01*
X143952381Y-69454819D02*
X143666667Y-69454819D01*
X143666667Y-69454819D02*
X143571429Y-69407200D01*
X143571429Y-69407200D02*
X143523810Y-69359580D01*
X144761905Y-68454819D02*
X144857143Y-68454819D01*
X144857143Y-68454819D02*
X144952381Y-68502438D01*
X144952381Y-68502438D02*
X145000000Y-68550057D01*
X145000000Y-68550057D02*
X145047619Y-68645295D01*
X145047619Y-68645295D02*
X145095238Y-68835771D01*
X145095238Y-68835771D02*
X145095238Y-69073866D01*
X145095238Y-69073866D02*
X145047619Y-69264342D01*
X145047619Y-69264342D02*
X145000000Y-69359580D01*
X145000000Y-69359580D02*
X144952381Y-69407200D01*
X144952381Y-69407200D02*
X144857143Y-69454819D01*
X144857143Y-69454819D02*
X144761905Y-69454819D01*
X144761905Y-69454819D02*
X144666667Y-69407200D01*
X144666667Y-69407200D02*
X144619048Y-69359580D01*
X144619048Y-69359580D02*
X144571429Y-69264342D01*
X144571429Y-69264342D02*
X144523810Y-69073866D01*
X144523810Y-69073866D02*
X144523810Y-68835771D01*
X144523810Y-68835771D02*
X144571429Y-68645295D01*
X144571429Y-68645295D02*
X144619048Y-68550057D01*
X144619048Y-68550057D02*
X144666667Y-68502438D01*
X144666667Y-68502438D02*
X144761905Y-68454819D01*
X145952381Y-68788152D02*
X145952381Y-69454819D01*
X145714286Y-68407200D02*
X145476191Y-69121485D01*
X145476191Y-69121485D02*
X146095238Y-69121485D01*
X146952381Y-68454819D02*
X146476191Y-68454819D01*
X146476191Y-68454819D02*
X146428572Y-68931009D01*
X146428572Y-68931009D02*
X146476191Y-68883390D01*
X146476191Y-68883390D02*
X146571429Y-68835771D01*
X146571429Y-68835771D02*
X146809524Y-68835771D01*
X146809524Y-68835771D02*
X146904762Y-68883390D01*
X146904762Y-68883390D02*
X146952381Y-68931009D01*
X146952381Y-68931009D02*
X147000000Y-69026247D01*
X147000000Y-69026247D02*
X147000000Y-69264342D01*
X147000000Y-69264342D02*
X146952381Y-69359580D01*
X146952381Y-69359580D02*
X146904762Y-69407200D01*
X146904762Y-69407200D02*
X146809524Y-69454819D01*
X146809524Y-69454819D02*
X146571429Y-69454819D01*
X146571429Y-69454819D02*
X146476191Y-69407200D01*
X146476191Y-69407200D02*
X146428572Y-69359580D01*
X147642857Y-104243866D02*
X148404762Y-104243866D01*
X148023809Y-104624819D02*
X148023809Y-103862914D01*
X149309523Y-103624819D02*
X149119047Y-103624819D01*
X149119047Y-103624819D02*
X149023809Y-103672438D01*
X149023809Y-103672438D02*
X148976190Y-103720057D01*
X148976190Y-103720057D02*
X148880952Y-103862914D01*
X148880952Y-103862914D02*
X148833333Y-104053390D01*
X148833333Y-104053390D02*
X148833333Y-104434342D01*
X148833333Y-104434342D02*
X148880952Y-104529580D01*
X148880952Y-104529580D02*
X148928571Y-104577200D01*
X148928571Y-104577200D02*
X149023809Y-104624819D01*
X149023809Y-104624819D02*
X149214285Y-104624819D01*
X149214285Y-104624819D02*
X149309523Y-104577200D01*
X149309523Y-104577200D02*
X149357142Y-104529580D01*
X149357142Y-104529580D02*
X149404761Y-104434342D01*
X149404761Y-104434342D02*
X149404761Y-104196247D01*
X149404761Y-104196247D02*
X149357142Y-104101009D01*
X149357142Y-104101009D02*
X149309523Y-104053390D01*
X149309523Y-104053390D02*
X149214285Y-104005771D01*
X149214285Y-104005771D02*
X149023809Y-104005771D01*
X149023809Y-104005771D02*
X148928571Y-104053390D01*
X148928571Y-104053390D02*
X148880952Y-104101009D01*
X148880952Y-104101009D02*
X148833333Y-104196247D01*
X165238095Y-71002438D02*
X165142857Y-70954819D01*
X165142857Y-70954819D02*
X165000000Y-70954819D01*
X165000000Y-70954819D02*
X164857143Y-71002438D01*
X164857143Y-71002438D02*
X164761905Y-71097676D01*
X164761905Y-71097676D02*
X164714286Y-71192914D01*
X164714286Y-71192914D02*
X164666667Y-71383390D01*
X164666667Y-71383390D02*
X164666667Y-71526247D01*
X164666667Y-71526247D02*
X164714286Y-71716723D01*
X164714286Y-71716723D02*
X164761905Y-71811961D01*
X164761905Y-71811961D02*
X164857143Y-71907200D01*
X164857143Y-71907200D02*
X165000000Y-71954819D01*
X165000000Y-71954819D02*
X165095238Y-71954819D01*
X165095238Y-71954819D02*
X165238095Y-71907200D01*
X165238095Y-71907200D02*
X165285714Y-71859580D01*
X165285714Y-71859580D02*
X165285714Y-71526247D01*
X165285714Y-71526247D02*
X165095238Y-71526247D01*
X165714286Y-71954819D02*
X165714286Y-70954819D01*
X165714286Y-70954819D02*
X166285714Y-71954819D01*
X166285714Y-71954819D02*
X166285714Y-70954819D01*
X166761905Y-71954819D02*
X166761905Y-70954819D01*
X166761905Y-70954819D02*
X167000000Y-70954819D01*
X167000000Y-70954819D02*
X167142857Y-71002438D01*
X167142857Y-71002438D02*
X167238095Y-71097676D01*
X167238095Y-71097676D02*
X167285714Y-71192914D01*
X167285714Y-71192914D02*
X167333333Y-71383390D01*
X167333333Y-71383390D02*
X167333333Y-71526247D01*
X167333333Y-71526247D02*
X167285714Y-71716723D01*
X167285714Y-71716723D02*
X167238095Y-71811961D01*
X167238095Y-71811961D02*
X167142857Y-71907200D01*
X167142857Y-71907200D02*
X167000000Y-71954819D01*
X167000000Y-71954819D02*
X166761905Y-71954819D01*
X148666666Y-108931009D02*
X148333333Y-108931009D01*
X148333333Y-109454819D02*
X148333333Y-108454819D01*
X148333333Y-108454819D02*
X148809523Y-108454819D01*
X149523809Y-108931009D02*
X149666666Y-108978628D01*
X149666666Y-108978628D02*
X149714285Y-109026247D01*
X149714285Y-109026247D02*
X149761904Y-109121485D01*
X149761904Y-109121485D02*
X149761904Y-109264342D01*
X149761904Y-109264342D02*
X149714285Y-109359580D01*
X149714285Y-109359580D02*
X149666666Y-109407200D01*
X149666666Y-109407200D02*
X149571428Y-109454819D01*
X149571428Y-109454819D02*
X149190476Y-109454819D01*
X149190476Y-109454819D02*
X149190476Y-108454819D01*
X149190476Y-108454819D02*
X149523809Y-108454819D01*
X149523809Y-108454819D02*
X149619047Y-108502438D01*
X149619047Y-108502438D02*
X149666666Y-108550057D01*
X149666666Y-108550057D02*
X149714285Y-108645295D01*
X149714285Y-108645295D02*
X149714285Y-108740533D01*
X149714285Y-108740533D02*
X149666666Y-108835771D01*
X149666666Y-108835771D02*
X149619047Y-108883390D01*
X149619047Y-108883390D02*
X149523809Y-108931009D01*
X149523809Y-108931009D02*
X149190476Y-108931009D01*
X150714285Y-109454819D02*
X150142857Y-109454819D01*
X150428571Y-109454819D02*
X150428571Y-108454819D01*
X150428571Y-108454819D02*
X150333333Y-108597676D01*
X150333333Y-108597676D02*
X150238095Y-108692914D01*
X150238095Y-108692914D02*
X150142857Y-108740533D01*
X160833333Y-93359580D02*
X160785714Y-93407200D01*
X160785714Y-93407200D02*
X160642857Y-93454819D01*
X160642857Y-93454819D02*
X160547619Y-93454819D01*
X160547619Y-93454819D02*
X160404762Y-93407200D01*
X160404762Y-93407200D02*
X160309524Y-93311961D01*
X160309524Y-93311961D02*
X160261905Y-93216723D01*
X160261905Y-93216723D02*
X160214286Y-93026247D01*
X160214286Y-93026247D02*
X160214286Y-92883390D01*
X160214286Y-92883390D02*
X160261905Y-92692914D01*
X160261905Y-92692914D02*
X160309524Y-92597676D01*
X160309524Y-92597676D02*
X160404762Y-92502438D01*
X160404762Y-92502438D02*
X160547619Y-92454819D01*
X160547619Y-92454819D02*
X160642857Y-92454819D01*
X160642857Y-92454819D02*
X160785714Y-92502438D01*
X160785714Y-92502438D02*
X160833333Y-92550057D01*
X161690476Y-92788152D02*
X161690476Y-93454819D01*
X161452381Y-92407200D02*
X161214286Y-93121485D01*
X161214286Y-93121485D02*
X161833333Y-93121485D01*
X155923333Y-66359580D02*
X155875714Y-66407200D01*
X155875714Y-66407200D02*
X155732857Y-66454819D01*
X155732857Y-66454819D02*
X155637619Y-66454819D01*
X155637619Y-66454819D02*
X155494762Y-66407200D01*
X155494762Y-66407200D02*
X155399524Y-66311961D01*
X155399524Y-66311961D02*
X155351905Y-66216723D01*
X155351905Y-66216723D02*
X155304286Y-66026247D01*
X155304286Y-66026247D02*
X155304286Y-65883390D01*
X155304286Y-65883390D02*
X155351905Y-65692914D01*
X155351905Y-65692914D02*
X155399524Y-65597676D01*
X155399524Y-65597676D02*
X155494762Y-65502438D01*
X155494762Y-65502438D02*
X155637619Y-65454819D01*
X155637619Y-65454819D02*
X155732857Y-65454819D01*
X155732857Y-65454819D02*
X155875714Y-65502438D01*
X155875714Y-65502438D02*
X155923333Y-65550057D01*
X156399524Y-66454819D02*
X156590000Y-66454819D01*
X156590000Y-66454819D02*
X156685238Y-66407200D01*
X156685238Y-66407200D02*
X156732857Y-66359580D01*
X156732857Y-66359580D02*
X156828095Y-66216723D01*
X156828095Y-66216723D02*
X156875714Y-66026247D01*
X156875714Y-66026247D02*
X156875714Y-65645295D01*
X156875714Y-65645295D02*
X156828095Y-65550057D01*
X156828095Y-65550057D02*
X156780476Y-65502438D01*
X156780476Y-65502438D02*
X156685238Y-65454819D01*
X156685238Y-65454819D02*
X156494762Y-65454819D01*
X156494762Y-65454819D02*
X156399524Y-65502438D01*
X156399524Y-65502438D02*
X156351905Y-65550057D01*
X156351905Y-65550057D02*
X156304286Y-65645295D01*
X156304286Y-65645295D02*
X156304286Y-65883390D01*
X156304286Y-65883390D02*
X156351905Y-65978628D01*
X156351905Y-65978628D02*
X156399524Y-66026247D01*
X156399524Y-66026247D02*
X156494762Y-66073866D01*
X156494762Y-66073866D02*
X156685238Y-66073866D01*
X156685238Y-66073866D02*
X156780476Y-66026247D01*
X156780476Y-66026247D02*
X156828095Y-65978628D01*
X156828095Y-65978628D02*
X156875714Y-65883390D01*
D11*
%TO.C,C14*%
X146238748Y-76235000D02*
X146761252Y-76235000D01*
X146238748Y-74765000D02*
X146761252Y-74765000D01*
%TO.C,C3*%
X159260000Y-95238748D02*
X159260000Y-95761252D01*
X157790000Y-95238748D02*
X157790000Y-95761252D01*
%TO.C,C13*%
X142735000Y-110201248D02*
X142735000Y-110723752D01*
X141265000Y-110201248D02*
X141265000Y-110723752D01*
%TO.C,C10*%
X159325000Y-68238748D02*
X159325000Y-68761252D01*
X157855000Y-68238748D02*
X157855000Y-68761252D01*
%TO.C,R1*%
X162235000Y-99772936D02*
X162235000Y-100227064D01*
X160765000Y-99772936D02*
X160765000Y-100227064D01*
%TO.C,C1*%
X160620000Y-112500000D02*
G75*
G02*
X152380000Y-112500000I-4120000J0D01*
G01*
X152380000Y-112500000D02*
G75*
G02*
X160620000Y-112500000I4120000J0D01*
G01*
%TO.C,R3*%
X146272936Y-73735000D02*
X146727064Y-73735000D01*
X146272936Y-72265000D02*
X146727064Y-72265000D01*
%TO.C,Div*%
X167330000Y-103770000D02*
X167330000Y-103830000D01*
X164670000Y-103830000D02*
X167330000Y-103830000D01*
X164670000Y-103770000D02*
X167330000Y-103770000D01*
X164670000Y-103770000D02*
X164670000Y-103830000D01*
X164670000Y-102500000D02*
X164670000Y-101170000D01*
X164670000Y-101170000D02*
X166000000Y-101170000D01*
%TO.C,C5*%
X144760000Y-95738748D02*
X144760000Y-96261252D01*
X143290000Y-95738748D02*
X143290000Y-96261252D01*
%TO.C,C6*%
X142260000Y-95738748D02*
X142260000Y-96261252D01*
X140790000Y-95738748D02*
X140790000Y-96261252D01*
%TO.C,R5*%
X151735000Y-73772936D02*
X151735000Y-74227064D01*
X150265000Y-73772936D02*
X150265000Y-74227064D01*
%TO.C,R6*%
X160735000Y-72727064D02*
X160735000Y-72272936D01*
X159265000Y-72727064D02*
X159265000Y-72272936D01*
%TO.C,C8*%
X149238748Y-63735000D02*
X149761252Y-63735000D01*
X149238748Y-62265000D02*
X149761252Y-62265000D01*
%TO.C,C7*%
X149238748Y-66235000D02*
X149761252Y-66235000D01*
X149238748Y-64765000D02*
X149761252Y-64765000D01*
%TO.C,5V*%
X167355000Y-95730000D02*
X167355000Y-98330000D01*
X167355000Y-93130000D02*
X167355000Y-94460000D01*
X166025000Y-93130000D02*
X167355000Y-93130000D01*
X164695000Y-98330000D02*
X167355000Y-98330000D01*
X164695000Y-95730000D02*
X167355000Y-95730000D01*
X164695000Y-95730000D02*
X164695000Y-98330000D01*
%TO.C,C15*%
X142761252Y-91735000D02*
X142238748Y-91735000D01*
X142761252Y-90265000D02*
X142238748Y-90265000D01*
%TO.C,C2*%
X145235000Y-110238748D02*
X145235000Y-110761252D01*
X143765000Y-110238748D02*
X143765000Y-110761252D01*
%TO.C,J3*%
X167355000Y-109520000D02*
X167355000Y-112120000D01*
X167355000Y-106920000D02*
X167355000Y-108250000D01*
X166025000Y-106920000D02*
X167355000Y-106920000D01*
X164695000Y-112120000D02*
X167355000Y-112120000D01*
X164695000Y-109520000D02*
X167355000Y-109520000D01*
X164695000Y-109520000D02*
X164695000Y-112120000D01*
%TO.C,Div*%
X167330000Y-79270000D02*
X167330000Y-79330000D01*
X164670000Y-79330000D02*
X167330000Y-79330000D01*
X164670000Y-79270000D02*
X167330000Y-79270000D01*
X164670000Y-79270000D02*
X164670000Y-79330000D01*
X164670000Y-78000000D02*
X164670000Y-76670000D01*
X164670000Y-76670000D02*
X166000000Y-76670000D01*
%TO.C,3.3V*%
X167330000Y-68020000D02*
X167330000Y-70620000D01*
X167330000Y-65420000D02*
X167330000Y-66750000D01*
X166000000Y-65420000D02*
X167330000Y-65420000D01*
X164670000Y-70620000D02*
X167330000Y-70620000D01*
X164670000Y-68020000D02*
X167330000Y-68020000D01*
X164670000Y-68020000D02*
X164670000Y-70620000D01*
%TO.C,C12*%
X158235000Y-72761252D02*
X158235000Y-72238748D01*
X156765000Y-72761252D02*
X156765000Y-72238748D01*
%TO.C,R2*%
X159235000Y-100227064D02*
X159235000Y-99772936D01*
X157765000Y-100227064D02*
X157765000Y-99772936D01*
%TO.C,R4*%
X153735000Y-74227064D02*
X153735000Y-73772936D01*
X152265000Y-74227064D02*
X152265000Y-73772936D01*
%TO.C,D1*%
X163850000Y-112510000D02*
X163850000Y-109250000D01*
X162150000Y-112510000D02*
X163850000Y-112510000D01*
X162150000Y-112510000D02*
X162150000Y-109250000D01*
D12*
%TO.C,U1*%
X144254500Y-98191000D02*
G75*
G02*
X143848100Y-98191000I-203200J0D01*
G01*
X143848100Y-98191000D02*
G75*
G02*
X144254500Y-98191000I203200J0D01*
G01*
X156624300Y-93453900D02*
X156624300Y-88627900D01*
X156624300Y-88627900D02*
X145829300Y-88627900D01*
X153803375Y-93453900D02*
X156624300Y-93453900D01*
X150399775Y-93453900D02*
X152053825Y-93453900D01*
X145956300Y-89897900D02*
X156497300Y-89897900D01*
X145829300Y-93453900D02*
X148650225Y-93453900D01*
X145829300Y-88627900D02*
X145829300Y-93453900D01*
D11*
%TO.C,C11*%
X161825000Y-68238748D02*
X161825000Y-68761252D01*
X160355000Y-68238748D02*
X160355000Y-68761252D01*
%TO.C,U2*%
X148402500Y-67205000D02*
X148162500Y-66875000D01*
X148642500Y-66875000D01*
X148402500Y-67205000D01*
G36*
X148402500Y-67205000D02*
G01*
X148162500Y-66875000D01*
X148642500Y-66875000D01*
X148402500Y-67205000D01*
G37*
X150590000Y-71400000D02*
X152090000Y-71400000D01*
X150590000Y-71400000D02*
X149090000Y-71400000D01*
X150590000Y-67180000D02*
X152090000Y-67180000D01*
X150590000Y-67180000D02*
X149090000Y-67180000D01*
%TO.C,+6*%
X149830000Y-107770000D02*
X149830000Y-107830000D01*
X147170000Y-107830000D02*
X149830000Y-107830000D01*
X147170000Y-107770000D02*
X149830000Y-107770000D01*
X147170000Y-107770000D02*
X147170000Y-107830000D01*
X147170000Y-106500000D02*
X147170000Y-105170000D01*
X147170000Y-105170000D02*
X148500000Y-105170000D01*
%TO.C,GND*%
X167330000Y-75270000D02*
X167330000Y-75330000D01*
X164670000Y-75330000D02*
X167330000Y-75330000D01*
X164670000Y-75270000D02*
X167330000Y-75270000D01*
X164670000Y-75270000D02*
X164670000Y-75330000D01*
X164670000Y-74000000D02*
X164670000Y-72670000D01*
X164670000Y-72670000D02*
X166000000Y-72670000D01*
%TO.C,FB1*%
X149910242Y-111060000D02*
X149089758Y-111060000D01*
X149910242Y-109940000D02*
X149089758Y-109940000D01*
%TO.C,C4*%
X161735000Y-95238748D02*
X161735000Y-95761252D01*
X160265000Y-95238748D02*
X160265000Y-95761252D01*
%TO.C,C9*%
X156825000Y-68238748D02*
X156825000Y-68761252D01*
X155355000Y-68238748D02*
X155355000Y-68761252D01*
%TD*%
D13*
X142000000Y-115500000D03*
X156500000Y-114250000D03*
X156500000Y-110750000D03*
X166000000Y-102500000D03*
X166000000Y-115500000D03*
X166025000Y-97000000D03*
X166025000Y-94460000D03*
X166025000Y-110790000D03*
X166025000Y-108250000D03*
X166000000Y-78000000D03*
X166000000Y-69290000D03*
X166000000Y-66750000D03*
X142000000Y-61500000D03*
X154630400Y-98191000D03*
X152928600Y-94000000D03*
X151226800Y-98191000D03*
X149525000Y-94000000D03*
X147823200Y-98191000D03*
X166000000Y-61500000D03*
X148500000Y-106500000D03*
X166000000Y-74000000D03*
M02*
