M48
; DRILL file {KiCad 8.0.2} date 2024-06-08T00:27:39-0400
; FORMAT={-:-/ absolute / metric / decimal}
; #@! TF.CreationDate,2024-06-08T00:27:39-04:00
; #@! TF.GenerationSoftware,Kicad,Pcbnew,8.0.2
; #@! TF.FileFunction,Plated,1,4,PTH
FMAT,2
METRIC
; #@! TA.AperFunction,Plated,PTH,ViaDrill
T1C0.300
; #@! TA.AperFunction,Plated,PTH,ComponentDrill
T2C0.800
; #@! TA.AperFunction,Plated,PTH,ComponentDrill
T3C0.813
; #@! TA.AperFunction,Plated,PTH,ComponentDrill
T4C1.000
%
G90
G05
T1
X100.75Y-88.0
X101.45Y-57.048
X101.45Y-58.548
X101.45Y-60.048
X101.45Y-61.548
X101.45Y-63.048
X101.45Y-75.048
X101.45Y-76.548
X101.45Y-78.048
X101.45Y-79.548
X101.45Y-81.048
X101.45Y-84.048
X101.45Y-85.548
X102.49Y-54.628
X102.49Y-64.788
X102.49Y-67.328
X102.49Y-69.868
X102.49Y-72.408
X102.49Y-82.568
X102.49Y-90.188
X102.49Y-92.728
X102.49Y-95.268
X103.0Y-59.0
X103.0Y-77.0
X103.0Y-78.25
X103.0Y-79.5
X103.0Y-80.75
X103.0Y-84.5
X103.0Y-85.5
X103.0Y-88.0
X103.25Y-57.75
X103.25Y-62.25
X103.75Y-75.5
X104.0Y-57.25
X104.0Y-57.25
X104.45Y-93.048
X104.75Y-74.5
X105.03Y-52.088
X105.03Y-72.408
X105.03Y-95.268
X105.03Y-97.808
X106.25Y-78.0
X106.25Y-79.25
X106.25Y-80.5
X106.25Y-81.75
X106.25Y-84.75
X106.25Y-86.0
X106.25Y-88.0
X106.75Y-58.0
X107.0Y-71.6
X107.0Y-77.0
X107.169Y-83.172
X107.5Y-59.0
X107.5Y-60.25
X107.57Y-97.808
X107.75Y-76.0
X108.0Y-85.0
X108.5Y-88.0
X108.95Y-78.048
X108.95Y-79.548
X108.95Y-81.048
X108.95Y-82.548
X108.95Y-99.048
X109.005Y-68.4
X109.25Y-64.75
X109.75Y-63.75
X110.0Y-53.75
X110.0Y-56.0
X110.0Y-62.75
X110.11Y-59.708
X110.11Y-85.108
X110.45Y-99.048
X110.5Y-65.5
X110.75Y-83.5
X111.0Y-55.0
X111.5Y-64.25
X111.5Y-95.0
X111.75Y-84.0
X112.25Y-68.0
X112.25Y-69.0
X112.5Y-62.0
X112.5Y-83.25
X112.65Y-54.628
X112.65Y-57.168
X112.65Y-72.408
X112.75Y-67.25
X112.75Y-69.5
X112.75Y-96.25
X113.0Y-63.75
X113.0Y-86.5
X113.0Y-88.0
X113.5Y-68.5
X113.75Y-63.75
X113.75Y-88.0
X113.8Y-74.4
X113.9Y-75.4
X114.0Y-62.25
X114.0Y-80.5
X114.0Y-95.0
X114.1Y-93.6
X114.25Y-91.0
X114.5Y-88.0
X114.75Y-74.5
X115.0Y-98.0
X115.25Y-63.75
X115.25Y-65.5
X115.25Y-84.5
X115.5Y-62.0
X115.75Y-88.0
X116.0Y-77.5
X116.0Y-83.75
X116.45Y-72.048
X116.45Y-79.548
X116.45Y-91.548
X116.5Y-88.0
X117.25Y-88.0
X117.73Y-52.088
X117.73Y-59.708
X117.75Y-82.75
X117.95Y-91.548
X118.0Y-55.75
X118.5Y-66.0
X118.5Y-86.0
X119.25Y-80.25
X119.45Y-91.548
X119.5Y-83.25
X119.75Y-81.25
X120.0Y-73.5
X120.25Y-65.0
X120.27Y-62.248
X120.95Y-91.548
X121.2Y-73.25
X121.25Y-66.0
X121.5Y-57.5
X121.5Y-68.0
X122.0Y-73.25
X122.0Y-84.5
X122.5Y-70.5
X122.5Y-78.0
X122.5Y-96.5
X122.81Y-52.088
X122.81Y-54.628
X122.81Y-87.648
X123.62Y-70.63
X123.95Y-58.548
X123.95Y-61.548
X124.75Y-89.75
X125.0Y-88.0
X125.247Y-74.511
X125.25Y-51.5
X125.325Y-90.25
X125.35Y-54.628
X125.35Y-57.168
X125.35Y-59.708
X125.75Y-52.75
X125.975Y-90.25
X126.5Y-74.25
X126.5Y-78.5
X126.95Y-88.548
X127.0Y-75.0
X127.25Y-71.9
X127.5Y-62.0
X128.0Y-63.0
X128.0Y-73.5
X128.25Y-62.0
X128.282Y-71.73
X128.45Y-81.048
X128.45Y-90.048
X128.45Y-91.548
X128.45Y-93.048
X128.5Y-72.5
X128.75Y-88.0
X129.0Y-83.75
X129.0Y-85.25
X129.0Y-86.75
X129.5Y-56.5
X129.802Y-76.039
X129.95Y-51.048
X130.25Y-65.25
X130.43Y-59.708
X130.75Y-55.5
X130.75Y-67.25
X131.25Y-64.75
X131.45Y-54.048
X131.45Y-57.048
X131.5Y-62.5
X131.75Y-68.25
X132.35Y-66.5
X132.5Y-71.0
X132.5Y-88.0
X132.97Y-54.628
X132.97Y-57.168
X132.97Y-59.708
X132.97Y-80.028
X132.97Y-82.568
X132.97Y-90.188
X132.97Y-92.728
X132.97Y-95.268
X132.97Y-97.808
X133.0Y-85.5
X133.25Y-68.475
X133.25Y-69.75
X134.0Y-88.0
X134.45Y-57.048
X135.5Y-74.25
X135.51Y-52.088
X135.51Y-54.628
X135.51Y-80.028
X135.51Y-82.568
X135.51Y-85.108
X135.51Y-87.648
X135.51Y-90.188
X135.51Y-92.728
X135.51Y-95.268
X135.51Y-97.808
X136.0Y-65.5
X136.5Y-67.0
X136.5Y-69.0
X136.5Y-72.5
X136.5Y-75.75
X137.0Y-72.0
X137.0Y-88.0
X138.05Y-54.628
X138.05Y-59.708
X138.05Y-62.248
X138.05Y-77.488
X138.05Y-80.028
X138.05Y-82.568
X138.05Y-85.108
X138.05Y-90.188
X138.05Y-92.728
X138.05Y-95.268
X138.75Y-72.0
X138.95Y-57.048
X139.25Y-88.0
T2
X115.0Y-86.71
X115.0Y-89.25
T3
X119.5Y-51.92
X119.5Y-54.46
X119.5Y-57.0
X119.5Y-59.54
X127.12Y-51.92
X127.12Y-54.46
X127.12Y-57.0
X127.12Y-59.54
T4
X108.0Y-52.0
X110.54Y-52.0
X113.08Y-52.0
X115.62Y-52.0
X116.3Y-95.5
X116.3Y-98.04
X118.84Y-95.5
X118.84Y-98.04
X121.38Y-95.5
X121.38Y-98.04
X123.92Y-95.5
X123.92Y-98.04
X126.46Y-95.5
X126.46Y-98.04
X129.0Y-95.5
X129.0Y-98.04
X132.5Y-52.0
X137.0Y-57.5
X138.0Y-65.38
X138.0Y-67.92
X138.0Y-70.46
X138.0Y-73.0
X138.0Y-75.54
M30
