%TF.GenerationSoftware,KiCad,Pcbnew,8.0.2*%
%TF.CreationDate,2024-06-08T00:27:39-04:00*%
%TF.ProjectId,EIS Board,45495320-426f-4617-9264-2e6b69636164,rev?*%
%TF.SameCoordinates,Original*%
%TF.FileFunction,Soldermask,Bot*%
%TF.FilePolarity,Negative*%
%FSLAX46Y46*%
G04 Gerber Fmt 4.6, Leading zero omitted, Abs format (unit mm)*
G04 Created by KiCad (PCBNEW 8.0.2) date 2024-06-08 00:27:39*
%MOMM*%
%LPD*%
G01*
G04 APERTURE LIST*
G04 Aperture macros list*
%AMRoundRect*
0 Rectangle with rounded corners*
0 $1 Rounding radius*
0 $2 $3 $4 $5 $6 $7 $8 $9 X,Y pos of 4 corners*
0 Add a 4 corners polygon primitive as box body*
4,1,4,$2,$3,$4,$5,$6,$7,$8,$9,$2,$3,0*
0 Add four circle primitives for the rounded corners*
1,1,$1+$1,$2,$3*
1,1,$1+$1,$4,$5*
1,1,$1+$1,$6,$7*
1,1,$1+$1,$8,$9*
0 Add four rect primitives between the rounded corners*
20,1,$1+$1,$2,$3,$4,$5,0*
20,1,$1+$1,$4,$5,$6,$7,0*
20,1,$1+$1,$6,$7,$8,$9,0*
20,1,$1+$1,$8,$9,$2,$3,0*%
G04 Aperture macros list end*
%ADD10C,1.524000*%
%ADD11R,1.524000X1.524000*%
%ADD12R,1.257300X0.279400*%
%ADD13O,1.700000X1.700000*%
%ADD14R,1.700000X1.700000*%
%ADD15C,2.000000*%
%ADD16C,2.200000*%
%ADD17C,1.400000*%
%ADD18RoundRect,0.250000X-0.337500X-0.475000X0.337500X-0.475000X0.337500X0.475000X-0.337500X0.475000X0*%
%ADD19RoundRect,0.250000X-0.350000X-0.450000X0.350000X-0.450000X0.350000X0.450000X-0.350000X0.450000X0*%
%ADD20RoundRect,0.250000X0.350000X0.450000X-0.350000X0.450000X-0.350000X-0.450000X0.350000X-0.450000X0*%
%ADD21RoundRect,0.250000X0.450000X-0.350000X0.450000X0.350000X-0.450000X0.350000X-0.450000X-0.350000X0*%
%ADD22RoundRect,0.250000X-0.450000X0.350000X-0.450000X-0.350000X0.450000X-0.350000X0.450000X0.350000X0*%
%ADD23RoundRect,0.250000X0.337500X0.475000X-0.337500X0.475000X-0.337500X-0.475000X0.337500X-0.475000X0*%
%ADD24RoundRect,0.076750X0.810250X0.230250X-0.810250X0.230250X-0.810250X-0.230250X0.810250X-0.230250X0*%
%ADD25RoundRect,0.250000X-0.475000X0.337500X-0.475000X-0.337500X0.475000X-0.337500X0.475000X0.337500X0*%
%ADD26RoundRect,0.250000X0.475000X-0.337500X0.475000X0.337500X-0.475000X0.337500X-0.475000X-0.337500X0*%
G04 APERTURE END LIST*
D10*
%TO.C,U9*%
X127120000Y-51920000D03*
X127120000Y-54460000D03*
X127120000Y-57000000D03*
X127120000Y-59540000D03*
X119500000Y-59540000D03*
X119500000Y-57000000D03*
X119500000Y-54460000D03*
D11*
X119500000Y-51920000D03*
%TD*%
D12*
%TO.C,U6*%
X119178050Y-78500252D03*
X119178050Y-78000126D03*
X119178050Y-77500000D03*
X119178050Y-76999874D03*
X119178050Y-76499748D03*
X114821950Y-76499748D03*
X114821950Y-76999874D03*
X114821950Y-77500000D03*
X114821950Y-78000126D03*
X114821950Y-78500252D03*
%TD*%
%TO.C,U1*%
X114678050Y-69500252D03*
X114678050Y-69000126D03*
X114678050Y-68500000D03*
X114678050Y-67999874D03*
X114678050Y-67499748D03*
X110321950Y-67499748D03*
X110321950Y-67999874D03*
X110321950Y-68500000D03*
X110321950Y-69000126D03*
X110321950Y-69500252D03*
%TD*%
D13*
%TO.C,J2*%
X138000000Y-75540000D03*
X138000000Y-73000000D03*
X138000000Y-70460000D03*
X138000000Y-67920000D03*
D14*
X138000000Y-65380000D03*
%TD*%
D13*
%TO.C,J3*%
X129000000Y-95500000D03*
X129000000Y-98040000D03*
X126460000Y-95500000D03*
X126460000Y-98040000D03*
X123920000Y-95500000D03*
X123920000Y-98040000D03*
X121380000Y-95500000D03*
X121380000Y-98040000D03*
X118840000Y-95500000D03*
X118840000Y-98040000D03*
X116300000Y-95500000D03*
D14*
X116300000Y-98040000D03*
%TD*%
D15*
%TO.C,TP5*%
X137000000Y-57500000D03*
%TD*%
D16*
%TO.C,H1*%
X102500000Y-52500000D03*
%TD*%
D15*
%TO.C,TP7*%
X132500000Y-52000000D03*
%TD*%
D16*
%TO.C,H3*%
X102500000Y-97500000D03*
%TD*%
%TO.C,H4*%
X137500000Y-97500000D03*
%TD*%
D17*
%TO.C,JP1*%
X115000000Y-86710000D03*
X115000000Y-89250000D03*
%TD*%
D16*
%TO.C,H2*%
X137500000Y-52500000D03*
%TD*%
D18*
%TO.C,C11*%
X123537500Y-81500000D03*
X121462500Y-81500000D03*
%TD*%
%TO.C,C9*%
X131537500Y-63500000D03*
X129462500Y-63500000D03*
%TD*%
D19*
%TO.C,R2*%
X119000000Y-70000000D03*
X117000000Y-70000000D03*
%TD*%
D20*
%TO.C,R14*%
X110500000Y-77000000D03*
X112500000Y-77000000D03*
%TD*%
D21*
%TO.C,R16*%
X121462500Y-76500000D03*
X121462500Y-74500000D03*
%TD*%
D19*
%TO.C,R6*%
X119000000Y-65000000D03*
X117000000Y-65000000D03*
%TD*%
D20*
%TO.C,R9*%
X124500000Y-65500000D03*
X126500000Y-65500000D03*
%TD*%
D21*
%TO.C,R15*%
X134500000Y-61500000D03*
X134500000Y-63500000D03*
%TD*%
D19*
%TO.C,R12*%
X123537500Y-79250000D03*
X121537500Y-79250000D03*
%TD*%
D22*
%TO.C,R18*%
X133000000Y-75500000D03*
X133000000Y-77500000D03*
%TD*%
D23*
%TO.C,C6*%
X107537500Y-65000000D03*
X105462500Y-65000000D03*
%TD*%
D20*
%TO.C,R13*%
X124500000Y-69500000D03*
X126500000Y-69500000D03*
%TD*%
D24*
%TO.C,U2*%
X128630000Y-65225000D03*
X128630000Y-65875000D03*
X128630000Y-66525000D03*
X128630000Y-67175000D03*
X128630000Y-67825000D03*
X128630000Y-68475000D03*
X128630000Y-69125000D03*
X128630000Y-69775000D03*
X134370000Y-69775000D03*
X134370000Y-69125000D03*
X134370000Y-68475000D03*
X134370000Y-67825000D03*
X134370000Y-67175000D03*
X134370000Y-66525000D03*
X134370000Y-65875000D03*
X134370000Y-65225000D03*
%TD*%
D20*
%TO.C,R3*%
X107500000Y-63000000D03*
X105500000Y-63000000D03*
%TD*%
D23*
%TO.C,C16*%
X118037500Y-74750000D03*
X115962500Y-74750000D03*
%TD*%
%TO.C,C10*%
X110462500Y-81500000D03*
X112537500Y-81500000D03*
%TD*%
%TO.C,C1*%
X107537500Y-69500000D03*
X105462500Y-69500000D03*
%TD*%
D20*
%TO.C,R11*%
X124500000Y-63500000D03*
X126500000Y-63500000D03*
%TD*%
D18*
%TO.C,C5*%
X119075000Y-68000000D03*
X117000000Y-68000000D03*
%TD*%
D23*
%TO.C,C12*%
X110462500Y-75000000D03*
X112537500Y-75000000D03*
%TD*%
%TO.C,C8*%
X111462500Y-65500000D03*
X113537500Y-65500000D03*
%TD*%
D22*
%TO.C,R17*%
X134000000Y-71500000D03*
X134000000Y-73500000D03*
%TD*%
D25*
%TO.C,C17*%
X135000000Y-75462500D03*
X135000000Y-77537500D03*
%TD*%
D20*
%TO.C,R8*%
X124500000Y-67500000D03*
X126500000Y-67500000D03*
%TD*%
%TO.C,R10*%
X110500000Y-79500000D03*
X112500000Y-79500000D03*
%TD*%
%TO.C,R1*%
X107500000Y-67500000D03*
X105500000Y-67500000D03*
%TD*%
D26*
%TO.C,C15*%
X123462500Y-76575000D03*
X123462500Y-74500000D03*
%TD*%
D13*
%TO.C,J1*%
X115620000Y-52000000D03*
X113080000Y-52000000D03*
X110540000Y-52000000D03*
D14*
X108000000Y-52000000D03*
%TD*%
M02*
