%TF.GenerationSoftware,KiCad,Pcbnew,8.0.2*%
%TF.CreationDate,2024-06-08T00:27:39-04:00*%
%TF.ProjectId,EIS Board,45495320-426f-4617-9264-2e6b69636164,rev?*%
%TF.SameCoordinates,Original*%
%TF.FileFunction,Soldermask,Top*%
%TF.FilePolarity,Negative*%
%FSLAX46Y46*%
G04 Gerber Fmt 4.6, Leading zero omitted, Abs format (unit mm)*
G04 Created by KiCad (PCBNEW 8.0.2) date 2024-06-08 00:27:39*
%MOMM*%
%LPD*%
G01*
G04 APERTURE LIST*
G04 Aperture macros list*
%AMRoundRect*
0 Rectangle with rounded corners*
0 $1 Rounding radius*
0 $2 $3 $4 $5 $6 $7 $8 $9 X,Y pos of 4 corners*
0 Add a 4 corners polygon primitive as box body*
4,1,4,$2,$3,$4,$5,$6,$7,$8,$9,$2,$3,0*
0 Add four circle primitives for the rounded corners*
1,1,$1+$1,$2,$3*
1,1,$1+$1,$4,$5*
1,1,$1+$1,$6,$7*
1,1,$1+$1,$8,$9*
0 Add four rect primitives between the rounded corners*
20,1,$1+$1,$2,$3,$4,$5,0*
20,1,$1+$1,$4,$5,$6,$7,0*
20,1,$1+$1,$6,$7,$8,$9,0*
20,1,$1+$1,$8,$9,$2,$3,0*%
%AMFreePoly0*
4,1,19,0.000000,0.744911,0.071157,0.744911,0.207708,0.704816,0.327430,0.627875,0.420627,0.520320,0.479746,0.390866,0.500000,0.250000,0.500000,-0.250000,0.479746,-0.390866,0.420627,-0.520320,0.327430,-0.627875,0.207708,-0.704816,0.071157,-0.744911,0.000000,-0.744911,0.000000,-0.750000,-0.500000,-0.750000,-0.500000,0.750000,0.000000,0.750000,0.000000,0.744911,0.000000,0.744911,
$1*%
%AMFreePoly1*
4,1,19,0.500000,-0.750000,0.000000,-0.750000,0.000000,-0.744911,-0.071157,-0.744911,-0.207708,-0.704816,-0.327430,-0.627875,-0.420627,-0.520320,-0.479746,-0.390866,-0.500000,-0.250000,-0.500000,0.250000,-0.479746,0.390866,-0.420627,0.520320,-0.327430,0.627875,-0.207708,0.704816,-0.071157,0.744911,0.000000,0.744911,0.000000,0.750000,0.500000,0.750000,0.500000,-0.750000,0.500000,-0.750000,
$1*%
G04 Aperture macros list end*
%ADD10C,1.524000*%
%ADD11R,1.524000X1.524000*%
%ADD12R,1.358900X0.431800*%
%ADD13R,0.508000X0.977900*%
%ADD14O,1.700000X1.700000*%
%ADD15R,1.700000X1.700000*%
%ADD16RoundRect,0.250000X0.475000X-0.337500X0.475000X0.337500X-0.475000X0.337500X-0.475000X-0.337500X0*%
%ADD17RoundRect,0.250000X-0.337500X-0.475000X0.337500X-0.475000X0.337500X0.475000X-0.337500X0.475000X0*%
%ADD18RoundRect,0.250000X-0.350000X-0.450000X0.350000X-0.450000X0.350000X0.450000X-0.350000X0.450000X0*%
%ADD19RoundRect,0.100000X0.100000X-0.712500X0.100000X0.712500X-0.100000X0.712500X-0.100000X-0.712500X0*%
%ADD20RoundRect,0.250000X-0.450000X0.350000X-0.450000X-0.350000X0.450000X-0.350000X0.450000X0.350000X0*%
%ADD21RoundRect,0.250000X0.350000X0.450000X-0.350000X0.450000X-0.350000X-0.450000X0.350000X-0.450000X0*%
%ADD22RoundRect,0.250000X0.450000X-0.350000X0.450000X0.350000X-0.450000X0.350000X-0.450000X-0.350000X0*%
%ADD23C,2.000000*%
%ADD24C,2.200000*%
%ADD25RoundRect,0.250000X-0.475000X0.337500X-0.475000X-0.337500X0.475000X-0.337500X0.475000X0.337500X0*%
%ADD26C,1.400000*%
%ADD27RoundRect,0.250000X0.337500X0.475000X-0.337500X0.475000X-0.337500X-0.475000X0.337500X-0.475000X0*%
%ADD28RoundRect,0.250000X-0.350000X0.275000X-0.350000X-0.275000X0.350000X-0.275000X0.350000X0.275000X0*%
%ADD29FreePoly0,0.000000*%
%ADD30FreePoly1,0.000000*%
%ADD31RoundRect,0.100000X-0.100000X0.712500X-0.100000X-0.712500X0.100000X-0.712500X0.100000X0.712500X0*%
G04 APERTURE END LIST*
D10*
%TO.C,U9*%
X127120000Y-51920000D03*
X127120000Y-54460000D03*
X127120000Y-57000000D03*
X127120000Y-59540000D03*
X119500000Y-59540000D03*
X119500000Y-57000000D03*
X119500000Y-54460000D03*
D11*
X119500000Y-51920000D03*
%TD*%
D12*
%TO.C,U7*%
X108771150Y-92974999D03*
X108771150Y-92325001D03*
X108771150Y-91674999D03*
X108771150Y-91025001D03*
X113228850Y-91025001D03*
X113228850Y-91674999D03*
X113228850Y-92325001D03*
X113228850Y-92974999D03*
%TD*%
D13*
%TO.C,U4*%
X126000000Y-74000000D03*
X124099998Y-74000000D03*
X124099998Y-71269500D03*
X125049999Y-71269500D03*
X126000000Y-71269500D03*
%TD*%
D14*
%TO.C,J2*%
X138000000Y-75540000D03*
X138000000Y-73000000D03*
X138000000Y-70460000D03*
X138000000Y-67920000D03*
D15*
X138000000Y-65380000D03*
%TD*%
D14*
%TO.C,J3*%
X129000000Y-95500000D03*
X129000000Y-98040000D03*
X126460000Y-95500000D03*
X126460000Y-98040000D03*
X123920000Y-95500000D03*
X123920000Y-98040000D03*
X121380000Y-95500000D03*
X121380000Y-98040000D03*
X118840000Y-95500000D03*
X118840000Y-98040000D03*
X116300000Y-95500000D03*
D15*
X116300000Y-98040000D03*
%TD*%
D16*
%TO.C,C7*%
X118000000Y-79462500D03*
X118000000Y-81537500D03*
%TD*%
D17*
%TO.C,C3*%
X106537500Y-59000000D03*
X104462500Y-59000000D03*
%TD*%
D18*
%TO.C,R21*%
X112000000Y-89000000D03*
X110000000Y-89000000D03*
%TD*%
D19*
%TO.C,U3*%
X120025000Y-70387500D03*
X120675000Y-70387500D03*
X121325000Y-70387500D03*
X121975000Y-70387500D03*
X121975000Y-74612500D03*
X121325000Y-74612500D03*
X120675000Y-74612500D03*
X120025000Y-74612500D03*
%TD*%
D20*
%TO.C,R19*%
X115500000Y-57000000D03*
X115500000Y-55000000D03*
%TD*%
D21*
%TO.C,R22*%
X124500000Y-81500000D03*
X126500000Y-81500000D03*
%TD*%
D17*
%TO.C,C13*%
X134037500Y-74500000D03*
X131962500Y-74500000D03*
%TD*%
D22*
%TO.C,R4*%
X118000000Y-75500000D03*
X118000000Y-77500000D03*
%TD*%
D16*
%TO.C,C14*%
X120000000Y-65962500D03*
X120000000Y-68037500D03*
%TD*%
D22*
%TO.C,R7*%
X118000000Y-71500000D03*
X118000000Y-73500000D03*
%TD*%
D16*
%TO.C,C20*%
X118500000Y-86925000D03*
X118500000Y-89000000D03*
%TD*%
D17*
%TO.C,C2*%
X110037500Y-55000000D03*
X107962500Y-55000000D03*
%TD*%
%TO.C,C4*%
X106537500Y-61000000D03*
X104462500Y-61000000D03*
%TD*%
D23*
%TO.C,TP5*%
X137000000Y-57500000D03*
%TD*%
D17*
%TO.C,C22*%
X110537500Y-95000000D03*
X108462500Y-95000000D03*
%TD*%
D18*
%TO.C,R23*%
X126500000Y-79500000D03*
X124500000Y-79500000D03*
%TD*%
D24*
%TO.C,H1*%
X102500000Y-52500000D03*
%TD*%
D23*
%TO.C,TP7*%
X132500000Y-52000000D03*
%TD*%
D24*
%TO.C,H3*%
X102500000Y-97500000D03*
%TD*%
D25*
%TO.C,C21*%
X112500000Y-61037500D03*
X112500000Y-58962500D03*
%TD*%
D20*
%TO.C,R20*%
X115500000Y-61000000D03*
X115500000Y-59000000D03*
%TD*%
D24*
%TO.C,H4*%
X137500000Y-97500000D03*
%TD*%
D26*
%TO.C,JP1*%
X115000000Y-86710000D03*
X115000000Y-89250000D03*
%TD*%
D27*
%TO.C,C23*%
X123962500Y-76500000D03*
X126037500Y-76500000D03*
%TD*%
D20*
%TO.C,R5*%
X118000000Y-69500000D03*
X118000000Y-67500000D03*
%TD*%
D16*
%TO.C,C18*%
X129500000Y-53462500D03*
X129500000Y-55537500D03*
%TD*%
D24*
%TO.C,H2*%
X137500000Y-52500000D03*
%TD*%
D28*
%TO.C,FB1*%
X105500000Y-57150000D03*
X105500000Y-54850000D03*
%TD*%
D16*
%TO.C,C19*%
X120500000Y-86925000D03*
X120500000Y-89000000D03*
%TD*%
D14*
%TO.C,J1*%
X115620000Y-52000000D03*
X113080000Y-52000000D03*
X110540000Y-52000000D03*
D15*
X108000000Y-52000000D03*
%TD*%
D29*
%TO.C,JP3*%
X126150000Y-69000000D03*
D30*
X124850000Y-69000000D03*
%TD*%
D29*
%TO.C,JP2*%
X133650000Y-66500000D03*
D30*
X132350000Y-66500000D03*
%TD*%
D31*
%TO.C,U5*%
X129975000Y-74612500D03*
X129325000Y-74612500D03*
X128675000Y-74612500D03*
X128025000Y-74612500D03*
X128025000Y-70387500D03*
X128675000Y-70387500D03*
X129325000Y-70387500D03*
X129975000Y-70387500D03*
%TD*%
M02*
