M48
METRIC,TZ
T1C0.300
T2C0.800
T3C0.838
T4C1.000
%
G90
G05
T1
X140000Y-71500
X140000Y-72500
X140000Y-74000
X140000Y-75500
X140000Y-77000
X140000Y-78500
X140000Y-80000
X140000Y-81500
X140000Y-83000
X140000Y-84500
X140000Y-86000
X140000Y-87500
X140000Y-89000
X140000Y-91000
X140000Y-95000
X140000Y-97000
X140400Y-59900
X140400Y-62900
X140400Y-64400
X140400Y-65900
X140400Y-67400
X140400Y-68900
X140400Y-70400
X140400Y-92900
X140400Y-98900
X140400Y-100400
X140400Y-101900
X140400Y-103400
X140400Y-104900
X140400Y-106400
X140400Y-107900
X140400Y-109400
X140400Y-110900
X140400Y-112400
X140400Y-113900
X140400Y-116900
X141500Y-70000
X141900Y-64400
X141900Y-65900
X141900Y-67400
X141900Y-68900
X141900Y-92900
X141900Y-98900
X141900Y-100400
X141900Y-101900
X141900Y-103400
X141900Y-104900
X141900Y-106400
X141900Y-107900
X143000Y-68500
X143400Y-59900
X143400Y-62900
X143400Y-64400
X143400Y-65900
X143400Y-67400
X143400Y-92900
X143400Y-98900
X143400Y-113900
X143400Y-116900
X144500Y-67000
X144900Y-59900
X144900Y-61400
X144900Y-62900
X144900Y-64400
X144900Y-65900
X144900Y-92900
X144900Y-113900
X144900Y-115400
X144900Y-116900
X146400Y-59900
X146400Y-61400
X146400Y-62900
X146400Y-64400
X146400Y-65900
X146400Y-77900
X146400Y-79400
X146400Y-80900
X146400Y-82400
X146400Y-83900
X146400Y-85400
X146400Y-86900
X146400Y-92900
X146400Y-112400
X146400Y-113900
X146400Y-115400
X146400Y-116900
X147900Y-59900
X147900Y-61400
X147900Y-77900
X147900Y-79400
X147900Y-80900
X147900Y-82400
X147900Y-83900
X147900Y-85400
X147900Y-86900
X147900Y-112400
X147900Y-113900
X147900Y-115400
X147900Y-116900
X149000Y-72500
X149000Y-74000
X149400Y-59900
X149400Y-61400
X149400Y-71900
X149400Y-73400
X149400Y-74900
X149400Y-76400
X149400Y-77900
X149400Y-79400
X149400Y-80900
X149400Y-82400
X149400Y-83900
X149400Y-85400
X149400Y-86900
X149400Y-112400
X149400Y-113900
X149400Y-115400
X149400Y-116900
X150000Y-68000
X150000Y-70500
X150000Y-96500
X150000Y-100000
X150500Y-108000
X150900Y-59900
X150900Y-61400
X150900Y-76400
X150900Y-77900
X150900Y-79400
X150900Y-80900
X150900Y-82400
X150900Y-83900
X150900Y-85400
X150900Y-86900
X150900Y-100400
X150900Y-101900
X150900Y-103400
X150900Y-104900
X150900Y-106400
X150900Y-112400
X150900Y-113900
X150900Y-115400
X150900Y-116900
X151000Y-68000
X151000Y-70500
X151000Y-96000
X151500Y-95000
X152000Y-97000
X152000Y-106500
X152400Y-59900
X152400Y-61400
X152400Y-62900
X152400Y-76400
X152400Y-77900
X152400Y-79400
X152400Y-80900
X152400Y-82400
X152400Y-83900
X152400Y-85400
X152400Y-86900
X152400Y-95900
X152400Y-100400
X152400Y-101900
X152400Y-103400
X152400Y-104900
X152400Y-112400
X152400Y-113900
X152400Y-115400
X152400Y-116900
X152500Y-64500
X153000Y-97000
X153000Y-98500
X153000Y-99500
X153900Y-59900
X153900Y-61400
X153900Y-62900
X153900Y-77900
X153900Y-79400
X153900Y-80900
X153900Y-82400
X153900Y-83900
X153900Y-85400
X153900Y-86900
X153900Y-95900
X153900Y-100400
X153900Y-101900
X153900Y-103400
X153900Y-104900
X153900Y-112400
X153900Y-113900
X153900Y-115400
X153900Y-116900
X154000Y-72000
X154500Y-64000
X154500Y-96500
X155000Y-113000
X155400Y-59900
X155400Y-61400
X155400Y-62900
X155400Y-79400
X155400Y-80900
X155400Y-82400
X155400Y-83900
X155400Y-85400
X155400Y-86900
X155400Y-88400
X155400Y-95900
X155400Y-101900
X155400Y-103400
X155400Y-104900
X155400Y-116900
X155500Y-78000
X156000Y-64000
X156000Y-97000
X156900Y-59900
X156900Y-61400
X156900Y-62900
X156900Y-80900
X156900Y-82400
X156900Y-83900
X156900Y-85400
X156900Y-86900
X156900Y-88400
X156900Y-89900
X156900Y-95900
X156900Y-97400
X156900Y-98900
X156900Y-101900
X156900Y-103400
X156900Y-104900
X156900Y-116900
X157000Y-79500
X157500Y-64000
X158400Y-59900
X158400Y-61400
X158400Y-62900
X158400Y-74900
X158400Y-80900
X158400Y-82400
X158400Y-83900
X158400Y-85400
X158400Y-86900
X158400Y-88400
X158400Y-89900
X158400Y-103400
X158400Y-104900
X158400Y-112400
X158400Y-113900
X158400Y-115400
X158400Y-116900
X158500Y-76000
X159000Y-64000
X159500Y-111500
X159900Y-59900
X159900Y-61400
X159900Y-62900
X159900Y-74900
X159900Y-76400
X159900Y-80900
X159900Y-82400
X159900Y-83900
X159900Y-85400
X159900Y-86900
X159900Y-88400
X159900Y-89900
X159900Y-98900
X159900Y-101900
X159900Y-103400
X159900Y-104900
X159900Y-112400
X159900Y-113900
X159900Y-115400
X159900Y-116900
X160000Y-79000
X160500Y-111500
X161400Y-59900
X161400Y-61400
X161400Y-62900
X161400Y-71900
X161400Y-73400
X161400Y-74900
X161400Y-76400
X161400Y-80900
X161400Y-82400
X161400Y-83900
X161400Y-85400
X161400Y-86900
X161400Y-88400
X161400Y-89900
X161400Y-103400
X161400Y-104900
X161400Y-112400
X161400Y-113900
X161400Y-115400
X161400Y-116900
X161500Y-79000
X161500Y-111500
X162500Y-113000
X162900Y-59900
X162900Y-61400
X162900Y-62900
X162900Y-68900
X162900Y-70400
X162900Y-71900
X162900Y-73400
X162900Y-74900
X162900Y-76400
X162900Y-80900
X162900Y-82400
X162900Y-83900
X162900Y-85400
X162900Y-86900
X162900Y-88400
X162900Y-89900
X162900Y-95900
X162900Y-97400
X162900Y-103400
X162900Y-104900
X162900Y-113900
X162900Y-115400
X162900Y-116900
X163000Y-79000
X163500Y-113000
X164000Y-115500
X164400Y-59900
X164400Y-62900
X164400Y-68900
X164400Y-70400
X164400Y-71900
X164400Y-73400
X164400Y-74900
X164400Y-76400
X164400Y-80900
X164400Y-82400
X164400Y-83900
X164400Y-85400
X164400Y-86900
X164400Y-88400
X164400Y-89900
X164400Y-95900
X164400Y-97400
X164400Y-100400
X164400Y-103400
X164400Y-104900
X164400Y-112400
X164400Y-113900
X164400Y-116900
X164500Y-111000
X165500Y-113500
X165900Y-71900
X165900Y-76400
X165900Y-80900
X165900Y-82400
X165900Y-83900
X165900Y-85400
X165900Y-86900
X165900Y-88400
X165900Y-89900
X165900Y-100400
X165900Y-104900
X165900Y-112400
X166000Y-117500
X166500Y-113000
X167400Y-59900
X167400Y-62900
X167400Y-80900
X167400Y-82400
X167400Y-83900
X167400Y-85400
X167400Y-86900
X167400Y-88400
X167400Y-89900
X167400Y-100400
X167400Y-104900
X167400Y-106400
X167400Y-112400
X167400Y-113900
X167400Y-116900
X168000Y-92000
X168000Y-93500
X168000Y-101000
X168000Y-102000
X168000Y-103000
X168000Y-104000
X168000Y-107500
X168000Y-108500
X168000Y-109500
X168000Y-110500
X168000Y-111500
X168000Y-113000
X168000Y-115500
T2
X156500Y-110750
X156500Y-114250
T3
X147823Y-98191
X149525Y-94000
X151227Y-98191
X152929Y-94000
X154630Y-98191
T4
X148500Y-106500
X166000Y-66750
X166000Y-69290
X166000Y-74000
X166000Y-78000
X166000Y-102500
X166025Y-94460
X166025Y-97000
X166025Y-108250
X166025Y-110790
M30
