%TF.GenerationSoftware,KiCad,Pcbnew,8.0.2*%
%TF.CreationDate,2024-06-04T16:14:46-04:00*%
%TF.ProjectId,Power Supply,506f7765-7220-4537-9570-706c792e6b69,rev?*%
%TF.SameCoordinates,Original*%
%TF.FileFunction,Copper,L1,Top*%
%TF.FilePolarity,Positive*%
%FSLAX46Y46*%
G04 Gerber Fmt 4.6, Leading zero omitted, Abs format (unit mm)*
G04 Created by KiCad (PCBNEW 8.0.2) date 2024-06-04 16:14:46*
%MOMM*%
%LPD*%
G01*
G04 APERTURE LIST*
G04 Aperture macros list*
%AMRoundRect*
0 Rectangle with rounded corners*
0 $1 Rounding radius*
0 $2 $3 $4 $5 $6 $7 $8 $9 X,Y pos of 4 corners*
0 Add a 4 corners polygon primitive as box body*
4,1,4,$2,$3,$4,$5,$6,$7,$8,$9,$2,$3,0*
0 Add four circle primitives for the rounded corners*
1,1,$1+$1,$2,$3*
1,1,$1+$1,$4,$5*
1,1,$1+$1,$6,$7*
1,1,$1+$1,$8,$9*
0 Add four rect primitives between the rounded corners*
20,1,$1+$1,$2,$3,$4,$5,0*
20,1,$1+$1,$4,$5,$6,$7,0*
20,1,$1+$1,$6,$7,$8,$9,0*
20,1,$1+$1,$8,$9,$2,$3,0*%
G04 Aperture macros list end*
%TA.AperFunction,SMDPad,CuDef*%
%ADD10RoundRect,0.250000X-0.337500X-0.475000X0.337500X-0.475000X0.337500X0.475000X-0.337500X0.475000X0*%
%TD*%
%TA.AperFunction,SMDPad,CuDef*%
%ADD11RoundRect,0.250000X-0.475000X0.337500X-0.475000X-0.337500X0.475000X-0.337500X0.475000X0.337500X0*%
%TD*%
%TA.AperFunction,SMDPad,CuDef*%
%ADD12RoundRect,0.250000X-0.450000X0.350000X-0.450000X-0.350000X0.450000X-0.350000X0.450000X0.350000X0*%
%TD*%
%TA.AperFunction,ComponentPad*%
%ADD13C,1.600000*%
%TD*%
%TA.AperFunction,SMDPad,CuDef*%
%ADD14RoundRect,0.250000X-0.350000X-0.450000X0.350000X-0.450000X0.350000X0.450000X-0.350000X0.450000X0*%
%TD*%
%TA.AperFunction,ComponentPad*%
%ADD15R,1.700000X1.700000*%
%TD*%
%TA.AperFunction,SMDPad,CuDef*%
%ADD16RoundRect,0.250000X0.450000X-0.350000X0.450000X0.350000X-0.450000X0.350000X-0.450000X-0.350000X0*%
%TD*%
%TA.AperFunction,ComponentPad*%
%ADD17O,1.700000X1.700000*%
%TD*%
%TA.AperFunction,SMDPad,CuDef*%
%ADD18RoundRect,0.250000X0.337500X0.475000X-0.337500X0.475000X-0.337500X-0.475000X0.337500X-0.475000X0*%
%TD*%
%TA.AperFunction,SMDPad,CuDef*%
%ADD19RoundRect,0.250000X0.475000X-0.337500X0.475000X0.337500X-0.475000X0.337500X-0.475000X-0.337500X0*%
%TD*%
%TA.AperFunction,SMDPad,CuDef*%
%ADD20RoundRect,0.250000X0.250000X-0.250000X0.250000X0.250000X-0.250000X0.250000X-0.250000X-0.250000X0*%
%TD*%
%TA.AperFunction,ComponentPad*%
%ADD21C,1.397000*%
%TD*%
%TA.AperFunction,ComponentPad*%
%ADD22R,1.397000X1.397000*%
%TD*%
%TA.AperFunction,HeatsinkPad*%
%ADD23R,1.650000X2.850000*%
%TD*%
%TA.AperFunction,SMDPad,CuDef*%
%ADD24RoundRect,0.100000X-0.625000X-0.100000X0.625000X-0.100000X0.625000X0.100000X-0.625000X0.100000X0*%
%TD*%
%TA.AperFunction,SMDPad,CuDef*%
%ADD25RoundRect,0.250000X0.275000X0.350000X-0.275000X0.350000X-0.275000X-0.350000X0.275000X-0.350000X0*%
%TD*%
%TA.AperFunction,ViaPad*%
%ADD26C,0.600000*%
%TD*%
%TA.AperFunction,Conductor*%
%ADD27C,1.500000*%
%TD*%
%TA.AperFunction,Conductor*%
%ADD28C,2.000000*%
%TD*%
%TA.AperFunction,Conductor*%
%ADD29C,0.300000*%
%TD*%
%TA.AperFunction,Conductor*%
%ADD30C,1.600000*%
%TD*%
%TA.AperFunction,Conductor*%
%ADD31C,1.000000*%
%TD*%
%TA.AperFunction,Conductor*%
%ADD32C,2.400000*%
%TD*%
%TA.AperFunction,Conductor*%
%ADD33C,2.300000*%
%TD*%
%TA.AperFunction,Conductor*%
%ADD34C,0.200000*%
%TD*%
%TA.AperFunction,Conductor*%
%ADD35C,0.400000*%
%TD*%
%ADD36C,0.300000*%
%ADD37C,0.350000*%
G04 APERTURE END LIST*
D10*
%TO.P,C14,2*%
%TO.N,GND*%
X147537500Y-75500000D03*
%TO.P,C14,1*%
%TO.N,+5V*%
X145462500Y-75500000D03*
%TD*%
D11*
%TO.P,C3,2*%
%TO.N,GND*%
X158525000Y-96537500D03*
%TO.P,C3,1*%
%TO.N,+5V*%
X158525000Y-94462500D03*
%TD*%
%TO.P,C13,2*%
%TO.N,GND*%
X142000000Y-111500000D03*
%TO.P,C13,1*%
%TO.N,+6V*%
X142000000Y-109425000D03*
%TD*%
%TO.P,C10,2*%
%TO.N,GND*%
X158590000Y-69537500D03*
%TO.P,C10,1*%
%TO.N,+3.3V*%
X158590000Y-67462500D03*
%TD*%
D12*
%TO.P,R1,2*%
%TO.N,/Div_1*%
X161500000Y-101000000D03*
%TO.P,R1,1*%
%TO.N,+5V*%
X161500000Y-99000000D03*
%TD*%
D13*
%TO.P,C1,2*%
%TO.N,GND*%
X156500000Y-114250000D03*
%TO.P,C1,1*%
%TO.N,VCC*%
X156500000Y-110750000D03*
%TD*%
D14*
%TO.P,R3,2*%
%TO.N,Net-(U2-PG)*%
X147500000Y-73000000D03*
%TO.P,R3,1*%
%TO.N,+5V*%
X145500000Y-73000000D03*
%TD*%
D15*
%TO.P,Div,1,Pin_1*%
%TO.N,/Div_1*%
X166000000Y-102500000D03*
%TD*%
D11*
%TO.P,C5,2*%
%TO.N,GND*%
X144025000Y-97037500D03*
%TO.P,C5,1*%
%TO.N,+6V*%
X144025000Y-94962500D03*
%TD*%
%TO.P,C6,2*%
%TO.N,GND*%
X141525000Y-97037500D03*
%TO.P,C6,1*%
%TO.N,+6V*%
X141525000Y-94962500D03*
%TD*%
D12*
%TO.P,R5,2*%
%TO.N,GND*%
X151000000Y-75000000D03*
%TO.P,R5,1*%
%TO.N,/Div_2*%
X151000000Y-73000000D03*
%TD*%
D16*
%TO.P,R6,2*%
%TO.N,GND*%
X160000000Y-71500000D03*
%TO.P,R6,1*%
%TO.N,Net-(U2-SET)*%
X160000000Y-73500000D03*
%TD*%
D10*
%TO.P,C8,2*%
%TO.N,GND*%
X150537500Y-63000000D03*
%TO.P,C8,1*%
%TO.N,+5V*%
X148462500Y-63000000D03*
%TD*%
%TO.P,C7,2*%
%TO.N,GND*%
X150537500Y-65500000D03*
%TO.P,C7,1*%
%TO.N,+5V*%
X148462500Y-65500000D03*
%TD*%
D17*
%TO.P,5V,2,Pin_2*%
%TO.N,GND*%
X166025000Y-97000000D03*
D15*
%TO.P,5V,1,Pin_1*%
%TO.N,+5V*%
X166025000Y-94460000D03*
%TD*%
D18*
%TO.P,C15,2*%
%TO.N,GND*%
X141462500Y-91000000D03*
%TO.P,C15,1*%
%TO.N,+5V*%
X143537500Y-91000000D03*
%TD*%
D11*
%TO.P,C2,2*%
%TO.N,GND*%
X144500000Y-111537500D03*
%TO.P,C2,1*%
%TO.N,+6V*%
X144500000Y-109462500D03*
%TD*%
D17*
%TO.P,J3,2,Pin_2*%
%TO.N,GND*%
X166025000Y-110790000D03*
D15*
%TO.P,J3,1,Pin_1*%
%TO.N,VCC*%
X166025000Y-108250000D03*
%TD*%
%TO.P,Div,1,Pin_1*%
%TO.N,/Div_2*%
X166000000Y-78000000D03*
%TD*%
D17*
%TO.P,3.3V,2,Pin_2*%
%TO.N,GND*%
X166000000Y-69290000D03*
D15*
%TO.P,3.3V,1,Pin_1*%
%TO.N,+3.3V*%
X166000000Y-66750000D03*
%TD*%
D19*
%TO.P,C12,2*%
%TO.N,GND*%
X157500000Y-71462500D03*
%TO.P,C12,1*%
%TO.N,Net-(U2-SET)*%
X157500000Y-73537500D03*
%TD*%
D16*
%TO.P,R2,2*%
%TO.N,GND*%
X158500000Y-99000000D03*
%TO.P,R2,1*%
%TO.N,/Div_1*%
X158500000Y-101000000D03*
%TD*%
%TO.P,R4,2*%
%TO.N,/Div_2*%
X153000000Y-73000000D03*
%TO.P,R4,1*%
%TO.N,+3.3V*%
X153000000Y-75000000D03*
%TD*%
D20*
%TO.P,D1,2,A2*%
%TO.N,VCC*%
X163000000Y-109250000D03*
%TO.P,D1,1,A1*%
%TO.N,GND*%
X163000000Y-111750000D03*
%TD*%
D21*
%TO.P,U1,5,SENSE/ADJ*%
%TO.N,/Div_1*%
X154630400Y-98191000D03*
%TO.P,U1,4,OUT*%
%TO.N,+5V*%
X152928600Y-94000000D03*
%TO.P,U1,3,GND*%
%TO.N,GND*%
X151226800Y-98191000D03*
%TO.P,U1,2,IN*%
%TO.N,+6V*%
X149525000Y-94000000D03*
D22*
%TO.P,U1,1,\u002ASHDN*%
X147823200Y-98191000D03*
%TD*%
D11*
%TO.P,C11,2*%
%TO.N,GND*%
X161090000Y-69537500D03*
%TO.P,C11,1*%
%TO.N,+3.3V*%
X161090000Y-67462500D03*
%TD*%
D23*
%TO.P,U2,13,GND*%
%TO.N,GND*%
X150590000Y-69290000D03*
D24*
%TO.P,U2,12,OUT*%
%TO.N,+3.3V*%
X152740000Y-67665000D03*
%TO.P,U2,11,OUT*%
X152740000Y-68315000D03*
%TO.P,U2,10,OUTS*%
X152740000Y-68965000D03*
%TO.P,U2,9,GND*%
%TO.N,GND*%
X152740000Y-69615000D03*
%TO.P,U2,8,SET*%
%TO.N,Net-(U2-SET)*%
X152740000Y-70265000D03*
%TO.P,U2,7,PGFB*%
%TO.N,/Div_2*%
X152740000Y-70915000D03*
%TO.P,U2,6,ILIM*%
%TO.N,GND*%
X148440000Y-70915000D03*
%TO.P,U2,5,PG*%
%TO.N,Net-(U2-PG)*%
X148440000Y-70265000D03*
%TO.P,U2,4,EN/UV*%
%TO.N,+5V*%
X148440000Y-69615000D03*
%TO.P,U2,3,IN*%
X148440000Y-68965000D03*
%TO.P,U2,2,IN*%
X148440000Y-68315000D03*
%TO.P,U2,1,IN*%
X148440000Y-67665000D03*
%TD*%
D15*
%TO.P,+6,1,Pin_1*%
%TO.N,+6V*%
X148500000Y-106500000D03*
%TD*%
%TO.P,GND,1,Pin_1*%
%TO.N,GND*%
X166000000Y-74000000D03*
%TD*%
D25*
%TO.P,FB1,2*%
%TO.N,+6V*%
X148350000Y-110500000D03*
%TO.P,FB1,1*%
%TO.N,VCC*%
X150650000Y-110500000D03*
%TD*%
D11*
%TO.P,C4,2*%
%TO.N,GND*%
X161000000Y-96537500D03*
%TO.P,C4,1*%
%TO.N,+5V*%
X161000000Y-94462500D03*
%TD*%
%TO.P,C9,2*%
%TO.N,GND*%
X156090000Y-69537500D03*
%TO.P,C9,1*%
%TO.N,+3.3V*%
X156090000Y-67462500D03*
%TD*%
D26*
%TO.N,GND*%
X163500000Y-113000000D03*
X168000000Y-93500000D03*
X168000000Y-92000000D03*
X140000000Y-91000000D03*
X140000000Y-97000000D03*
X140000000Y-95000000D03*
X166500000Y-113000000D03*
X155000000Y-113000000D03*
X159500000Y-111500000D03*
X160500000Y-111500000D03*
X161500000Y-111500000D03*
X166000000Y-117500000D03*
X164000000Y-115500000D03*
X168000000Y-115500000D03*
X165500000Y-113500000D03*
X164500000Y-111000000D03*
X168000000Y-101000000D03*
X168000000Y-102000000D03*
X168000000Y-103000000D03*
X168000000Y-104000000D03*
X168000000Y-107500000D03*
X168000000Y-108500000D03*
X168000000Y-109500000D03*
X168000000Y-110500000D03*
X168000000Y-111500000D03*
X168000000Y-113000000D03*
X152000000Y-106500000D03*
X150500000Y-108000000D03*
X140000000Y-71500000D03*
X140000000Y-72500000D03*
X140000000Y-74000000D03*
X140000000Y-75500000D03*
X140000000Y-77000000D03*
X140000000Y-78500000D03*
X140000000Y-80000000D03*
X140000000Y-81500000D03*
X140000000Y-83000000D03*
X140000000Y-84500000D03*
X140000000Y-86000000D03*
X140000000Y-87500000D03*
X140000000Y-89000000D03*
X152000000Y-97000000D03*
X156000000Y-97000000D03*
X154500000Y-96500000D03*
X153000000Y-98500000D03*
X153000000Y-99500000D03*
X150000000Y-100000000D03*
X150000000Y-96500000D03*
X151000000Y-96000000D03*
X151500000Y-95000000D03*
X153000000Y-97000000D03*
X157000000Y-79500000D03*
X155500000Y-78000000D03*
X151000000Y-70500000D03*
X150000000Y-70500000D03*
X151000000Y-68000000D03*
X150000000Y-68000000D03*
X159000000Y-64000000D03*
X157500000Y-64000000D03*
X156000000Y-64000000D03*
X154500000Y-64000000D03*
X152500000Y-64500000D03*
X144500000Y-67000000D03*
X143000000Y-68500000D03*
X141500000Y-70000000D03*
X149000000Y-74000000D03*
X149000000Y-72500000D03*
X154000000Y-72000000D03*
X158500000Y-76000000D03*
X160000000Y-79000000D03*
X161500000Y-79000000D03*
X163000000Y-79000000D03*
X162500000Y-113000000D03*
X164400000Y-112400000D03*
X159900000Y-76400000D03*
X164400000Y-74900000D03*
X147900000Y-59900000D03*
X164400000Y-80900000D03*
X143400000Y-67400000D03*
X164400000Y-71900000D03*
X149400000Y-113900000D03*
X162900000Y-116900000D03*
X152400000Y-115400000D03*
X164400000Y-73400000D03*
X149400000Y-115400000D03*
X162900000Y-89900000D03*
X159900000Y-62900000D03*
X149400000Y-74900000D03*
X164400000Y-83900000D03*
X155400000Y-80900000D03*
X164400000Y-76400000D03*
X164400000Y-70400000D03*
X161400000Y-62900000D03*
X162900000Y-103400000D03*
X161400000Y-71900000D03*
X162900000Y-97400000D03*
X149400000Y-73400000D03*
X150900000Y-79400000D03*
X162900000Y-88400000D03*
X147900000Y-79400000D03*
X162900000Y-113900000D03*
X156900000Y-83900000D03*
X150900000Y-104900000D03*
X162900000Y-104900000D03*
X140400000Y-112400000D03*
X149400000Y-83900000D03*
X164400000Y-62900000D03*
X162900000Y-95900000D03*
X162900000Y-115400000D03*
X153900000Y-79400000D03*
X164400000Y-68900000D03*
X164400000Y-59900000D03*
X149400000Y-85400000D03*
X146400000Y-80900000D03*
X152400000Y-80900000D03*
X161400000Y-86900000D03*
X150900000Y-82400000D03*
X152400000Y-83900000D03*
X156900000Y-95900000D03*
X162900000Y-73400000D03*
X152400000Y-85400000D03*
X152400000Y-86900000D03*
X149400000Y-76400000D03*
X165900000Y-100400000D03*
X149400000Y-86900000D03*
X165900000Y-85400000D03*
X147900000Y-83900000D03*
X150900000Y-61400000D03*
X147900000Y-112400000D03*
X147900000Y-113900000D03*
X152400000Y-95900000D03*
X152400000Y-100400000D03*
X162900000Y-59900000D03*
X152400000Y-101900000D03*
X150900000Y-113900000D03*
X146400000Y-115400000D03*
X150900000Y-59900000D03*
X143400000Y-92900000D03*
X152400000Y-104900000D03*
X152400000Y-112400000D03*
X147900000Y-85400000D03*
X149400000Y-80900000D03*
X156900000Y-98900000D03*
X149400000Y-82400000D03*
X147900000Y-82400000D03*
X161400000Y-112400000D03*
X140400000Y-104900000D03*
X149400000Y-112400000D03*
X150900000Y-85400000D03*
X162900000Y-83900000D03*
X162900000Y-76400000D03*
X150900000Y-101900000D03*
X152400000Y-59900000D03*
X152400000Y-61400000D03*
X150900000Y-80900000D03*
X152400000Y-103400000D03*
X149400000Y-61400000D03*
X149400000Y-71900000D03*
X165900000Y-83900000D03*
X147900000Y-80900000D03*
X156900000Y-62900000D03*
X152400000Y-82400000D03*
X150900000Y-116900000D03*
X147900000Y-86900000D03*
X147900000Y-116900000D03*
X149400000Y-77900000D03*
X149400000Y-79400000D03*
X140400000Y-100400000D03*
X149400000Y-116900000D03*
X150900000Y-77900000D03*
X150900000Y-83900000D03*
X150900000Y-86900000D03*
X144900000Y-115400000D03*
X150900000Y-103400000D03*
X161400000Y-85400000D03*
X150900000Y-106400000D03*
X153900000Y-103400000D03*
X150900000Y-112400000D03*
X158400000Y-86900000D03*
X152400000Y-76400000D03*
X152400000Y-77900000D03*
X149400000Y-59900000D03*
X150900000Y-100400000D03*
X162900000Y-68900000D03*
X146400000Y-77900000D03*
X152400000Y-62900000D03*
X159900000Y-116900000D03*
X150900000Y-115400000D03*
X152400000Y-79400000D03*
X147900000Y-115400000D03*
X150900000Y-76400000D03*
X152400000Y-113900000D03*
X153900000Y-62900000D03*
X153900000Y-61400000D03*
X152400000Y-116900000D03*
X153900000Y-59900000D03*
X146400000Y-79400000D03*
X153900000Y-83900000D03*
X143400000Y-116900000D03*
X153900000Y-77900000D03*
X156900000Y-86900000D03*
X153900000Y-80900000D03*
X159900000Y-59900000D03*
X153900000Y-82400000D03*
X159900000Y-104900000D03*
X167400000Y-104900000D03*
X159900000Y-112400000D03*
X155400000Y-88400000D03*
X164400000Y-95900000D03*
X153900000Y-85400000D03*
X161400000Y-80900000D03*
X140400000Y-92900000D03*
X161400000Y-82400000D03*
X159900000Y-89900000D03*
X164400000Y-85400000D03*
X140400000Y-103400000D03*
X161400000Y-61400000D03*
X155400000Y-83900000D03*
X161400000Y-83900000D03*
X146400000Y-116900000D03*
X161400000Y-88400000D03*
X161400000Y-113900000D03*
X144900000Y-116900000D03*
X161400000Y-115400000D03*
X162900000Y-61400000D03*
X167400000Y-62900000D03*
X162900000Y-62900000D03*
X155400000Y-101900000D03*
X161400000Y-104900000D03*
X147900000Y-77900000D03*
X159900000Y-83900000D03*
X159900000Y-98900000D03*
X161400000Y-59900000D03*
X158400000Y-62900000D03*
X161400000Y-89900000D03*
X167400000Y-113900000D03*
X161400000Y-76400000D03*
X159900000Y-115400000D03*
X159900000Y-101900000D03*
X161400000Y-73400000D03*
X161400000Y-103400000D03*
X144900000Y-61400000D03*
X159900000Y-103400000D03*
X165900000Y-82400000D03*
X161400000Y-74900000D03*
X161400000Y-116900000D03*
X165900000Y-89900000D03*
X159900000Y-113900000D03*
X164400000Y-103400000D03*
X162900000Y-85400000D03*
X162900000Y-70400000D03*
X167400000Y-82400000D03*
X140400000Y-62900000D03*
X162900000Y-86900000D03*
X162900000Y-74900000D03*
X162900000Y-82400000D03*
X164400000Y-86900000D03*
X162900000Y-80900000D03*
X146400000Y-59900000D03*
X162900000Y-71900000D03*
X165900000Y-80900000D03*
X164400000Y-113900000D03*
X167400000Y-59900000D03*
X153900000Y-116900000D03*
X164400000Y-88400000D03*
X165900000Y-88400000D03*
X164400000Y-104900000D03*
X141900000Y-98900000D03*
X164400000Y-100400000D03*
X164400000Y-116900000D03*
X158400000Y-104900000D03*
X167400000Y-83900000D03*
X144900000Y-59900000D03*
X165900000Y-104900000D03*
X164400000Y-82400000D03*
X167400000Y-112400000D03*
X167400000Y-86900000D03*
X164400000Y-97400000D03*
X146400000Y-82400000D03*
X164400000Y-89900000D03*
X165900000Y-71900000D03*
X165900000Y-112400000D03*
X167400000Y-88400000D03*
X159900000Y-80900000D03*
X167400000Y-116900000D03*
X167400000Y-100400000D03*
X165900000Y-76400000D03*
X165900000Y-86900000D03*
X167400000Y-89900000D03*
X167400000Y-85400000D03*
X167400000Y-80900000D03*
X167400000Y-106400000D03*
X141900000Y-104900000D03*
X153900000Y-100400000D03*
X144900000Y-92900000D03*
X146400000Y-64400000D03*
X144900000Y-62900000D03*
X140400000Y-110900000D03*
X140400000Y-67400000D03*
X140400000Y-59900000D03*
X159900000Y-86900000D03*
X141900000Y-64400000D03*
X141900000Y-107900000D03*
X153900000Y-113900000D03*
X140400000Y-70400000D03*
X140400000Y-106400000D03*
X140400000Y-109400000D03*
X140400000Y-65900000D03*
X156900000Y-103400000D03*
X143400000Y-59900000D03*
X158400000Y-83900000D03*
X143400000Y-65900000D03*
X143400000Y-98900000D03*
X156900000Y-88400000D03*
X141900000Y-100400000D03*
X141900000Y-92900000D03*
X146400000Y-61400000D03*
X146400000Y-83900000D03*
X140400000Y-64400000D03*
X156900000Y-82400000D03*
X153900000Y-86900000D03*
X140400000Y-98900000D03*
X141900000Y-68900000D03*
X141900000Y-103400000D03*
X156900000Y-59900000D03*
X140400000Y-68900000D03*
X158400000Y-61400000D03*
X140400000Y-107900000D03*
X140400000Y-113900000D03*
X143400000Y-64400000D03*
X141900000Y-65900000D03*
X156900000Y-104900000D03*
X144900000Y-64400000D03*
X141900000Y-67400000D03*
X141900000Y-101900000D03*
X140400000Y-116900000D03*
X141900000Y-106400000D03*
X143400000Y-113900000D03*
X146400000Y-62900000D03*
X144900000Y-113900000D03*
X146400000Y-65900000D03*
X140400000Y-101900000D03*
X144900000Y-65900000D03*
X143400000Y-62900000D03*
X146400000Y-85400000D03*
X146400000Y-112400000D03*
X146400000Y-113900000D03*
X146400000Y-86900000D03*
X153900000Y-101900000D03*
X146400000Y-92900000D03*
X147900000Y-61400000D03*
X155400000Y-86900000D03*
X158400000Y-85400000D03*
X155400000Y-59900000D03*
X158400000Y-89900000D03*
X158400000Y-103400000D03*
X153900000Y-115400000D03*
X155400000Y-116900000D03*
X156900000Y-61400000D03*
X156900000Y-80900000D03*
X156900000Y-85400000D03*
X153900000Y-95900000D03*
X155400000Y-61400000D03*
X158400000Y-59900000D03*
X158400000Y-80900000D03*
X158400000Y-82400000D03*
X158400000Y-112400000D03*
X155400000Y-85400000D03*
X156900000Y-89900000D03*
X158400000Y-113900000D03*
X158400000Y-115400000D03*
X158400000Y-116900000D03*
X153900000Y-112400000D03*
X155400000Y-79400000D03*
X156900000Y-97400000D03*
X155400000Y-95900000D03*
X156900000Y-116900000D03*
X155400000Y-103400000D03*
X158400000Y-88400000D03*
X153900000Y-104900000D03*
X155400000Y-82400000D03*
X156900000Y-101900000D03*
X158400000Y-74900000D03*
X155400000Y-62900000D03*
X155400000Y-104900000D03*
X159900000Y-85400000D03*
X159900000Y-82400000D03*
X159900000Y-88400000D03*
X159900000Y-61400000D03*
X159900000Y-74900000D03*
%TD*%
D27*
%TO.N,GND*%
X166025000Y-110790000D02*
X166596270Y-110790000D01*
X166596270Y-110790000D02*
X167193135Y-110193135D01*
X166025000Y-111025000D02*
X167400000Y-112400000D01*
X166025000Y-110790000D02*
X166025000Y-111025000D01*
X165065000Y-111750000D02*
X163000000Y-111750000D01*
X166025000Y-110790000D02*
X165065000Y-111750000D01*
%TO.N,+5V*%
X161002500Y-94460000D02*
X161000000Y-94462500D01*
X144731250Y-76231250D02*
X145462500Y-75500000D01*
D28*
X142000000Y-88000000D02*
X142000000Y-72277500D01*
D27*
X144500000Y-89000000D02*
X144500000Y-76462500D01*
X146000000Y-90000000D02*
X144500000Y-90000000D01*
X148440000Y-68965000D02*
X148440000Y-69015000D01*
X166025000Y-94460000D02*
X166025000Y-93025000D01*
X159062500Y-93000000D02*
X158062500Y-94000000D01*
X158062500Y-94000000D02*
X158525000Y-94462500D01*
X143537500Y-89537500D02*
X142000000Y-88000000D01*
X149928600Y-91000000D02*
X152928600Y-94000000D01*
X142000000Y-72277500D02*
X143537500Y-70740000D01*
X166025000Y-94460000D02*
X166025000Y-91525000D01*
X152928600Y-94000000D02*
X158062500Y-94000000D01*
X145462500Y-69500000D02*
X145462500Y-68815000D01*
X148440000Y-68965000D02*
X145997500Y-68965000D01*
X144388750Y-69888750D02*
X146612500Y-67665000D01*
X148440000Y-67665000D02*
X148440000Y-68815000D01*
X152928600Y-94000000D02*
X153928600Y-93000000D01*
X144500000Y-76462500D02*
X144731250Y-76231250D01*
D29*
X161500000Y-99000000D02*
X168000000Y-99000000D01*
X167460000Y-94460000D02*
X166025000Y-94460000D01*
D27*
X143537500Y-91000000D02*
X149928600Y-91000000D01*
X143537500Y-77425000D02*
X144731250Y-76231250D01*
X144388750Y-76351250D02*
X144388750Y-69888750D01*
X145997500Y-68965000D02*
X145462500Y-69500000D01*
X153928600Y-93000000D02*
X159062500Y-93000000D01*
D29*
X168000000Y-99000000D02*
X168000000Y-95000000D01*
D27*
X143537500Y-90000000D02*
X143537500Y-77425000D01*
X166025000Y-91525000D02*
X166000000Y-91500000D01*
X153928600Y-93000000D02*
X153928600Y-92928600D01*
X145462500Y-75500000D02*
X145462500Y-69500000D01*
D30*
X166000000Y-91500000D02*
X154500000Y-91500000D01*
D27*
X166025000Y-94460000D02*
X161002500Y-94460000D01*
X143537500Y-70740000D02*
X144388750Y-69888750D01*
X144500000Y-76462500D02*
X144388750Y-76351250D01*
D29*
X168000000Y-95000000D02*
X167460000Y-94460000D01*
D27*
X166025000Y-93025000D02*
X166000000Y-93000000D01*
X146612500Y-67665000D02*
X148440000Y-67665000D01*
X153928600Y-92928600D02*
X151000000Y-90000000D01*
X148440000Y-67665000D02*
X148440000Y-63022500D01*
X151000000Y-90000000D02*
X146000000Y-90000000D01*
X152000000Y-89000000D02*
X144500000Y-89000000D01*
X143537500Y-77425000D02*
X143537500Y-70740000D01*
X148440000Y-63022500D02*
X148462500Y-63000000D01*
X145462500Y-68815000D02*
X146612500Y-67665000D01*
X143537500Y-90000000D02*
X143537500Y-89537500D01*
X166522500Y-94462500D02*
X166525000Y-94460000D01*
D28*
X154500000Y-91500000D02*
X152000000Y-89000000D01*
D27*
X143537500Y-91000000D02*
X143537500Y-90000000D01*
X144500000Y-90000000D02*
X143537500Y-90000000D01*
X144500000Y-90000000D02*
X144500000Y-89000000D01*
X166000000Y-93000000D02*
X159062500Y-93000000D01*
X161000000Y-94462500D02*
X158525000Y-94462500D01*
D29*
%TO.N,Net-(U2-SET)*%
X156000000Y-73000000D02*
X156000000Y-72500000D01*
X159962500Y-73537500D02*
X160000000Y-73500000D01*
X156000000Y-72500000D02*
X153765000Y-70265000D01*
X156537500Y-73537500D02*
X156000000Y-73000000D01*
X157500000Y-73537500D02*
X159962500Y-73537500D01*
X157500000Y-73537500D02*
X156537500Y-73537500D01*
X153765000Y-70265000D02*
X152740000Y-70265000D01*
%TO.N,+3.3V*%
X168000000Y-80000000D02*
X168000000Y-67500000D01*
D27*
X152740000Y-67665000D02*
X155887500Y-67665000D01*
X166000000Y-66750000D02*
X161802500Y-66750000D01*
X161802500Y-66750000D02*
X161090000Y-67462500D01*
D28*
X161000000Y-65500000D02*
X160500000Y-66000000D01*
X160500000Y-66000000D02*
X153500000Y-66000000D01*
D29*
X154000000Y-75000000D02*
X159000000Y-80000000D01*
X159000000Y-80000000D02*
X168000000Y-80000000D01*
D31*
X166000000Y-66750000D02*
X166000000Y-66000000D01*
D27*
X156090000Y-67462500D02*
X158590000Y-67462500D01*
D31*
X155887500Y-67665000D02*
X156090000Y-67462500D01*
D29*
X167250000Y-66750000D02*
X166000000Y-66750000D01*
D27*
X158590000Y-67462500D02*
X161090000Y-67462500D01*
D28*
X153000000Y-66500000D02*
X153000000Y-67405000D01*
D29*
X153000000Y-75000000D02*
X154000000Y-75000000D01*
D31*
X153000000Y-67405000D02*
X152740000Y-67665000D01*
D28*
X165500000Y-65500000D02*
X161000000Y-65500000D01*
X153500000Y-66000000D02*
X153000000Y-66500000D01*
D31*
X152740000Y-67665000D02*
X152740000Y-68615000D01*
D29*
X168000000Y-67500000D02*
X167250000Y-66750000D01*
D28*
X166000000Y-66000000D02*
X165500000Y-65500000D01*
%TO.N,+6V*%
X144500000Y-109462500D02*
X146500000Y-109462500D01*
X146500000Y-109462500D02*
X147312500Y-109462500D01*
D27*
X148500000Y-106500000D02*
X148000000Y-106000000D01*
D32*
X144500000Y-101514200D02*
X147823200Y-98191000D01*
D33*
X147823200Y-98191000D02*
X147823200Y-95701800D01*
D27*
X148350000Y-106650000D02*
X148350000Y-110500000D01*
X144500000Y-109462500D02*
X142037500Y-109462500D01*
X148000000Y-98367800D02*
X147823200Y-98191000D01*
X148500000Y-106500000D02*
X148350000Y-106650000D01*
D32*
X144500000Y-109462500D02*
X144500000Y-101514200D01*
D27*
X144025000Y-94962500D02*
X148562500Y-94962500D01*
X142037500Y-109462500D02*
X142000000Y-109425000D01*
X141525000Y-94962500D02*
X144025000Y-94962500D01*
X147537500Y-109462500D02*
X144500000Y-109462500D01*
X147312500Y-109462500D02*
X148350000Y-110500000D01*
D28*
X148000000Y-106000000D02*
X148000000Y-98367800D01*
D27*
X147823200Y-98191000D02*
X146500000Y-99514200D01*
D28*
X146500000Y-99514200D02*
X146500000Y-109462500D01*
D27*
X148562500Y-94962500D02*
X149525000Y-94000000D01*
D34*
X144462500Y-109425000D02*
X144500000Y-109462500D01*
D33*
X147823200Y-95701800D02*
X149525000Y-94000000D01*
D27*
%TO.N,VCC*%
X166025000Y-108250000D02*
X165500000Y-107725000D01*
D28*
X156500000Y-108000000D02*
X153150000Y-108000000D01*
D33*
X158000000Y-109250000D02*
X156500000Y-110750000D01*
D27*
X154650000Y-106500000D02*
X153150000Y-108000000D01*
X165500000Y-106500000D02*
X154650000Y-106500000D01*
D33*
X164000000Y-108250000D02*
X163000000Y-109250000D01*
D34*
X166525000Y-108250000D02*
X166275000Y-108500000D01*
D28*
X154375000Y-108625000D02*
X153750000Y-108000000D01*
D27*
X165500000Y-107725000D02*
X165500000Y-106500000D01*
D33*
X163000000Y-109250000D02*
X158000000Y-109250000D01*
D27*
X166025000Y-108250000D02*
X165775000Y-108000000D01*
X156250000Y-110500000D02*
X150650000Y-110500000D01*
X156500000Y-110750000D02*
X156500000Y-108000000D01*
X153750000Y-108000000D02*
X153150000Y-108000000D01*
X152500000Y-110500000D02*
X154375000Y-108625000D01*
D28*
X156500000Y-110750000D02*
X154375000Y-108625000D01*
D27*
X156500000Y-110750000D02*
X156250000Y-110500000D01*
D33*
X166025000Y-108250000D02*
X164000000Y-108250000D01*
D28*
X165775000Y-108000000D02*
X156500000Y-108000000D01*
D27*
X153150000Y-108000000D02*
X150650000Y-110500000D01*
X150650000Y-110500000D02*
X152500000Y-110500000D01*
D29*
%TO.N,/Div_1*%
X158500000Y-101000000D02*
X157439400Y-101000000D01*
X157439400Y-101000000D02*
X154630400Y-98191000D01*
X162500000Y-101000000D02*
X164000000Y-102500000D01*
X158500000Y-101000000D02*
X161500000Y-101000000D01*
X161500000Y-101000000D02*
X162500000Y-101000000D01*
X164000000Y-102500000D02*
X166000000Y-102500000D01*
%TO.N,/Div_2*%
X153000000Y-71175000D02*
X152740000Y-70915000D01*
X153000000Y-73000000D02*
X153000000Y-71175000D01*
D35*
X153000000Y-73000000D02*
X153265000Y-73000000D01*
D29*
X154000000Y-73000000D02*
X159000000Y-78000000D01*
X159000000Y-78000000D02*
X166000000Y-78000000D01*
X153000000Y-73000000D02*
X154000000Y-73000000D01*
X151000000Y-73000000D02*
X153000000Y-73000000D01*
%TO.N,Net-(U2-PG)*%
X147500000Y-73000000D02*
X147365000Y-72865000D01*
X147715001Y-70265000D02*
X148440000Y-70265000D01*
X147365000Y-72865000D02*
X147365000Y-70615001D01*
X147365000Y-70615001D02*
X147715001Y-70265000D01*
%TD*%
%TA.AperFunction,Conductor*%
%TO.N,GND*%
G36*
X166525000Y-97376000D02*
G01*
X166505315Y-97443039D01*
X166452511Y-97488794D01*
X166401000Y-97500000D01*
X166090826Y-97500000D01*
X166217993Y-97465925D01*
X166332007Y-97400099D01*
X166425099Y-97307007D01*
X166490925Y-97192993D01*
X166525000Y-97065826D01*
X166525000Y-97376000D01*
G37*
%TD.AperFunction*%
%TA.AperFunction,Conductor*%
G36*
X166468039Y-96519685D02*
G01*
X166513794Y-96572489D01*
X166525000Y-96624000D01*
X166525000Y-96934174D01*
X166490925Y-96807007D01*
X166425099Y-96692993D01*
X166332007Y-96599901D01*
X166217993Y-96534075D01*
X166090826Y-96500000D01*
X166401000Y-96500000D01*
X166468039Y-96519685D01*
G37*
%TD.AperFunction*%
%TA.AperFunction,Conductor*%
G36*
X166443039Y-68809685D02*
G01*
X166488794Y-68862489D01*
X166500000Y-68914000D01*
X166500000Y-69224174D01*
X166465925Y-69097007D01*
X166400099Y-68982993D01*
X166307007Y-68889901D01*
X166192993Y-68824075D01*
X166065826Y-68790000D01*
X166376000Y-68790000D01*
X166443039Y-68809685D01*
G37*
%TD.AperFunction*%
%TA.AperFunction,Conductor*%
G36*
X168742539Y-58720185D02*
G01*
X168788294Y-58772989D01*
X168799500Y-58824500D01*
X168799500Y-118175500D01*
X168779815Y-118242539D01*
X168727011Y-118288294D01*
X168675500Y-118299500D01*
X139324500Y-118299500D01*
X139257461Y-118279815D01*
X139211706Y-118227011D01*
X139200500Y-118175500D01*
X139200500Y-115393399D01*
X140645500Y-115393399D01*
X140645500Y-115606600D01*
X140678853Y-115817180D01*
X140678853Y-115817183D01*
X140744734Y-116019944D01*
X140744736Y-116019947D01*
X140841528Y-116209913D01*
X140966846Y-116382397D01*
X141117603Y-116533154D01*
X141290087Y-116658472D01*
X141480053Y-116755264D01*
X141480055Y-116755265D01*
X141669182Y-116816715D01*
X141682821Y-116821147D01*
X141893399Y-116854500D01*
X141893400Y-116854500D01*
X142106600Y-116854500D01*
X142106601Y-116854500D01*
X142317179Y-116821147D01*
X142317182Y-116821146D01*
X142317183Y-116821146D01*
X142519944Y-116755265D01*
X142519944Y-116755264D01*
X142519947Y-116755264D01*
X142709913Y-116658472D01*
X142882397Y-116533154D01*
X143033154Y-116382397D01*
X143158472Y-116209913D01*
X143255264Y-116019947D01*
X143321147Y-115817179D01*
X143354500Y-115606601D01*
X143354500Y-115453103D01*
X156004002Y-115453103D01*
X156053673Y-115476265D01*
X156053682Y-115476269D01*
X156273389Y-115535139D01*
X156273400Y-115535141D01*
X156499998Y-115554966D01*
X156500002Y-115554966D01*
X156726599Y-115535141D01*
X156726606Y-115535140D01*
X156946328Y-115476265D01*
X156995997Y-115453103D01*
X156936293Y-115393399D01*
X164645500Y-115393399D01*
X164645500Y-115606600D01*
X164678853Y-115817180D01*
X164678853Y-115817183D01*
X164744734Y-116019944D01*
X164744736Y-116019947D01*
X164841528Y-116209913D01*
X164966846Y-116382397D01*
X165117603Y-116533154D01*
X165290087Y-116658472D01*
X165480053Y-116755264D01*
X165480055Y-116755265D01*
X165669182Y-116816715D01*
X165682821Y-116821147D01*
X165893399Y-116854500D01*
X165893400Y-116854500D01*
X166106600Y-116854500D01*
X166106601Y-116854500D01*
X166317179Y-116821147D01*
X166317182Y-116821146D01*
X166317183Y-116821146D01*
X166519944Y-116755265D01*
X166519944Y-116755264D01*
X166519947Y-116755264D01*
X166709913Y-116658472D01*
X166882397Y-116533154D01*
X167033154Y-116382397D01*
X167158472Y-116209913D01*
X167255264Y-116019947D01*
X167321147Y-115817179D01*
X167354500Y-115606601D01*
X167354500Y-115393399D01*
X167321147Y-115182821D01*
X167321146Y-115182817D01*
X167321146Y-115182816D01*
X167255265Y-114980055D01*
X167255263Y-114980052D01*
X167158471Y-114790086D01*
X167126438Y-114745997D01*
X167033154Y-114617603D01*
X166882397Y-114466846D01*
X166709913Y-114341528D01*
X166519947Y-114244736D01*
X166519944Y-114244734D01*
X166317181Y-114178853D01*
X166176793Y-114156617D01*
X166106601Y-114145500D01*
X165893399Y-114145500D01*
X165823206Y-114156617D01*
X165682819Y-114178853D01*
X165682816Y-114178853D01*
X165480055Y-114244734D01*
X165480052Y-114244736D01*
X165290086Y-114341528D01*
X165117601Y-114466847D01*
X164966847Y-114617601D01*
X164841528Y-114790086D01*
X164744736Y-114980052D01*
X164744734Y-114980055D01*
X164678853Y-115182816D01*
X164678853Y-115182819D01*
X164645500Y-115393399D01*
X156936293Y-115393399D01*
X156500001Y-114957107D01*
X156500000Y-114957107D01*
X156004002Y-115453103D01*
X143354500Y-115453103D01*
X143354500Y-115393399D01*
X143321147Y-115182821D01*
X143321146Y-115182817D01*
X143321146Y-115182816D01*
X143255265Y-114980055D01*
X143255263Y-114980052D01*
X143158471Y-114790086D01*
X143126438Y-114745997D01*
X143033154Y-114617603D01*
X142882397Y-114466846D01*
X142709913Y-114341528D01*
X142530272Y-114249997D01*
X155195034Y-114249997D01*
X155195034Y-114250002D01*
X155214858Y-114476599D01*
X155214860Y-114476610D01*
X155273731Y-114696320D01*
X155296895Y-114745996D01*
X155792893Y-114250000D01*
X155792893Y-114249999D01*
X155740233Y-114197339D01*
X156100000Y-114197339D01*
X156100000Y-114302661D01*
X156127259Y-114404394D01*
X156179920Y-114495606D01*
X156254394Y-114570080D01*
X156345606Y-114622741D01*
X156447339Y-114650000D01*
X156552661Y-114650000D01*
X156654394Y-114622741D01*
X156745606Y-114570080D01*
X156820080Y-114495606D01*
X156872741Y-114404394D01*
X156900000Y-114302661D01*
X156900000Y-114249999D01*
X157207107Y-114249999D01*
X157207107Y-114250001D01*
X157703103Y-114745997D01*
X157726265Y-114696328D01*
X157785140Y-114476606D01*
X157785141Y-114476599D01*
X157804966Y-114250002D01*
X157804966Y-114249997D01*
X157785141Y-114023400D01*
X157785139Y-114023389D01*
X157726269Y-113803682D01*
X157726265Y-113803673D01*
X157703103Y-113754002D01*
X157207107Y-114249999D01*
X156900000Y-114249999D01*
X156900000Y-114197339D01*
X156872741Y-114095606D01*
X156820080Y-114004394D01*
X156745606Y-113929920D01*
X156654394Y-113877259D01*
X156552661Y-113850000D01*
X156447339Y-113850000D01*
X156345606Y-113877259D01*
X156254394Y-113929920D01*
X156179920Y-114004394D01*
X156127259Y-114095606D01*
X156100000Y-114197339D01*
X155740233Y-114197339D01*
X155296895Y-113754002D01*
X155273731Y-113803677D01*
X155214860Y-114023389D01*
X155214858Y-114023400D01*
X155195034Y-114249997D01*
X142530272Y-114249997D01*
X142519947Y-114244736D01*
X142519944Y-114244734D01*
X142317181Y-114178853D01*
X142176793Y-114156617D01*
X142106601Y-114145500D01*
X141893399Y-114145500D01*
X141823206Y-114156617D01*
X141682819Y-114178853D01*
X141682816Y-114178853D01*
X141480055Y-114244734D01*
X141480052Y-114244736D01*
X141290086Y-114341528D01*
X141117601Y-114466847D01*
X140966847Y-114617601D01*
X140841528Y-114790086D01*
X140744736Y-114980052D01*
X140744734Y-114980055D01*
X140678853Y-115182816D01*
X140678853Y-115182819D01*
X140645500Y-115393399D01*
X139200500Y-115393399D01*
X139200500Y-113046895D01*
X156004002Y-113046895D01*
X156500000Y-113542893D01*
X156500001Y-113542893D01*
X156995996Y-113046895D01*
X156946320Y-113023731D01*
X156726610Y-112964860D01*
X156726599Y-112964858D01*
X156500002Y-112945034D01*
X156499998Y-112945034D01*
X156273400Y-112964858D01*
X156273389Y-112964860D01*
X156053677Y-113023731D01*
X156004002Y-113046895D01*
X139200500Y-113046895D01*
X139200500Y-112000000D01*
X140788743Y-112000000D01*
X140840641Y-112156619D01*
X140840643Y-112156624D01*
X140932684Y-112305845D01*
X141056654Y-112429815D01*
X141205875Y-112521856D01*
X141205880Y-112521858D01*
X141372302Y-112577005D01*
X141372309Y-112577006D01*
X141475019Y-112587499D01*
X142500000Y-112587499D01*
X142524972Y-112587499D01*
X142524986Y-112587498D01*
X142627697Y-112577005D01*
X142794119Y-112521858D01*
X142794124Y-112521856D01*
X142943345Y-112429815D01*
X143067317Y-112305843D01*
X143132895Y-112199524D01*
X143184843Y-112152799D01*
X143253805Y-112141576D01*
X143317887Y-112169419D01*
X143343972Y-112199523D01*
X143432680Y-112343340D01*
X143432683Y-112343344D01*
X143556654Y-112467315D01*
X143705875Y-112559356D01*
X143705880Y-112559358D01*
X143872302Y-112614505D01*
X143872309Y-112614506D01*
X143975019Y-112624999D01*
X145000000Y-112624999D01*
X145024972Y-112624999D01*
X145024986Y-112624998D01*
X145127697Y-112614505D01*
X145294119Y-112559358D01*
X145294124Y-112559356D01*
X145443345Y-112467315D01*
X145567315Y-112343345D01*
X145624891Y-112250000D01*
X162042737Y-112250000D01*
X162065641Y-112319120D01*
X162157684Y-112468345D01*
X162281654Y-112592315D01*
X162430881Y-112684359D01*
X162499999Y-112707262D01*
X162500000Y-112707262D01*
X163500000Y-112707262D01*
X163569118Y-112684359D01*
X163718345Y-112592315D01*
X163842315Y-112468345D01*
X163934358Y-112319120D01*
X163957263Y-112250000D01*
X163500000Y-112250000D01*
X163500000Y-112707262D01*
X162500000Y-112707262D01*
X162500000Y-112250000D01*
X162042737Y-112250000D01*
X145624891Y-112250000D01*
X145659356Y-112194124D01*
X145659358Y-112194119D01*
X145711257Y-112037500D01*
X145000000Y-112037500D01*
X145000000Y-112624999D01*
X143975019Y-112624999D01*
X144000000Y-112624998D01*
X144000000Y-112037500D01*
X143301745Y-112037500D01*
X143234706Y-112017815D01*
X143215898Y-112000000D01*
X142500000Y-112000000D01*
X142500000Y-112587499D01*
X141475019Y-112587499D01*
X141500000Y-112587498D01*
X141500000Y-112000000D01*
X140788743Y-112000000D01*
X139200500Y-112000000D01*
X139200500Y-97537500D01*
X140313743Y-97537500D01*
X140365641Y-97694119D01*
X140365643Y-97694124D01*
X140457684Y-97843345D01*
X140581654Y-97967315D01*
X140730875Y-98059356D01*
X140730880Y-98059358D01*
X140897302Y-98114505D01*
X140897309Y-98114506D01*
X141000019Y-98124999D01*
X142025000Y-98124999D01*
X142049972Y-98124999D01*
X142049986Y-98124998D01*
X142152697Y-98114505D01*
X142319119Y-98059358D01*
X142319124Y-98059356D01*
X142468345Y-97967315D01*
X142592315Y-97843345D01*
X142669461Y-97718273D01*
X142721409Y-97671549D01*
X142790372Y-97660326D01*
X142854454Y-97688170D01*
X142880539Y-97718273D01*
X142957684Y-97843345D01*
X143081654Y-97967315D01*
X143230875Y-98059356D01*
X143230880Y-98059358D01*
X143397302Y-98114505D01*
X143397309Y-98114506D01*
X143500019Y-98124999D01*
X144525000Y-98124999D01*
X144549972Y-98124999D01*
X144549986Y-98124998D01*
X144652697Y-98114505D01*
X144819119Y-98059358D01*
X144819124Y-98059356D01*
X144968345Y-97967315D01*
X145092315Y-97843345D01*
X145184356Y-97694124D01*
X145184358Y-97694119D01*
X145236257Y-97537500D01*
X144525000Y-97537500D01*
X144525000Y-98124999D01*
X143500019Y-98124999D01*
X143525000Y-98124998D01*
X143525000Y-97537500D01*
X142025000Y-97537500D01*
X142025000Y-98124999D01*
X141000019Y-98124999D01*
X141025000Y-98124998D01*
X141025000Y-97537500D01*
X140313743Y-97537500D01*
X139200500Y-97537500D01*
X139200500Y-96537500D01*
X140313743Y-96537500D01*
X145236256Y-96537500D01*
X145184358Y-96380880D01*
X145184356Y-96380875D01*
X145092315Y-96231654D01*
X145085342Y-96224681D01*
X145051857Y-96163358D01*
X145056841Y-96093666D01*
X145098713Y-96037733D01*
X145164177Y-96013316D01*
X145173023Y-96013000D01*
X146248700Y-96013000D01*
X146315739Y-96032685D01*
X146361494Y-96085489D01*
X146372700Y-96137000D01*
X146372700Y-97468110D01*
X146353015Y-97535149D01*
X146336381Y-97555791D01*
X143355484Y-100536688D01*
X143216657Y-100727765D01*
X143109433Y-100938203D01*
X143036446Y-101162831D01*
X142999500Y-101396102D01*
X142999500Y-108288000D01*
X142979815Y-108355039D01*
X142927011Y-108400794D01*
X142875500Y-108412000D01*
X142304202Y-108412000D01*
X142280011Y-108409617D01*
X142103468Y-108374500D01*
X142103465Y-108374500D01*
X141896535Y-108374500D01*
X141896530Y-108374500D01*
X141693587Y-108414868D01*
X141693579Y-108414870D01*
X141502402Y-108494058D01*
X141453203Y-108526931D01*
X141399106Y-108546942D01*
X141393435Y-108547623D01*
X141393429Y-108547624D01*
X141252660Y-108603137D01*
X141252658Y-108603138D01*
X141132077Y-108694577D01*
X141040639Y-108815156D01*
X140985122Y-108955938D01*
X140979188Y-109005353D01*
X140974500Y-109044398D01*
X140974500Y-109044403D01*
X140974500Y-109183639D01*
X140972117Y-109207830D01*
X140949500Y-109321531D01*
X140949500Y-109528466D01*
X140972117Y-109642168D01*
X140974500Y-109666360D01*
X140974500Y-109805602D01*
X140978889Y-109842147D01*
X140985122Y-109894061D01*
X140985122Y-109894063D01*
X140985123Y-109894064D01*
X140994925Y-109918920D01*
X141040639Y-110034843D01*
X141132077Y-110155422D01*
X141259416Y-110251986D01*
X141258028Y-110253815D01*
X141298315Y-110295118D01*
X141312316Y-110363571D01*
X141287087Y-110428726D01*
X141230636Y-110469898D01*
X141227759Y-110470891D01*
X141205882Y-110478140D01*
X141205875Y-110478143D01*
X141056654Y-110570184D01*
X140932684Y-110694154D01*
X140840643Y-110843375D01*
X140840641Y-110843380D01*
X140788743Y-111000000D01*
X143198255Y-111000000D01*
X143265294Y-111019685D01*
X143284102Y-111037500D01*
X145711257Y-111037500D01*
X145711257Y-111037499D01*
X145674311Y-110926004D01*
X145671909Y-110856175D01*
X145707641Y-110796134D01*
X145770161Y-110764941D01*
X145792017Y-110763000D01*
X146397648Y-110763000D01*
X146602352Y-110763000D01*
X147076006Y-110763000D01*
X147143045Y-110782685D01*
X147163687Y-110799319D01*
X147680341Y-111315974D01*
X147680345Y-111315977D01*
X147852398Y-111430940D01*
X147852400Y-111430940D01*
X147852402Y-111430942D01*
X147987585Y-111486936D01*
X148043580Y-111510130D01*
X148077253Y-111516827D01*
X148218321Y-111544888D01*
X148246534Y-111550501D01*
X148246535Y-111550501D01*
X148453468Y-111550501D01*
X148590004Y-111523341D01*
X148656420Y-111510130D01*
X148847598Y-111430942D01*
X149019655Y-111315977D01*
X149165977Y-111169655D01*
X149280942Y-110997598D01*
X149360130Y-110806420D01*
X149378383Y-110714659D01*
X149410768Y-110652748D01*
X149471484Y-110618174D01*
X149541253Y-110621913D01*
X149597925Y-110662780D01*
X149621617Y-110714659D01*
X149639868Y-110806412D01*
X149639870Y-110806420D01*
X149719059Y-110997598D01*
X149776541Y-111083626D01*
X149834024Y-111169657D01*
X149980342Y-111315975D01*
X149980345Y-111315977D01*
X150152402Y-111430941D01*
X150343580Y-111510130D01*
X150546530Y-111550499D01*
X150546534Y-111550500D01*
X150546535Y-111550500D01*
X152396535Y-111550500D01*
X152603465Y-111550500D01*
X155225500Y-111550500D01*
X155292539Y-111570185D01*
X155325819Y-111601616D01*
X155393616Y-111694933D01*
X155555064Y-111856381D01*
X155555069Y-111856385D01*
X155702639Y-111963600D01*
X155739773Y-111990579D01*
X155943201Y-112094231D01*
X156160341Y-112164784D01*
X156277346Y-112183315D01*
X156385839Y-112200499D01*
X156385843Y-112200499D01*
X156614161Y-112200499D01*
X156701614Y-112186647D01*
X156839659Y-112164784D01*
X157056799Y-112094231D01*
X157260227Y-111990579D01*
X157444937Y-111856380D01*
X158011316Y-111290000D01*
X164768593Y-111290000D01*
X164851398Y-111467576D01*
X164986894Y-111661082D01*
X165153917Y-111828105D01*
X165347422Y-111963600D01*
X165347424Y-111963601D01*
X165524999Y-112046405D01*
X165525000Y-112046405D01*
X166525000Y-112046405D01*
X166702575Y-111963601D01*
X166702577Y-111963600D01*
X166896082Y-111828105D01*
X167063105Y-111661082D01*
X167198601Y-111467576D01*
X167281406Y-111290000D01*
X166525000Y-111290000D01*
X166525000Y-112046405D01*
X165525000Y-112046405D01*
X165525000Y-111290000D01*
X164768593Y-111290000D01*
X158011316Y-111290000D01*
X158564497Y-110736818D01*
X158625820Y-110703334D01*
X158652178Y-110700500D01*
X162189477Y-110700500D01*
X162256516Y-110720185D01*
X162302271Y-110772989D01*
X162312215Y-110842147D01*
X162283190Y-110905703D01*
X162277158Y-110912181D01*
X162157684Y-111031654D01*
X162065641Y-111180879D01*
X162042737Y-111250000D01*
X163957262Y-111250000D01*
X163934358Y-111180879D01*
X163842315Y-111031654D01*
X163718345Y-110907684D01*
X163569121Y-110815642D01*
X163566209Y-110814284D01*
X163564547Y-110812820D01*
X163562975Y-110811851D01*
X163563140Y-110811582D01*
X163513770Y-110768111D01*
X163494619Y-110700917D01*
X163514835Y-110634036D01*
X163562319Y-110591417D01*
X163760228Y-110490579D01*
X163859864Y-110418189D01*
X163944937Y-110356380D01*
X164564498Y-109736819D01*
X164625821Y-109703334D01*
X164652179Y-109700500D01*
X164905950Y-109700500D01*
X164972989Y-109720185D01*
X165018744Y-109772989D01*
X165028688Y-109842147D01*
X164999663Y-109905703D01*
X164993631Y-109912181D01*
X164986891Y-109918920D01*
X164986886Y-109918926D01*
X164851402Y-110112417D01*
X164851400Y-110112421D01*
X164768594Y-110289999D01*
X164768594Y-110290000D01*
X165959174Y-110290000D01*
X165832007Y-110324075D01*
X165717993Y-110389901D01*
X165624901Y-110482993D01*
X165559075Y-110597007D01*
X165525000Y-110724174D01*
X165525000Y-110855826D01*
X165559075Y-110982993D01*
X165624901Y-111097007D01*
X165717993Y-111190099D01*
X165832007Y-111255925D01*
X165959174Y-111290000D01*
X166090826Y-111290000D01*
X166217993Y-111255925D01*
X166332007Y-111190099D01*
X166425099Y-111097007D01*
X166490925Y-110982993D01*
X166525000Y-110855826D01*
X166525000Y-110724174D01*
X166490925Y-110597007D01*
X166425099Y-110482993D01*
X166332007Y-110389901D01*
X166217993Y-110324075D01*
X166090826Y-110290000D01*
X167281406Y-110290000D01*
X167281405Y-110289999D01*
X167198599Y-110112421D01*
X167198597Y-110112417D01*
X167063113Y-109918926D01*
X167063108Y-109918920D01*
X166896078Y-109751890D01*
X166798881Y-109683831D01*
X166755256Y-109629254D01*
X166748064Y-109559756D01*
X166779587Y-109497401D01*
X166797115Y-109481942D01*
X166880885Y-109421079D01*
X166939484Y-109398223D01*
X166944991Y-109397585D01*
X167047765Y-109352206D01*
X167127206Y-109272765D01*
X167172585Y-109169991D01*
X167173224Y-109164481D01*
X167196079Y-109105884D01*
X167265579Y-109010228D01*
X167369231Y-108806799D01*
X167439784Y-108589660D01*
X167454926Y-108494058D01*
X167475500Y-108364162D01*
X167475500Y-108135837D01*
X167439784Y-107910339D01*
X167390772Y-107759497D01*
X167369231Y-107693201D01*
X167369229Y-107693198D01*
X167369229Y-107693196D01*
X167314550Y-107585884D01*
X167265579Y-107489772D01*
X167196078Y-107394112D01*
X167173222Y-107335505D01*
X167172585Y-107330009D01*
X167127206Y-107227235D01*
X167047765Y-107147794D01*
X166944993Y-107102415D01*
X166944985Y-107102413D01*
X166939474Y-107101774D01*
X166880883Y-107078919D01*
X166785228Y-107009421D01*
X166618205Y-106924318D01*
X166567409Y-106876343D01*
X166550500Y-106813833D01*
X166550500Y-106396534D01*
X166550499Y-106396530D01*
X166510131Y-106193587D01*
X166510130Y-106193580D01*
X166430941Y-106002402D01*
X166315977Y-105830345D01*
X166315975Y-105830342D01*
X166169657Y-105684024D01*
X166013984Y-105580008D01*
X165997598Y-105569059D01*
X165806420Y-105489870D01*
X165806412Y-105489868D01*
X165603469Y-105449500D01*
X165603465Y-105449500D01*
X154753465Y-105449500D01*
X154546534Y-105449500D01*
X154546529Y-105449500D01*
X154512862Y-105456195D01*
X154512863Y-105456196D01*
X154343585Y-105489868D01*
X154343579Y-105489870D01*
X154152403Y-105569058D01*
X153980344Y-105684023D01*
X153907184Y-105757184D01*
X153834023Y-105830345D01*
X153834020Y-105830348D01*
X152977779Y-106686588D01*
X152916456Y-106720073D01*
X152909498Y-106721380D01*
X152845468Y-106731522D01*
X152650778Y-106794781D01*
X152468386Y-106887715D01*
X152302786Y-107008028D01*
X152158028Y-107152786D01*
X152037715Y-107318386D01*
X151944781Y-107500778D01*
X151881522Y-107695468D01*
X151871380Y-107759497D01*
X151841449Y-107822632D01*
X151836588Y-107827778D01*
X150391603Y-109272765D01*
X149980347Y-109684021D01*
X149980345Y-109684023D01*
X149927549Y-109736819D01*
X149834023Y-109830344D01*
X149719057Y-110002403D01*
X149639061Y-110195533D01*
X149595220Y-110249936D01*
X149528926Y-110272001D01*
X149461226Y-110254722D01*
X149413616Y-110203584D01*
X149400500Y-110148080D01*
X149400500Y-107736989D01*
X149420185Y-107669950D01*
X149472989Y-107624195D01*
X149474295Y-107623607D01*
X149522765Y-107602206D01*
X149602206Y-107522765D01*
X149647585Y-107419991D01*
X149650500Y-107394865D01*
X149650499Y-105605136D01*
X149650497Y-105605117D01*
X149647586Y-105580012D01*
X149647585Y-105580010D01*
X149647585Y-105580009D01*
X149602206Y-105477235D01*
X149522765Y-105397794D01*
X149419992Y-105352415D01*
X149410208Y-105351280D01*
X149345884Y-105323999D01*
X149306520Y-105266273D01*
X149300500Y-105228106D01*
X149300500Y-99314845D01*
X150810058Y-99314845D01*
X150897412Y-99348685D01*
X151115745Y-99389500D01*
X151337855Y-99389500D01*
X151556188Y-99348685D01*
X151556189Y-99348685D01*
X151643540Y-99314845D01*
X151223331Y-98894636D01*
X151210150Y-98903443D01*
X151207115Y-98913781D01*
X151190481Y-98934423D01*
X150810058Y-99314845D01*
X149300500Y-99314845D01*
X149300500Y-98465328D01*
X149302027Y-98445930D01*
X149323700Y-98309096D01*
X149323700Y-98190999D01*
X150023166Y-98190999D01*
X150023166Y-98191000D01*
X150043659Y-98412166D01*
X150043660Y-98412169D01*
X150100113Y-98610580D01*
X150519692Y-98191000D01*
X150519693Y-98190999D01*
X150464518Y-98135824D01*
X150807700Y-98135824D01*
X150807700Y-98246176D01*
X150836261Y-98352766D01*
X150891437Y-98448333D01*
X150969467Y-98526363D01*
X151065034Y-98581539D01*
X151171624Y-98610100D01*
X151281976Y-98610100D01*
X151388566Y-98581539D01*
X151484133Y-98526363D01*
X151562163Y-98448333D01*
X151617339Y-98352766D01*
X151645900Y-98246176D01*
X151645900Y-98187531D01*
X151930436Y-98187531D01*
X152353485Y-98610580D01*
X152353486Y-98610580D01*
X152409939Y-98412168D01*
X152409940Y-98412166D01*
X152430434Y-98191000D01*
X152430434Y-98190999D01*
X152409940Y-97969833D01*
X152409939Y-97969831D01*
X152353486Y-97771418D01*
X152353485Y-97771418D01*
X151970224Y-98154681D01*
X151942139Y-98170016D01*
X151930436Y-98187531D01*
X151645900Y-98187531D01*
X151645900Y-98135824D01*
X151617339Y-98029234D01*
X151562163Y-97933667D01*
X151484133Y-97855637D01*
X151388566Y-97800461D01*
X151281976Y-97771900D01*
X151171624Y-97771900D01*
X151065034Y-97800461D01*
X150969467Y-97855637D01*
X150891437Y-97933667D01*
X150836261Y-98029234D01*
X150807700Y-98135824D01*
X150464518Y-98135824D01*
X150100113Y-97771419D01*
X150043659Y-97969837D01*
X150023166Y-98190999D01*
X149323700Y-98190999D01*
X149323700Y-98072902D01*
X149286753Y-97839630D01*
X149279769Y-97818136D01*
X149273700Y-97779817D01*
X149273700Y-97067152D01*
X150810059Y-97067152D01*
X150810059Y-97067153D01*
X151226799Y-97483893D01*
X151226800Y-97483893D01*
X151226800Y-97483892D01*
X151643540Y-97067152D01*
X151566997Y-97037500D01*
X157313743Y-97037500D01*
X157365641Y-97194119D01*
X157365643Y-97194124D01*
X157457684Y-97343345D01*
X157581654Y-97467315D01*
X157730875Y-97559356D01*
X157730880Y-97559358D01*
X157897302Y-97614505D01*
X157897309Y-97614506D01*
X158000019Y-97624999D01*
X159025000Y-97624999D01*
X159049972Y-97624999D01*
X159049986Y-97624998D01*
X159152697Y-97614505D01*
X159319119Y-97559358D01*
X159319124Y-97559356D01*
X159468345Y-97467315D01*
X159592315Y-97343345D01*
X159656961Y-97238538D01*
X159708909Y-97191814D01*
X159777871Y-97180591D01*
X159841954Y-97208435D01*
X159868039Y-97238538D01*
X159932684Y-97343345D01*
X160056654Y-97467315D01*
X160205875Y-97559356D01*
X160205880Y-97559358D01*
X160372302Y-97614505D01*
X160372309Y-97614506D01*
X160475019Y-97624999D01*
X161500000Y-97624999D01*
X161524972Y-97624999D01*
X161524986Y-97624998D01*
X161627697Y-97614505D01*
X161794119Y-97559358D01*
X161794124Y-97559356D01*
X161943345Y-97467315D01*
X162067315Y-97343345D01*
X162159356Y-97194124D01*
X162159358Y-97194119D01*
X162211257Y-97037500D01*
X161500000Y-97037500D01*
X161500000Y-97624999D01*
X160475019Y-97624999D01*
X160500000Y-97624998D01*
X160500000Y-97037500D01*
X159025000Y-97037500D01*
X159025000Y-97624999D01*
X158000019Y-97624999D01*
X158025000Y-97624998D01*
X158025000Y-97037500D01*
X157313743Y-97037500D01*
X151566997Y-97037500D01*
X151556194Y-97033315D01*
X151337855Y-96992500D01*
X151115745Y-96992500D01*
X150897408Y-97033314D01*
X150897405Y-97033315D01*
X150810059Y-97067152D01*
X149273700Y-97067152D01*
X149273700Y-96353979D01*
X149293385Y-96286940D01*
X149310019Y-96266298D01*
X149968733Y-95607584D01*
X150631380Y-94944937D01*
X150765580Y-94760227D01*
X150869231Y-94556798D01*
X150939784Y-94339659D01*
X150956823Y-94232078D01*
X150975500Y-94114161D01*
X150975500Y-93885837D01*
X150968711Y-93842975D01*
X150977665Y-93773682D01*
X151022661Y-93720230D01*
X151089413Y-93699590D01*
X151156727Y-93718315D01*
X151178865Y-93735896D01*
X152258941Y-94815974D01*
X152258945Y-94815977D01*
X152430995Y-94930938D01*
X152431008Y-94930945D01*
X152622175Y-95010128D01*
X152622180Y-95010130D01*
X152622184Y-95010130D01*
X152622185Y-95010131D01*
X152825132Y-95050501D01*
X152825135Y-95050501D01*
X153038179Y-95050501D01*
X153038199Y-95050500D01*
X157487486Y-95050500D01*
X157554525Y-95070185D01*
X157586290Y-95099575D01*
X157657077Y-95192922D01*
X157784416Y-95289486D01*
X157783028Y-95291315D01*
X157823315Y-95332618D01*
X157837316Y-95401071D01*
X157812087Y-95466226D01*
X157755636Y-95507398D01*
X157752759Y-95508391D01*
X157730882Y-95515640D01*
X157730875Y-95515643D01*
X157581654Y-95607684D01*
X157457684Y-95731654D01*
X157365643Y-95880875D01*
X157365641Y-95880880D01*
X157313743Y-96037500D01*
X162211256Y-96037500D01*
X162159358Y-95880880D01*
X162159356Y-95880875D01*
X162067315Y-95731654D01*
X162057842Y-95722181D01*
X162024357Y-95660858D01*
X162029341Y-95591166D01*
X162071213Y-95535233D01*
X162136677Y-95510816D01*
X162145523Y-95510500D01*
X164899167Y-95510500D01*
X164966206Y-95530185D01*
X164986848Y-95546819D01*
X165002235Y-95562206D01*
X165105009Y-95607585D01*
X165130135Y-95610500D01*
X165262483Y-95610499D01*
X165329520Y-95630183D01*
X165375275Y-95682987D01*
X165385219Y-95752145D01*
X165356195Y-95815701D01*
X165333605Y-95836074D01*
X165153922Y-95961890D01*
X165153920Y-95961891D01*
X164986891Y-96128920D01*
X164986886Y-96128926D01*
X164851402Y-96322417D01*
X164851400Y-96322421D01*
X164768594Y-96499999D01*
X164768594Y-96500000D01*
X165959174Y-96500000D01*
X165832007Y-96534075D01*
X165717993Y-96599901D01*
X165624901Y-96692993D01*
X165559075Y-96807007D01*
X165525000Y-96934174D01*
X165525000Y-97065826D01*
X165559075Y-97192993D01*
X165624901Y-97307007D01*
X165717993Y-97400099D01*
X165832007Y-97465925D01*
X165959174Y-97500000D01*
X164768593Y-97500000D01*
X164851398Y-97677576D01*
X164986894Y-97871082D01*
X165153917Y-98038105D01*
X165347421Y-98173600D01*
X165561507Y-98273429D01*
X165561516Y-98273433D01*
X165682031Y-98305725D01*
X165741692Y-98342090D01*
X165772221Y-98404937D01*
X165763926Y-98474313D01*
X165719441Y-98528190D01*
X165652889Y-98549465D01*
X165649938Y-98549500D01*
X162586521Y-98549500D01*
X162519482Y-98529815D01*
X162473727Y-98477011D01*
X162471174Y-98471009D01*
X162434361Y-98377658D01*
X162434360Y-98377657D01*
X162434360Y-98377656D01*
X162342922Y-98257077D01*
X162222343Y-98165639D01*
X162081561Y-98110122D01*
X162035926Y-98104642D01*
X161993102Y-98099500D01*
X161006898Y-98099500D01*
X160967853Y-98104188D01*
X160918438Y-98110122D01*
X160777656Y-98165639D01*
X160657077Y-98257077D01*
X160565639Y-98377656D01*
X160510122Y-98518438D01*
X160505647Y-98555711D01*
X160499500Y-98606898D01*
X160499500Y-99393102D01*
X160502706Y-99419797D01*
X160510122Y-99481561D01*
X160510122Y-99481563D01*
X160510123Y-99481564D01*
X160527722Y-99526192D01*
X160565639Y-99622343D01*
X160657077Y-99742922D01*
X160777656Y-99834360D01*
X160777657Y-99834360D01*
X160777658Y-99834361D01*
X160905171Y-99884646D01*
X160960314Y-99927551D01*
X160983507Y-99993459D01*
X160967386Y-100061444D01*
X160917070Y-100109920D01*
X160905178Y-100115351D01*
X160855185Y-100135066D01*
X160777656Y-100165639D01*
X160657077Y-100257077D01*
X160565639Y-100377656D01*
X160544795Y-100430514D01*
X160528832Y-100470991D01*
X160485928Y-100526134D01*
X160420020Y-100549327D01*
X160413479Y-100549500D01*
X159586521Y-100549500D01*
X159519482Y-100529815D01*
X159473727Y-100477011D01*
X159471174Y-100471009D01*
X159434361Y-100377658D01*
X159434360Y-100377657D01*
X159434360Y-100377656D01*
X159342922Y-100257077D01*
X159292047Y-100218498D01*
X159250524Y-100162306D01*
X159245972Y-100092584D01*
X159279837Y-100031470D01*
X159301875Y-100014155D01*
X159418345Y-99942315D01*
X159542315Y-99818345D01*
X159634356Y-99669124D01*
X159634358Y-99669119D01*
X159689504Y-99502701D01*
X159689505Y-99502694D01*
X159689781Y-99500000D01*
X157310219Y-99500000D01*
X157310494Y-99502694D01*
X157310495Y-99502701D01*
X157365641Y-99669119D01*
X157365643Y-99669124D01*
X157457684Y-99818345D01*
X157581655Y-99942316D01*
X157581659Y-99942319D01*
X157698124Y-100014156D01*
X157744849Y-100066104D01*
X157756070Y-100135066D01*
X157728227Y-100199148D01*
X157707953Y-100218497D01*
X157657079Y-100257076D01*
X157603487Y-100327746D01*
X157547294Y-100369268D01*
X157477572Y-100373819D01*
X157417003Y-100340500D01*
X155632214Y-98555711D01*
X155601793Y-98500000D01*
X157310219Y-98500000D01*
X158000000Y-98500000D01*
X159000000Y-98500000D01*
X159689780Y-98500000D01*
X159689505Y-98497305D01*
X159689504Y-98497298D01*
X159634358Y-98330880D01*
X159634356Y-98330875D01*
X159542315Y-98181654D01*
X159418345Y-98057684D01*
X159269124Y-97965643D01*
X159269119Y-97965641D01*
X159102697Y-97910494D01*
X159102690Y-97910493D01*
X159000000Y-97900002D01*
X159000000Y-98500000D01*
X158000000Y-98500000D01*
X158000000Y-97900003D01*
X157999999Y-97900002D01*
X157897302Y-97910494D01*
X157730880Y-97965641D01*
X157730875Y-97965643D01*
X157581654Y-98057684D01*
X157457684Y-98181654D01*
X157365643Y-98330875D01*
X157365641Y-98330880D01*
X157310495Y-98497298D01*
X157310494Y-98497305D01*
X157310219Y-98500000D01*
X155601793Y-98500000D01*
X155598729Y-98494388D01*
X155601236Y-98432031D01*
X155603218Y-98425500D01*
X155614946Y-98386838D01*
X155634234Y-98191000D01*
X155614946Y-97995162D01*
X155557822Y-97806849D01*
X155465057Y-97633300D01*
X155386437Y-97537500D01*
X155340218Y-97481181D01*
X155228257Y-97389299D01*
X155188100Y-97356343D01*
X155014551Y-97263578D01*
X154920394Y-97235016D01*
X154826236Y-97206453D01*
X154630400Y-97187166D01*
X154434563Y-97206453D01*
X154246246Y-97263579D01*
X154165000Y-97307007D01*
X154072700Y-97356343D01*
X154072698Y-97356344D01*
X154072697Y-97356345D01*
X153920581Y-97481181D01*
X153802556Y-97624998D01*
X153795743Y-97633300D01*
X153758968Y-97702100D01*
X153702979Y-97806846D01*
X153645853Y-97995163D01*
X153626566Y-98191000D01*
X153645853Y-98386836D01*
X153653538Y-98412169D01*
X153702978Y-98575151D01*
X153795743Y-98748700D01*
X153795745Y-98748702D01*
X153920581Y-98900818D01*
X153961530Y-98934423D01*
X154072700Y-99025657D01*
X154246249Y-99118422D01*
X154434562Y-99175546D01*
X154630400Y-99194834D01*
X154826238Y-99175546D01*
X154871432Y-99161835D01*
X154941298Y-99161210D01*
X154995111Y-99192814D01*
X157162786Y-101360489D01*
X157265513Y-101419799D01*
X157289721Y-101426284D01*
X157289724Y-101426286D01*
X157289725Y-101426286D01*
X157319847Y-101434357D01*
X157380091Y-101450500D01*
X157413479Y-101450500D01*
X157480518Y-101470185D01*
X157526273Y-101522989D01*
X157528825Y-101528990D01*
X157548944Y-101580006D01*
X157565639Y-101622343D01*
X157657077Y-101742922D01*
X157777656Y-101834360D01*
X157777657Y-101834360D01*
X157777658Y-101834361D01*
X157918436Y-101889877D01*
X158006898Y-101900500D01*
X158006903Y-101900500D01*
X158993097Y-101900500D01*
X158993102Y-101900500D01*
X159081564Y-101889877D01*
X159222342Y-101834361D01*
X159342922Y-101742922D01*
X159434361Y-101622342D01*
X159471167Y-101529008D01*
X159514072Y-101473866D01*
X159579980Y-101450673D01*
X159586521Y-101450500D01*
X160413479Y-101450500D01*
X160480518Y-101470185D01*
X160526273Y-101522989D01*
X160528825Y-101528990D01*
X160548944Y-101580006D01*
X160565639Y-101622343D01*
X160657077Y-101742922D01*
X160777656Y-101834360D01*
X160777657Y-101834360D01*
X160777658Y-101834361D01*
X160918436Y-101889877D01*
X161006898Y-101900500D01*
X161006903Y-101900500D01*
X161993097Y-101900500D01*
X161993102Y-101900500D01*
X162081564Y-101889877D01*
X162222342Y-101834361D01*
X162342922Y-101742922D01*
X162370376Y-101706718D01*
X162426566Y-101665196D01*
X162496287Y-101660643D01*
X162556860Y-101693963D01*
X163723386Y-102860489D01*
X163723387Y-102860490D01*
X163723389Y-102860491D01*
X163782693Y-102894729D01*
X163782696Y-102894732D01*
X163816937Y-102914500D01*
X163826114Y-102919799D01*
X163940691Y-102950500D01*
X164725501Y-102950500D01*
X164792540Y-102970185D01*
X164838295Y-103022989D01*
X164849501Y-103074500D01*
X164849501Y-103394856D01*
X164849502Y-103394882D01*
X164852413Y-103419987D01*
X164852415Y-103419991D01*
X164897793Y-103522764D01*
X164897794Y-103522765D01*
X164977235Y-103602206D01*
X165080009Y-103647585D01*
X165105135Y-103650500D01*
X166894864Y-103650499D01*
X166894879Y-103650497D01*
X166894882Y-103650497D01*
X166919987Y-103647586D01*
X166919988Y-103647585D01*
X166919991Y-103647585D01*
X167022765Y-103602206D01*
X167102206Y-103522765D01*
X167147585Y-103419991D01*
X167150500Y-103394865D01*
X167150499Y-101605136D01*
X167148263Y-101585853D01*
X167147586Y-101580012D01*
X167147585Y-101580010D01*
X167147585Y-101580009D01*
X167102206Y-101477235D01*
X167022765Y-101397794D01*
X167018933Y-101396102D01*
X166919992Y-101352415D01*
X166894865Y-101349500D01*
X165105143Y-101349500D01*
X165105117Y-101349502D01*
X165080012Y-101352413D01*
X165080008Y-101352415D01*
X164977235Y-101397793D01*
X164897794Y-101477234D01*
X164852415Y-101580006D01*
X164852415Y-101580008D01*
X164849500Y-101605131D01*
X164849500Y-101925500D01*
X164829815Y-101992539D01*
X164777011Y-102038294D01*
X164725500Y-102049500D01*
X164237965Y-102049500D01*
X164170926Y-102029815D01*
X164150284Y-102013181D01*
X162776616Y-100639513D01*
X162776614Y-100639511D01*
X162725250Y-100609856D01*
X162673888Y-100580201D01*
X162661780Y-100576957D01*
X162649673Y-100573713D01*
X162649670Y-100573712D01*
X162610875Y-100563317D01*
X162559309Y-100549500D01*
X162559308Y-100549500D01*
X162555714Y-100548537D01*
X162496053Y-100512172D01*
X162472453Y-100474253D01*
X162434361Y-100377658D01*
X162434361Y-100377657D01*
X162342922Y-100257077D01*
X162222343Y-100165639D01*
X162184339Y-100150652D01*
X162094826Y-100115353D01*
X162039685Y-100072449D01*
X162016492Y-100006541D01*
X162032612Y-99938557D01*
X162082929Y-99890080D01*
X162094814Y-99884651D01*
X162222342Y-99834361D01*
X162342922Y-99742922D01*
X162434361Y-99622342D01*
X162471167Y-99529008D01*
X162514072Y-99473866D01*
X162579980Y-99450673D01*
X162586521Y-99450500D01*
X168059306Y-99450500D01*
X168059309Y-99450500D01*
X168173886Y-99419799D01*
X168276613Y-99360489D01*
X168360489Y-99276613D01*
X168419799Y-99173886D01*
X168450500Y-99059309D01*
X168450500Y-94940691D01*
X168419799Y-94826114D01*
X168368126Y-94736614D01*
X168360489Y-94723386D01*
X167736614Y-94099511D01*
X167675854Y-94064431D01*
X167633888Y-94040201D01*
X167621780Y-94036957D01*
X167609673Y-94033713D01*
X167609671Y-94033712D01*
X167525535Y-94011168D01*
X167465875Y-93974803D01*
X167454527Y-93960284D01*
X167340977Y-93790345D01*
X167340974Y-93790341D01*
X167211818Y-93661185D01*
X167178333Y-93599862D01*
X167175499Y-93573504D01*
X167175499Y-93565143D01*
X167175499Y-93565136D01*
X167175497Y-93565117D01*
X167172586Y-93540012D01*
X167172585Y-93540010D01*
X167172585Y-93540009D01*
X167127206Y-93437235D01*
X167111819Y-93421848D01*
X167078334Y-93360525D01*
X167075500Y-93334167D01*
X167075500Y-91754210D01*
X167077027Y-91734812D01*
X167082495Y-91700287D01*
X167100500Y-91586611D01*
X167100500Y-91413389D01*
X167073402Y-91242299D01*
X167019873Y-91077555D01*
X166941232Y-90923212D01*
X166839414Y-90783072D01*
X166716928Y-90660586D01*
X166576788Y-90558768D01*
X166422445Y-90480127D01*
X166257701Y-90426598D01*
X166257699Y-90426597D01*
X166257698Y-90426597D01*
X166126271Y-90405781D01*
X166086611Y-90399500D01*
X166086610Y-90399500D01*
X155290047Y-90399500D01*
X155223008Y-90379815D01*
X155202366Y-90363181D01*
X152847221Y-88008036D01*
X152847219Y-88008034D01*
X152681611Y-87887713D01*
X152499218Y-87794780D01*
X152304535Y-87731523D01*
X152304533Y-87731522D01*
X152304531Y-87731522D01*
X152163364Y-87709163D01*
X152102352Y-87699500D01*
X151897648Y-87699500D01*
X151850779Y-87706923D01*
X151695468Y-87731522D01*
X151500779Y-87794781D01*
X151318387Y-87887714D01*
X151318378Y-87887720D01*
X151265941Y-87925818D01*
X151200135Y-87949298D01*
X151193056Y-87949500D01*
X145674500Y-87949500D01*
X145607461Y-87929815D01*
X145561706Y-87877011D01*
X145550500Y-87825500D01*
X145550500Y-76948993D01*
X145570185Y-76881954D01*
X145586819Y-76861312D01*
X145736875Y-76711256D01*
X145916135Y-76531995D01*
X145958320Y-76504325D01*
X146072342Y-76459361D01*
X146192922Y-76367922D01*
X146248892Y-76294115D01*
X146289486Y-76240584D01*
X146291317Y-76241972D01*
X146332607Y-76201689D01*
X146401058Y-76187682D01*
X146466216Y-76212905D01*
X146507394Y-76269351D01*
X146508391Y-76272241D01*
X146515640Y-76294115D01*
X146515643Y-76294124D01*
X146607684Y-76443345D01*
X146731654Y-76567315D01*
X146880875Y-76659356D01*
X146880880Y-76659358D01*
X147037500Y-76711256D01*
X148037500Y-76711256D01*
X148194119Y-76659358D01*
X148194124Y-76659356D01*
X148343345Y-76567315D01*
X148467315Y-76443345D01*
X148559356Y-76294124D01*
X148559358Y-76294119D01*
X148614505Y-76127697D01*
X148614506Y-76127690D01*
X148624999Y-76024986D01*
X148625000Y-76024973D01*
X148625000Y-76000000D01*
X148037500Y-76000000D01*
X148037500Y-76711256D01*
X147037500Y-76711256D01*
X147037500Y-75500000D01*
X149810219Y-75500000D01*
X149810494Y-75502694D01*
X149810495Y-75502701D01*
X149865641Y-75669119D01*
X149865643Y-75669124D01*
X149957684Y-75818345D01*
X150081654Y-75942315D01*
X150230875Y-76034356D01*
X150230880Y-76034358D01*
X150397302Y-76089505D01*
X150499999Y-76099997D01*
X150500000Y-76099996D01*
X150500000Y-75500000D01*
X149810219Y-75500000D01*
X147037500Y-75500000D01*
X147037500Y-75000000D01*
X148037500Y-75000000D01*
X148624999Y-75000000D01*
X148624999Y-74975028D01*
X148624998Y-74975013D01*
X148614505Y-74872302D01*
X148559358Y-74705880D01*
X148559356Y-74705875D01*
X148467315Y-74556654D01*
X148410661Y-74500000D01*
X149810219Y-74500000D01*
X151376000Y-74500000D01*
X151443039Y-74519685D01*
X151488794Y-74572489D01*
X151500000Y-74624000D01*
X151500000Y-76099995D01*
X151602695Y-76089506D01*
X151602698Y-76089505D01*
X151769119Y-76034358D01*
X151769124Y-76034356D01*
X151918345Y-75942315D01*
X152042316Y-75818344D01*
X152046798Y-75812677D01*
X152049234Y-75814603D01*
X152090771Y-75777185D01*
X152159725Y-75765911D01*
X152219372Y-75790162D01*
X152277656Y-75834360D01*
X152277657Y-75834360D01*
X152277658Y-75834361D01*
X152418436Y-75889877D01*
X152506898Y-75900500D01*
X152506903Y-75900500D01*
X153493097Y-75900500D01*
X153493102Y-75900500D01*
X153581564Y-75889877D01*
X153722342Y-75834361D01*
X153842922Y-75742922D01*
X153870376Y-75706718D01*
X153926566Y-75665196D01*
X153996287Y-75660643D01*
X154056859Y-75693962D01*
X158723386Y-80360490D01*
X158826113Y-80419799D01*
X158850321Y-80426284D01*
X158850324Y-80426286D01*
X158850325Y-80426286D01*
X158880447Y-80434357D01*
X158940691Y-80450500D01*
X158940693Y-80450500D01*
X168059306Y-80450500D01*
X168059309Y-80450500D01*
X168173886Y-80419799D01*
X168276613Y-80360489D01*
X168360489Y-80276613D01*
X168419799Y-80173886D01*
X168450500Y-80059309D01*
X168450500Y-67440691D01*
X168419799Y-67326114D01*
X168419799Y-67326113D01*
X168360489Y-67223386D01*
X167526614Y-66389511D01*
X167475250Y-66359856D01*
X167423888Y-66330201D01*
X167411780Y-66326957D01*
X167399673Y-66323713D01*
X167399671Y-66323712D01*
X167399669Y-66323711D01*
X167378747Y-66318105D01*
X167319087Y-66281739D01*
X167288559Y-66218892D01*
X167288370Y-66178935D01*
X167300500Y-66102352D01*
X167300500Y-65897649D01*
X167268477Y-65695466D01*
X167205221Y-65500782D01*
X167205221Y-65500781D01*
X167173038Y-65437620D01*
X167112287Y-65318390D01*
X167096915Y-65297232D01*
X166991971Y-65152788D01*
X166991967Y-65152783D01*
X166347221Y-64508036D01*
X166347220Y-64508035D01*
X166347219Y-64508034D01*
X166181611Y-64387713D01*
X166090414Y-64341246D01*
X165999223Y-64294781D01*
X165952515Y-64279604D01*
X165901876Y-64263151D01*
X165878003Y-64255394D01*
X165804535Y-64231522D01*
X165629995Y-64203878D01*
X165602352Y-64199500D01*
X160897648Y-64199500D01*
X160830254Y-64210174D01*
X160695464Y-64231523D01*
X160500784Y-64294777D01*
X160500781Y-64294778D01*
X160318386Y-64387715D01*
X160152788Y-64508027D01*
X160012365Y-64648450D01*
X160012364Y-64648449D01*
X160012360Y-64648454D01*
X160008031Y-64652782D01*
X160008031Y-64652783D01*
X159997635Y-64663178D01*
X159936315Y-64696665D01*
X159909953Y-64699500D01*
X153397648Y-64699500D01*
X153357367Y-64705880D01*
X153195464Y-64731523D01*
X153000784Y-64794777D01*
X153000781Y-64794778D01*
X152818386Y-64887715D01*
X152652788Y-65008027D01*
X152512372Y-65148443D01*
X152512329Y-65148483D01*
X152008032Y-65652782D01*
X152008028Y-65652787D01*
X151887715Y-65818385D01*
X151868990Y-65855135D01*
X151815219Y-65960667D01*
X151767245Y-66011463D01*
X151699424Y-66028258D01*
X151633289Y-66005721D01*
X151626493Y-66000000D01*
X151037500Y-66000000D01*
X151037500Y-66711256D01*
X151194119Y-66659358D01*
X151194124Y-66659356D01*
X151343345Y-66567315D01*
X151467316Y-66443344D01*
X151467317Y-66443342D01*
X151469960Y-66439059D01*
X151521906Y-66392333D01*
X151590869Y-66381109D01*
X151654952Y-66408951D01*
X151693809Y-66467019D01*
X151699500Y-66504153D01*
X151699500Y-67499044D01*
X151697118Y-67523232D01*
X151689500Y-67561534D01*
X151689500Y-67768469D01*
X151729868Y-67971412D01*
X151729870Y-67971421D01*
X151734785Y-67983285D01*
X151742255Y-68052755D01*
X151730712Y-68087030D01*
X151729353Y-68089696D01*
X151729353Y-68089697D01*
X151714500Y-68183475D01*
X151714500Y-68446517D01*
X151729354Y-68540305D01*
X151751468Y-68583705D01*
X151764364Y-68652374D01*
X151751468Y-68696294D01*
X151729354Y-68739696D01*
X151729352Y-68739700D01*
X151714500Y-68833475D01*
X151714500Y-69009240D01*
X151694815Y-69076279D01*
X151688876Y-69084726D01*
X151590901Y-69212410D01*
X151590900Y-69212412D01*
X151530444Y-69358368D01*
X151522987Y-69415000D01*
X151889967Y-69415000D01*
X151946262Y-69428515D01*
X151989698Y-69450647D01*
X152083475Y-69465499D01*
X152083481Y-69465500D01*
X153396518Y-69465499D01*
X153490304Y-69450646D01*
X153522750Y-69434113D01*
X153533739Y-69428515D01*
X153590033Y-69415000D01*
X153957010Y-69415000D01*
X153957011Y-69414998D01*
X153949557Y-69358372D01*
X153949555Y-69358366D01*
X153889100Y-69212412D01*
X153889098Y-69212410D01*
X153791123Y-69084726D01*
X153765929Y-69019557D01*
X153765499Y-69009256D01*
X153765499Y-68839499D01*
X153785184Y-68772461D01*
X153837988Y-68726706D01*
X153889499Y-68715500D01*
X154813723Y-68715500D01*
X154880762Y-68735185D01*
X154926517Y-68787989D01*
X154936461Y-68857147D01*
X154931429Y-68878504D01*
X154878742Y-69037499D01*
X154878743Y-69037500D01*
X162301256Y-69037500D01*
X162249358Y-68880880D01*
X162249356Y-68880875D01*
X162157315Y-68731654D01*
X162033345Y-68607684D01*
X161884124Y-68515643D01*
X161884121Y-68515642D01*
X161862241Y-68508392D01*
X161804797Y-68468619D01*
X161777974Y-68404103D01*
X161790289Y-68335327D01*
X161831605Y-68290832D01*
X161830584Y-68289486D01*
X161957922Y-68192922D01*
X161965086Y-68183475D01*
X162049361Y-68072342D01*
X162094323Y-67958323D01*
X162121997Y-67916133D01*
X162201314Y-67836818D01*
X162262637Y-67803333D01*
X162288994Y-67800500D01*
X164874167Y-67800500D01*
X164941206Y-67820185D01*
X164961847Y-67836818D01*
X164977235Y-67852206D01*
X165080009Y-67897585D01*
X165105135Y-67900500D01*
X165237483Y-67900499D01*
X165304520Y-67920183D01*
X165350275Y-67972987D01*
X165360219Y-68042145D01*
X165331195Y-68105701D01*
X165308605Y-68126074D01*
X165128922Y-68251890D01*
X165128920Y-68251891D01*
X164961891Y-68418920D01*
X164961886Y-68418926D01*
X164826402Y-68612417D01*
X164826400Y-68612421D01*
X164743594Y-68789999D01*
X164743594Y-68790000D01*
X165934174Y-68790000D01*
X165807007Y-68824075D01*
X165692993Y-68889901D01*
X165599901Y-68982993D01*
X165534075Y-69097007D01*
X165500000Y-69224174D01*
X165500000Y-69355826D01*
X165534075Y-69482993D01*
X165599901Y-69597007D01*
X165692993Y-69690099D01*
X165807007Y-69755925D01*
X165934174Y-69790000D01*
X166065826Y-69790000D01*
X166192993Y-69755925D01*
X166307007Y-69690099D01*
X166400099Y-69597007D01*
X166465925Y-69482993D01*
X166500000Y-69355826D01*
X166500000Y-70546405D01*
X166677575Y-70463601D01*
X166677577Y-70463600D01*
X166871082Y-70328105D01*
X167038105Y-70161082D01*
X167173600Y-69967578D01*
X167273429Y-69753492D01*
X167273433Y-69753483D01*
X167305725Y-69632968D01*
X167342090Y-69573307D01*
X167404937Y-69542778D01*
X167474312Y-69551073D01*
X167528190Y-69595558D01*
X167549465Y-69662110D01*
X167549500Y-69665061D01*
X167549500Y-72907381D01*
X167529815Y-72974420D01*
X167477011Y-73020175D01*
X167407853Y-73030119D01*
X167344297Y-73001094D01*
X167309318Y-72950714D01*
X167293354Y-72907913D01*
X167293350Y-72907906D01*
X167207190Y-72792812D01*
X167207187Y-72792809D01*
X167092093Y-72706649D01*
X167092086Y-72706645D01*
X166957379Y-72656403D01*
X166957372Y-72656401D01*
X166897844Y-72650000D01*
X166500000Y-72650000D01*
X166500000Y-73934174D01*
X166465925Y-73807007D01*
X166400099Y-73692993D01*
X166307007Y-73599901D01*
X166192993Y-73534075D01*
X166065826Y-73500000D01*
X165934174Y-73500000D01*
X165807007Y-73534075D01*
X165692993Y-73599901D01*
X165599901Y-73692993D01*
X165534075Y-73807007D01*
X165500000Y-73934174D01*
X165500000Y-74065826D01*
X165534075Y-74192993D01*
X165599901Y-74307007D01*
X165692993Y-74400099D01*
X165807007Y-74465925D01*
X165934174Y-74500000D01*
X166065826Y-74500000D01*
X166192993Y-74465925D01*
X166307007Y-74400099D01*
X166400099Y-74307007D01*
X166465925Y-74192993D01*
X166500000Y-74065826D01*
X166500000Y-75350000D01*
X166897828Y-75350000D01*
X166897844Y-75349999D01*
X166957372Y-75343598D01*
X166957379Y-75343596D01*
X167092086Y-75293354D01*
X167092093Y-75293350D01*
X167207187Y-75207190D01*
X167207190Y-75207187D01*
X167293350Y-75092093D01*
X167293355Y-75092084D01*
X167309318Y-75049286D01*
X167351189Y-74993352D01*
X167416653Y-74968934D01*
X167484926Y-74983785D01*
X167534332Y-75033190D01*
X167549500Y-75092618D01*
X167549500Y-79425500D01*
X167529815Y-79492539D01*
X167477011Y-79538294D01*
X167425500Y-79549500D01*
X159237966Y-79549500D01*
X159170927Y-79529815D01*
X159150285Y-79513181D01*
X154276616Y-74639513D01*
X154276614Y-74639511D01*
X154220127Y-74606898D01*
X154173888Y-74580201D01*
X154161780Y-74576957D01*
X154149673Y-74573713D01*
X154149670Y-74573712D01*
X154086008Y-74556654D01*
X154059309Y-74549500D01*
X154059308Y-74549500D01*
X154055714Y-74548537D01*
X153996053Y-74512172D01*
X153972453Y-74474253D01*
X153934361Y-74377658D01*
X153934361Y-74377657D01*
X153842922Y-74257077D01*
X153722343Y-74165639D01*
X153675942Y-74147341D01*
X153594826Y-74115353D01*
X153539685Y-74072449D01*
X153516492Y-74006541D01*
X153532612Y-73938557D01*
X153582929Y-73890080D01*
X153594814Y-73884651D01*
X153722342Y-73834361D01*
X153842922Y-73742922D01*
X153870376Y-73706718D01*
X153926566Y-73665196D01*
X153996287Y-73660643D01*
X154056859Y-73693962D01*
X158723386Y-78360490D01*
X158826113Y-78419799D01*
X158850321Y-78426284D01*
X158850324Y-78426286D01*
X158850325Y-78426286D01*
X158880447Y-78434357D01*
X158940691Y-78450500D01*
X164725501Y-78450500D01*
X164792540Y-78470185D01*
X164838295Y-78522989D01*
X164849501Y-78574500D01*
X164849501Y-78894856D01*
X164849502Y-78894882D01*
X164852413Y-78919987D01*
X164852415Y-78919991D01*
X164897793Y-79022764D01*
X164897794Y-79022765D01*
X164977235Y-79102206D01*
X165080009Y-79147585D01*
X165105135Y-79150500D01*
X166894864Y-79150499D01*
X166894879Y-79150497D01*
X166894882Y-79150497D01*
X166919987Y-79147586D01*
X166919988Y-79147585D01*
X166919991Y-79147585D01*
X167022765Y-79102206D01*
X167102206Y-79022765D01*
X167147585Y-78919991D01*
X167150500Y-78894865D01*
X167150499Y-77105136D01*
X167150497Y-77105117D01*
X167147586Y-77080012D01*
X167147585Y-77080010D01*
X167147585Y-77080009D01*
X167102206Y-76977235D01*
X167022765Y-76897794D01*
X166986891Y-76881954D01*
X166919992Y-76852415D01*
X166894865Y-76849500D01*
X165105143Y-76849500D01*
X165105117Y-76849502D01*
X165080012Y-76852413D01*
X165080008Y-76852415D01*
X164977235Y-76897793D01*
X164897794Y-76977234D01*
X164852415Y-77080006D01*
X164852415Y-77080008D01*
X164849500Y-77105131D01*
X164849500Y-77425500D01*
X164829815Y-77492539D01*
X164777011Y-77538294D01*
X164725500Y-77549500D01*
X159237966Y-77549500D01*
X159170927Y-77529815D01*
X159150285Y-77513181D01*
X156534947Y-74897844D01*
X164650000Y-74897844D01*
X164656401Y-74957372D01*
X164656403Y-74957379D01*
X164706645Y-75092086D01*
X164706649Y-75092093D01*
X164792809Y-75207187D01*
X164792812Y-75207190D01*
X164907906Y-75293350D01*
X164907913Y-75293354D01*
X165042620Y-75343596D01*
X165042627Y-75343598D01*
X165102155Y-75349999D01*
X165102172Y-75350000D01*
X165500000Y-75350000D01*
X165500000Y-74500000D01*
X164650000Y-74500000D01*
X164650000Y-74897844D01*
X156534947Y-74897844D01*
X154276616Y-72639513D01*
X154276614Y-72639511D01*
X154207314Y-72599500D01*
X154173888Y-72580201D01*
X154161780Y-72576957D01*
X154149673Y-72573713D01*
X154149670Y-72573712D01*
X154110875Y-72563317D01*
X154059309Y-72549500D01*
X154059308Y-72549500D01*
X154055714Y-72548537D01*
X153996053Y-72512172D01*
X153972453Y-72474253D01*
X153934361Y-72377658D01*
X153934361Y-72377657D01*
X153842922Y-72257077D01*
X153722343Y-72165639D01*
X153646704Y-72135811D01*
X153581564Y-72110123D01*
X153581562Y-72110122D01*
X153581558Y-72110121D01*
X153559714Y-72107498D01*
X153495500Y-72079960D01*
X153456368Y-72022077D01*
X153450500Y-71984383D01*
X153450500Y-71496914D01*
X153470185Y-71429875D01*
X153518203Y-71386430D01*
X153603342Y-71343050D01*
X153693050Y-71253342D01*
X153750646Y-71140304D01*
X153750646Y-71140302D01*
X153755076Y-71131609D01*
X153756686Y-71132429D01*
X153789482Y-71084460D01*
X153853839Y-71057257D01*
X153922686Y-71069167D01*
X153955664Y-71092767D01*
X155513181Y-72650284D01*
X155546666Y-72711607D01*
X155549500Y-72737965D01*
X155549500Y-73059309D01*
X155571554Y-73141614D01*
X155571553Y-73141614D01*
X155571554Y-73141616D01*
X155580199Y-73173883D01*
X155580200Y-73173885D01*
X155580201Y-73173887D01*
X155639511Y-73276614D01*
X156260886Y-73897990D01*
X156363613Y-73957299D01*
X156387820Y-73963784D01*
X156387823Y-73963786D01*
X156387824Y-73963786D01*
X156417412Y-73971714D01*
X156477073Y-74008079D01*
X156500673Y-74045998D01*
X156540638Y-74147341D01*
X156632077Y-74267922D01*
X156752656Y-74359360D01*
X156752657Y-74359360D01*
X156752658Y-74359361D01*
X156893436Y-74414877D01*
X156981898Y-74425500D01*
X156981903Y-74425500D01*
X158018097Y-74425500D01*
X158018102Y-74425500D01*
X158106564Y-74414877D01*
X158247342Y-74359361D01*
X158367922Y-74267922D01*
X158459361Y-74147342D01*
X158465368Y-74132108D01*
X158491238Y-74066510D01*
X158534143Y-74011366D01*
X158600051Y-73988173D01*
X158606592Y-73988000D01*
X158928267Y-73988000D01*
X158995306Y-74007685D01*
X159041061Y-74060489D01*
X159043622Y-74066510D01*
X159065639Y-74122343D01*
X159157077Y-74242922D01*
X159277656Y-74334360D01*
X159277657Y-74334360D01*
X159277658Y-74334361D01*
X159418436Y-74389877D01*
X159506898Y-74400500D01*
X159506903Y-74400500D01*
X160493097Y-74400500D01*
X160493102Y-74400500D01*
X160581564Y-74389877D01*
X160722342Y-74334361D01*
X160842922Y-74242922D01*
X160934361Y-74122342D01*
X160989877Y-73981564D01*
X161000500Y-73893102D01*
X161000500Y-73106898D01*
X160999930Y-73102155D01*
X164650000Y-73102155D01*
X164650000Y-73500000D01*
X165500000Y-73500000D01*
X165500000Y-72650000D01*
X165102155Y-72650000D01*
X165042627Y-72656401D01*
X165042620Y-72656403D01*
X164907913Y-72706645D01*
X164907906Y-72706649D01*
X164792812Y-72792809D01*
X164792809Y-72792812D01*
X164706649Y-72907906D01*
X164706645Y-72907913D01*
X164656403Y-73042620D01*
X164656401Y-73042627D01*
X164650000Y-73102155D01*
X160999930Y-73102155D01*
X160989877Y-73018436D01*
X160934361Y-72877658D01*
X160934360Y-72877657D01*
X160934360Y-72877656D01*
X160842922Y-72757077D01*
X160792047Y-72718498D01*
X160750524Y-72662306D01*
X160745972Y-72592584D01*
X160779837Y-72531470D01*
X160801875Y-72514155D01*
X160918345Y-72442315D01*
X161042315Y-72318345D01*
X161134356Y-72169124D01*
X161134358Y-72169119D01*
X161189504Y-72002701D01*
X161189505Y-72002694D01*
X161189781Y-72000000D01*
X158801745Y-72000000D01*
X158734706Y-71980315D01*
X158715898Y-71962500D01*
X156284080Y-71962500D01*
X156239473Y-71997104D01*
X156169877Y-72003285D01*
X156107988Y-71970859D01*
X156106469Y-71969365D01*
X155099604Y-70962500D01*
X156288743Y-70962500D01*
X158721255Y-70962500D01*
X158788294Y-70982185D01*
X158809287Y-71000000D01*
X161189780Y-71000000D01*
X161189505Y-70997305D01*
X161189504Y-70997298D01*
X161134358Y-70830880D01*
X161134355Y-70830873D01*
X161124007Y-70814097D01*
X161105566Y-70746704D01*
X161126488Y-70680041D01*
X161180130Y-70635271D01*
X161229545Y-70624999D01*
X161614972Y-70624999D01*
X161614986Y-70624998D01*
X161717697Y-70614505D01*
X161884119Y-70559358D01*
X161884124Y-70559356D01*
X162033345Y-70467315D01*
X162157315Y-70343345D01*
X162249356Y-70194124D01*
X162249358Y-70194119D01*
X162301257Y-70037500D01*
X156590000Y-70037500D01*
X156590000Y-70544000D01*
X156570315Y-70611039D01*
X156517511Y-70656794D01*
X156466000Y-70668000D01*
X156425687Y-70668000D01*
X156340643Y-70805875D01*
X156340641Y-70805880D01*
X156288743Y-70962500D01*
X155099604Y-70962500D01*
X154174604Y-70037500D01*
X154878743Y-70037500D01*
X154930641Y-70194119D01*
X154930643Y-70194124D01*
X155022684Y-70343345D01*
X155146654Y-70467315D01*
X155295875Y-70559356D01*
X155295880Y-70559358D01*
X155462302Y-70614505D01*
X155462309Y-70614506D01*
X155565019Y-70624999D01*
X155590000Y-70624998D01*
X155590000Y-70037500D01*
X154878743Y-70037500D01*
X154174604Y-70037500D01*
X154041617Y-69904513D01*
X154041614Y-69904511D01*
X154023788Y-69894219D01*
X153975574Y-69843652D01*
X153973725Y-69834058D01*
X153957012Y-69815000D01*
X153836233Y-69815000D01*
X153828604Y-69814500D01*
X153824309Y-69814500D01*
X153589052Y-69814500D01*
X153532758Y-69800985D01*
X153511199Y-69790000D01*
X164743593Y-69790000D01*
X164826398Y-69967576D01*
X164961894Y-70161082D01*
X165128917Y-70328105D01*
X165322422Y-70463600D01*
X165322424Y-70463601D01*
X165499999Y-70546405D01*
X165500000Y-70546405D01*
X165500000Y-69790000D01*
X164743593Y-69790000D01*
X153511199Y-69790000D01*
X153490301Y-69779352D01*
X153396524Y-69764500D01*
X152083482Y-69764500D01*
X151989695Y-69779354D01*
X151946261Y-69801485D01*
X151889967Y-69815000D01*
X151522990Y-69815000D01*
X151522988Y-69815001D01*
X151530442Y-69871627D01*
X151530444Y-69871633D01*
X151590899Y-70017586D01*
X151688876Y-70145271D01*
X151714070Y-70210441D01*
X151714500Y-70220757D01*
X151714500Y-70396517D01*
X151729354Y-70490305D01*
X151751468Y-70533705D01*
X151764364Y-70602374D01*
X151751468Y-70646294D01*
X151729354Y-70689696D01*
X151729352Y-70689700D01*
X151714500Y-70783475D01*
X151714500Y-71046517D01*
X151725292Y-71114657D01*
X151729354Y-71140304D01*
X151786950Y-71253342D01*
X151786952Y-71253344D01*
X151786954Y-71253347D01*
X151876652Y-71343045D01*
X151876654Y-71343046D01*
X151876658Y-71343050D01*
X151961794Y-71386429D01*
X151989698Y-71400647D01*
X152083475Y-71415499D01*
X152083481Y-71415500D01*
X152425500Y-71415499D01*
X152492539Y-71435183D01*
X152538294Y-71487987D01*
X152549500Y-71539499D01*
X152549500Y-71984383D01*
X152529815Y-72051422D01*
X152477011Y-72097177D01*
X152440286Y-72107498D01*
X152418441Y-72110121D01*
X152277656Y-72165639D01*
X152157077Y-72257077D01*
X152098804Y-72333923D01*
X152042611Y-72375447D01*
X151972890Y-72379998D01*
X151911776Y-72346133D01*
X151901196Y-72333923D01*
X151842922Y-72257077D01*
X151722343Y-72165639D01*
X151581561Y-72110122D01*
X151535926Y-72104642D01*
X151493102Y-72099500D01*
X150506898Y-72099500D01*
X150467853Y-72104188D01*
X150418438Y-72110122D01*
X150277656Y-72165639D01*
X150157077Y-72257077D01*
X150065639Y-72377656D01*
X150010122Y-72518438D01*
X150004399Y-72566104D01*
X149999500Y-72606898D01*
X149999500Y-73393102D01*
X150005126Y-73439954D01*
X150010122Y-73481561D01*
X150065639Y-73622343D01*
X150157077Y-73742922D01*
X150207952Y-73781501D01*
X150249475Y-73837693D01*
X150254027Y-73907414D01*
X150220163Y-73968528D01*
X150198125Y-73985843D01*
X150081656Y-74057682D01*
X149957684Y-74181654D01*
X149865643Y-74330875D01*
X149865641Y-74330880D01*
X149810495Y-74497298D01*
X149810494Y-74497305D01*
X149810219Y-74500000D01*
X148410661Y-74500000D01*
X148343345Y-74432684D01*
X148194120Y-74340641D01*
X148037500Y-74288742D01*
X148037500Y-75000000D01*
X147037500Y-75000000D01*
X147037500Y-74288742D01*
X146880879Y-74340641D01*
X146731654Y-74432684D01*
X146724681Y-74439658D01*
X146663358Y-74473143D01*
X146593666Y-74468159D01*
X146537733Y-74426287D01*
X146513316Y-74360823D01*
X146513000Y-74351977D01*
X146513000Y-73889793D01*
X146532685Y-73822754D01*
X146585489Y-73776999D01*
X146654647Y-73767055D01*
X146718203Y-73796080D01*
X146735805Y-73814869D01*
X146757078Y-73842922D01*
X146877656Y-73934360D01*
X146877657Y-73934360D01*
X146877658Y-73934361D01*
X147018436Y-73989877D01*
X147106898Y-74000500D01*
X147106903Y-74000500D01*
X147893097Y-74000500D01*
X147893102Y-74000500D01*
X147981564Y-73989877D01*
X148122342Y-73934361D01*
X148242922Y-73842922D01*
X148334361Y-73722342D01*
X148389877Y-73581564D01*
X148400500Y-73493102D01*
X148400500Y-72506898D01*
X148389877Y-72418436D01*
X148334361Y-72277658D01*
X148334360Y-72277657D01*
X148334360Y-72277656D01*
X148242922Y-72157077D01*
X148122343Y-72065639D01*
X148011877Y-72022077D01*
X147981564Y-72010123D01*
X147981562Y-72010122D01*
X147981558Y-72010121D01*
X147924715Y-72003295D01*
X147860501Y-71975758D01*
X147821368Y-71917875D01*
X147815500Y-71880180D01*
X147815500Y-71738999D01*
X147835185Y-71671960D01*
X147887989Y-71626205D01*
X147939500Y-71614999D01*
X148240000Y-71614999D01*
X148640000Y-71614999D01*
X149104324Y-71614999D01*
X149221628Y-71599557D01*
X149221633Y-71599555D01*
X149367585Y-71539100D01*
X149492924Y-71442924D01*
X149589100Y-71317586D01*
X149649555Y-71171631D01*
X149657012Y-71115000D01*
X148640000Y-71115000D01*
X148640000Y-71614999D01*
X148240000Y-71614999D01*
X148240000Y-70889499D01*
X148259685Y-70822460D01*
X148312489Y-70776705D01*
X148364000Y-70765499D01*
X149096517Y-70765499D01*
X149096518Y-70765499D01*
X149190304Y-70750646D01*
X149222750Y-70734113D01*
X149233739Y-70728515D01*
X149290033Y-70715000D01*
X149657010Y-70715000D01*
X149657011Y-70714998D01*
X149649557Y-70658372D01*
X149649555Y-70658366D01*
X149589100Y-70512412D01*
X149589098Y-70512410D01*
X149491123Y-70384726D01*
X149465929Y-70319557D01*
X149465499Y-70309256D01*
X149465499Y-70133482D01*
X149450646Y-70039696D01*
X149428530Y-69996292D01*
X149415635Y-69927626D01*
X149428532Y-69883704D01*
X149434686Y-69871627D01*
X149450646Y-69840304D01*
X149450646Y-69840302D01*
X149450647Y-69840301D01*
X149464010Y-69755925D01*
X149465500Y-69746519D01*
X149465499Y-69483482D01*
X149450646Y-69389696D01*
X149450645Y-69389694D01*
X149449119Y-69380057D01*
X149451326Y-69379707D01*
X149449831Y-69327572D01*
X149448942Y-69327396D01*
X149449715Y-69323509D01*
X149449704Y-69323123D01*
X149449999Y-69322078D01*
X149470483Y-69219098D01*
X149490500Y-69118465D01*
X149490500Y-68861535D01*
X149490500Y-67561535D01*
X149490500Y-67561534D01*
X149490500Y-66625523D01*
X149510185Y-66558484D01*
X149562989Y-66512729D01*
X149632147Y-66502785D01*
X149695703Y-66531810D01*
X149702181Y-66537842D01*
X149731654Y-66567315D01*
X149880875Y-66659356D01*
X149880880Y-66659358D01*
X150037500Y-66711256D01*
X150037500Y-65000000D01*
X151037500Y-65000000D01*
X151624999Y-65000000D01*
X151624999Y-64975028D01*
X151624998Y-64975013D01*
X151614505Y-64872302D01*
X151559358Y-64705880D01*
X151559356Y-64705875D01*
X151467315Y-64556654D01*
X151343345Y-64432684D01*
X151218273Y-64355539D01*
X151171549Y-64303591D01*
X151160326Y-64234628D01*
X151188170Y-64170546D01*
X151218273Y-64144461D01*
X151343345Y-64067315D01*
X151467315Y-63943345D01*
X151559356Y-63794124D01*
X151559358Y-63794119D01*
X151614505Y-63627697D01*
X151614506Y-63627690D01*
X151624999Y-63524986D01*
X151625000Y-63524973D01*
X151625000Y-63500000D01*
X151037500Y-63500000D01*
X151037500Y-65000000D01*
X150037500Y-65000000D01*
X150037500Y-62500000D01*
X151037500Y-62500000D01*
X151624999Y-62500000D01*
X151624999Y-62475028D01*
X151624998Y-62475013D01*
X151614505Y-62372302D01*
X151559358Y-62205880D01*
X151559356Y-62205875D01*
X151467315Y-62056654D01*
X151343345Y-61932684D01*
X151194120Y-61840641D01*
X151037500Y-61788742D01*
X151037500Y-62500000D01*
X150037500Y-62500000D01*
X150037500Y-61788742D01*
X149880879Y-61840641D01*
X149731654Y-61932684D01*
X149607684Y-62056654D01*
X149515643Y-62205875D01*
X149515640Y-62205884D01*
X149508391Y-62227759D01*
X149468618Y-62285203D01*
X149404102Y-62312025D01*
X149335326Y-62299709D01*
X149290834Y-62258393D01*
X149289486Y-62259416D01*
X149192922Y-62132077D01*
X149072343Y-62040639D01*
X148931561Y-61985122D01*
X148885926Y-61979642D01*
X148843102Y-61974500D01*
X148843097Y-61974500D01*
X148703863Y-61974500D01*
X148679671Y-61972117D01*
X148565967Y-61949499D01*
X148565965Y-61949499D01*
X148359035Y-61949499D01*
X148359033Y-61949499D01*
X148245329Y-61972117D01*
X148221137Y-61974500D01*
X148081898Y-61974500D01*
X148042853Y-61979188D01*
X147993438Y-61985122D01*
X147852656Y-62040639D01*
X147732077Y-62132077D01*
X147640638Y-62252658D01*
X147640637Y-62252660D01*
X147585123Y-62393434D01*
X147583196Y-62401058D01*
X147566080Y-62439561D01*
X147509059Y-62524901D01*
X147429870Y-62716079D01*
X147429868Y-62716087D01*
X147389500Y-62919030D01*
X147389500Y-66490500D01*
X147369815Y-66557539D01*
X147317011Y-66603294D01*
X147265500Y-66614500D01*
X146722100Y-66614500D01*
X146722080Y-66614499D01*
X146715966Y-66614499D01*
X146509035Y-66614499D01*
X146509033Y-66614499D01*
X146348043Y-66646523D01*
X146320002Y-66652100D01*
X146306078Y-66654870D01*
X146288864Y-66662001D01*
X146114904Y-66734056D01*
X146114895Y-66734061D01*
X145942845Y-66849022D01*
X145942841Y-66849025D01*
X145284517Y-67507352D01*
X144792848Y-67999020D01*
X142721520Y-70070348D01*
X141827779Y-70964088D01*
X141766456Y-70997573D01*
X141759498Y-70998880D01*
X141695468Y-71009022D01*
X141500778Y-71072281D01*
X141318386Y-71165215D01*
X141152786Y-71285528D01*
X141008028Y-71430286D01*
X140887715Y-71595886D01*
X140794781Y-71778276D01*
X140731522Y-71972965D01*
X140699500Y-72175148D01*
X140699500Y-88102351D01*
X140731522Y-88304534D01*
X140794781Y-88499223D01*
X140887715Y-88681613D01*
X141008028Y-88847213D01*
X141152786Y-88991971D01*
X141307749Y-89104556D01*
X141318390Y-89112287D01*
X141434607Y-89171503D01*
X141500776Y-89205218D01*
X141500778Y-89205218D01*
X141500781Y-89205220D01*
X141605137Y-89239127D01*
X141695465Y-89268477D01*
X141730403Y-89274010D01*
X141759495Y-89278618D01*
X141822630Y-89308547D01*
X141827779Y-89313410D01*
X142101956Y-89587587D01*
X142135441Y-89648910D01*
X142130457Y-89718602D01*
X142088585Y-89774535D01*
X142023121Y-89798952D01*
X141975271Y-89792974D01*
X141962500Y-89788742D01*
X141962500Y-92211256D01*
X142119119Y-92159358D01*
X142119124Y-92159356D01*
X142268345Y-92067315D01*
X142392315Y-91943345D01*
X142484356Y-91794124D01*
X142484357Y-91794120D01*
X142491606Y-91772245D01*
X142531377Y-91714799D01*
X142595892Y-91687974D01*
X142664668Y-91700287D01*
X142709167Y-91741605D01*
X142710514Y-91740584D01*
X142807077Y-91867922D01*
X142927656Y-91959360D01*
X142927657Y-91959360D01*
X142927658Y-91959361D01*
X143068436Y-92014877D01*
X143156898Y-92025500D01*
X143296140Y-92025500D01*
X143320330Y-92027882D01*
X143434033Y-92050499D01*
X143434034Y-92050500D01*
X143434035Y-92050500D01*
X143640965Y-92050500D01*
X149442107Y-92050500D01*
X149509146Y-92070185D01*
X149529788Y-92086819D01*
X149789103Y-92346134D01*
X149822588Y-92407457D01*
X149817604Y-92477149D01*
X149775732Y-92533082D01*
X149710268Y-92557499D01*
X149682026Y-92556289D01*
X149639158Y-92549500D01*
X149639157Y-92549500D01*
X149410844Y-92549500D01*
X149410839Y-92549500D01*
X149185340Y-92585215D01*
X148968201Y-92655769D01*
X148968194Y-92655772D01*
X148764776Y-92759418D01*
X148764768Y-92759423D01*
X148665696Y-92831403D01*
X148580063Y-92893620D01*
X148580061Y-92893622D01*
X148580060Y-92893622D01*
X147598002Y-93875681D01*
X147536679Y-93909166D01*
X147510321Y-93912000D01*
X141421530Y-93912000D01*
X141218587Y-93952368D01*
X141218579Y-93952370D01*
X141027402Y-94031558D01*
X140978203Y-94064431D01*
X140924106Y-94084442D01*
X140918435Y-94085123D01*
X140918429Y-94085124D01*
X140777660Y-94140637D01*
X140777658Y-94140638D01*
X140657077Y-94232077D01*
X140565639Y-94352656D01*
X140510122Y-94493438D01*
X140504188Y-94542853D01*
X140499500Y-94581898D01*
X140499500Y-94581903D01*
X140499500Y-94721139D01*
X140497117Y-94745330D01*
X140474500Y-94859031D01*
X140474500Y-95065966D01*
X140497117Y-95179668D01*
X140499500Y-95203860D01*
X140499500Y-95343102D01*
X140500913Y-95354865D01*
X140510122Y-95431561D01*
X140565639Y-95572343D01*
X140657077Y-95692922D01*
X140784416Y-95789486D01*
X140783028Y-95791315D01*
X140823315Y-95832618D01*
X140837316Y-95901071D01*
X140812087Y-95966226D01*
X140755636Y-96007398D01*
X140752759Y-96008391D01*
X140730882Y-96015640D01*
X140730875Y-96015643D01*
X140581654Y-96107684D01*
X140457684Y-96231654D01*
X140365643Y-96380875D01*
X140365641Y-96380880D01*
X140313743Y-96537500D01*
X139200500Y-96537500D01*
X139200500Y-91524986D01*
X140375001Y-91524986D01*
X140385494Y-91627697D01*
X140440641Y-91794119D01*
X140440643Y-91794124D01*
X140532684Y-91943345D01*
X140656654Y-92067315D01*
X140805875Y-92159356D01*
X140805880Y-92159358D01*
X140962500Y-92211256D01*
X140962500Y-91500000D01*
X140375001Y-91500000D01*
X140375001Y-91524986D01*
X139200500Y-91524986D01*
X139200500Y-90475013D01*
X140375000Y-90475013D01*
X140375000Y-90500000D01*
X140962500Y-90500000D01*
X140962500Y-89788742D01*
X140805879Y-89840641D01*
X140656654Y-89932684D01*
X140532684Y-90056654D01*
X140440643Y-90205875D01*
X140440641Y-90205880D01*
X140385494Y-90372302D01*
X140385493Y-90372309D01*
X140375000Y-90475013D01*
X139200500Y-90475013D01*
X139200500Y-61393399D01*
X140645500Y-61393399D01*
X140645500Y-61606600D01*
X140678853Y-61817180D01*
X140678853Y-61817183D01*
X140744734Y-62019944D01*
X140744736Y-62019947D01*
X140841528Y-62209913D01*
X140966846Y-62382397D01*
X141117603Y-62533154D01*
X141290087Y-62658472D01*
X141480053Y-62755264D01*
X141480055Y-62755265D01*
X141669182Y-62816715D01*
X141682821Y-62821147D01*
X141893399Y-62854500D01*
X141893400Y-62854500D01*
X142106600Y-62854500D01*
X142106601Y-62854500D01*
X142317179Y-62821147D01*
X142317182Y-62821146D01*
X142317183Y-62821146D01*
X142519944Y-62755265D01*
X142519944Y-62755264D01*
X142519947Y-62755264D01*
X142709913Y-62658472D01*
X142882397Y-62533154D01*
X143033154Y-62382397D01*
X143158472Y-62209913D01*
X143255264Y-62019947D01*
X143321147Y-61817179D01*
X143354500Y-61606601D01*
X143354500Y-61393399D01*
X164645500Y-61393399D01*
X164645500Y-61606600D01*
X164678853Y-61817180D01*
X164678853Y-61817183D01*
X164744734Y-62019944D01*
X164744736Y-62019947D01*
X164841528Y-62209913D01*
X164966846Y-62382397D01*
X165117603Y-62533154D01*
X165290087Y-62658472D01*
X165480053Y-62755264D01*
X165480055Y-62755265D01*
X165669182Y-62816715D01*
X165682821Y-62821147D01*
X165893399Y-62854500D01*
X165893400Y-62854500D01*
X166106600Y-62854500D01*
X166106601Y-62854500D01*
X166317179Y-62821147D01*
X166317182Y-62821146D01*
X166317183Y-62821146D01*
X166519944Y-62755265D01*
X166519944Y-62755264D01*
X166519947Y-62755264D01*
X166709913Y-62658472D01*
X166882397Y-62533154D01*
X167033154Y-62382397D01*
X167158472Y-62209913D01*
X167255264Y-62019947D01*
X167321147Y-61817179D01*
X167354500Y-61606601D01*
X167354500Y-61393399D01*
X167321147Y-61182821D01*
X167321146Y-61182817D01*
X167321146Y-61182816D01*
X167255265Y-60980055D01*
X167255263Y-60980052D01*
X167158471Y-60790086D01*
X167033154Y-60617603D01*
X166882397Y-60466846D01*
X166709913Y-60341528D01*
X166519947Y-60244736D01*
X166519944Y-60244734D01*
X166317181Y-60178853D01*
X166176793Y-60156617D01*
X166106601Y-60145500D01*
X165893399Y-60145500D01*
X165823206Y-60156617D01*
X165682819Y-60178853D01*
X165682816Y-60178853D01*
X165480055Y-60244734D01*
X165480052Y-60244736D01*
X165290086Y-60341528D01*
X165117601Y-60466847D01*
X164966847Y-60617601D01*
X164841528Y-60790086D01*
X164744736Y-60980052D01*
X164744734Y-60980055D01*
X164678853Y-61182816D01*
X164678853Y-61182819D01*
X164645500Y-61393399D01*
X143354500Y-61393399D01*
X143321147Y-61182821D01*
X143321146Y-61182817D01*
X143321146Y-61182816D01*
X143255265Y-60980055D01*
X143255263Y-60980052D01*
X143158471Y-60790086D01*
X143033154Y-60617603D01*
X142882397Y-60466846D01*
X142709913Y-60341528D01*
X142519947Y-60244736D01*
X142519944Y-60244734D01*
X142317181Y-60178853D01*
X142176793Y-60156617D01*
X142106601Y-60145500D01*
X141893399Y-60145500D01*
X141823206Y-60156617D01*
X141682819Y-60178853D01*
X141682816Y-60178853D01*
X141480055Y-60244734D01*
X141480052Y-60244736D01*
X141290086Y-60341528D01*
X141117601Y-60466847D01*
X140966847Y-60617601D01*
X140841528Y-60790086D01*
X140744736Y-60980052D01*
X140744734Y-60980055D01*
X140678853Y-61182816D01*
X140678853Y-61182819D01*
X140645500Y-61393399D01*
X139200500Y-61393399D01*
X139200500Y-58824500D01*
X139220185Y-58757461D01*
X139272989Y-58711706D01*
X139324500Y-58700500D01*
X168675500Y-58700500D01*
X168742539Y-58720185D01*
G37*
%TD.AperFunction*%
%TD*%
D36*
X163500000Y-113000000D03*
X168000000Y-93500000D03*
X168000000Y-92000000D03*
X140000000Y-91000000D03*
X140000000Y-97000000D03*
X140000000Y-95000000D03*
X166500000Y-113000000D03*
X155000000Y-113000000D03*
X159500000Y-111500000D03*
X160500000Y-111500000D03*
X161500000Y-111500000D03*
X166000000Y-117500000D03*
X164000000Y-115500000D03*
X168000000Y-115500000D03*
X165500000Y-113500000D03*
X164500000Y-111000000D03*
X168000000Y-101000000D03*
X168000000Y-102000000D03*
X168000000Y-103000000D03*
X168000000Y-104000000D03*
X168000000Y-107500000D03*
X168000000Y-108500000D03*
X168000000Y-109500000D03*
X168000000Y-110500000D03*
X168000000Y-111500000D03*
X168000000Y-113000000D03*
X152000000Y-106500000D03*
X150500000Y-108000000D03*
X140000000Y-71500000D03*
X140000000Y-72500000D03*
X140000000Y-74000000D03*
X140000000Y-75500000D03*
X140000000Y-77000000D03*
X140000000Y-78500000D03*
X140000000Y-80000000D03*
X140000000Y-81500000D03*
X140000000Y-83000000D03*
X140000000Y-84500000D03*
X140000000Y-86000000D03*
X140000000Y-87500000D03*
X140000000Y-89000000D03*
X152000000Y-97000000D03*
X156000000Y-97000000D03*
X154500000Y-96500000D03*
X153000000Y-98500000D03*
X153000000Y-99500000D03*
X150000000Y-100000000D03*
X150000000Y-96500000D03*
X151000000Y-96000000D03*
X151500000Y-95000000D03*
X153000000Y-97000000D03*
X157000000Y-79500000D03*
X155500000Y-78000000D03*
X151000000Y-70500000D03*
X150000000Y-70500000D03*
X151000000Y-68000000D03*
X150000000Y-68000000D03*
X159000000Y-64000000D03*
X157500000Y-64000000D03*
X156000000Y-64000000D03*
X154500000Y-64000000D03*
X152500000Y-64500000D03*
X144500000Y-67000000D03*
X143000000Y-68500000D03*
X141500000Y-70000000D03*
X149000000Y-74000000D03*
X149000000Y-72500000D03*
X154000000Y-72000000D03*
X158500000Y-76000000D03*
X160000000Y-79000000D03*
X161500000Y-79000000D03*
X163000000Y-79000000D03*
X162500000Y-113000000D03*
X164400000Y-112400000D03*
X159900000Y-76400000D03*
X164400000Y-74900000D03*
X147900000Y-59900000D03*
X164400000Y-80900000D03*
X143400000Y-67400000D03*
X164400000Y-71900000D03*
X149400000Y-113900000D03*
X162900000Y-116900000D03*
X152400000Y-115400000D03*
X164400000Y-73400000D03*
X149400000Y-115400000D03*
X162900000Y-89900000D03*
X159900000Y-62900000D03*
X149400000Y-74900000D03*
X164400000Y-83900000D03*
X155400000Y-80900000D03*
X164400000Y-76400000D03*
X164400000Y-70400000D03*
X161400000Y-62900000D03*
X162900000Y-103400000D03*
X161400000Y-71900000D03*
X162900000Y-97400000D03*
X149400000Y-73400000D03*
X150900000Y-79400000D03*
X162900000Y-88400000D03*
X147900000Y-79400000D03*
X162900000Y-113900000D03*
X156900000Y-83900000D03*
X150900000Y-104900000D03*
X162900000Y-104900000D03*
X140400000Y-112400000D03*
X149400000Y-83900000D03*
X164400000Y-62900000D03*
X162900000Y-95900000D03*
X162900000Y-115400000D03*
X153900000Y-79400000D03*
X164400000Y-68900000D03*
X164400000Y-59900000D03*
X149400000Y-85400000D03*
X146400000Y-80900000D03*
X152400000Y-80900000D03*
X161400000Y-86900000D03*
X150900000Y-82400000D03*
X152400000Y-83900000D03*
X156900000Y-95900000D03*
X162900000Y-73400000D03*
X152400000Y-85400000D03*
X152400000Y-86900000D03*
X149400000Y-76400000D03*
X165900000Y-100400000D03*
X149400000Y-86900000D03*
X165900000Y-85400000D03*
X147900000Y-83900000D03*
X150900000Y-61400000D03*
X147900000Y-112400000D03*
X147900000Y-113900000D03*
X152400000Y-95900000D03*
X152400000Y-100400000D03*
X162900000Y-59900000D03*
X152400000Y-101900000D03*
X150900000Y-113900000D03*
X146400000Y-115400000D03*
X150900000Y-59900000D03*
X143400000Y-92900000D03*
X152400000Y-104900000D03*
X152400000Y-112400000D03*
X147900000Y-85400000D03*
X149400000Y-80900000D03*
X156900000Y-98900000D03*
X149400000Y-82400000D03*
X147900000Y-82400000D03*
X161400000Y-112400000D03*
X140400000Y-104900000D03*
X149400000Y-112400000D03*
X150900000Y-85400000D03*
X162900000Y-83900000D03*
X162900000Y-76400000D03*
X150900000Y-101900000D03*
X152400000Y-59900000D03*
X152400000Y-61400000D03*
X150900000Y-80900000D03*
X152400000Y-103400000D03*
X149400000Y-61400000D03*
X149400000Y-71900000D03*
X165900000Y-83900000D03*
X147900000Y-80900000D03*
X156900000Y-62900000D03*
X152400000Y-82400000D03*
X150900000Y-116900000D03*
X147900000Y-86900000D03*
X147900000Y-116900000D03*
X149400000Y-77900000D03*
X149400000Y-79400000D03*
X140400000Y-100400000D03*
X149400000Y-116900000D03*
X150900000Y-77900000D03*
X150900000Y-83900000D03*
X150900000Y-86900000D03*
X144900000Y-115400000D03*
X150900000Y-103400000D03*
X161400000Y-85400000D03*
X150900000Y-106400000D03*
X153900000Y-103400000D03*
X150900000Y-112400000D03*
X158400000Y-86900000D03*
X152400000Y-76400000D03*
X152400000Y-77900000D03*
X149400000Y-59900000D03*
X150900000Y-100400000D03*
X162900000Y-68900000D03*
X146400000Y-77900000D03*
X152400000Y-62900000D03*
X159900000Y-116900000D03*
X150900000Y-115400000D03*
X152400000Y-79400000D03*
X147900000Y-115400000D03*
X150900000Y-76400000D03*
X152400000Y-113900000D03*
X153900000Y-62900000D03*
X153900000Y-61400000D03*
X152400000Y-116900000D03*
X153900000Y-59900000D03*
X146400000Y-79400000D03*
X153900000Y-83900000D03*
X143400000Y-116900000D03*
X153900000Y-77900000D03*
X156900000Y-86900000D03*
X153900000Y-80900000D03*
X159900000Y-59900000D03*
X153900000Y-82400000D03*
X159900000Y-104900000D03*
X167400000Y-104900000D03*
X159900000Y-112400000D03*
X155400000Y-88400000D03*
X164400000Y-95900000D03*
X153900000Y-85400000D03*
X161400000Y-80900000D03*
X140400000Y-92900000D03*
X161400000Y-82400000D03*
X159900000Y-89900000D03*
X164400000Y-85400000D03*
X140400000Y-103400000D03*
X161400000Y-61400000D03*
X155400000Y-83900000D03*
X161400000Y-83900000D03*
X146400000Y-116900000D03*
X161400000Y-88400000D03*
X161400000Y-113900000D03*
X144900000Y-116900000D03*
X161400000Y-115400000D03*
X162900000Y-61400000D03*
X167400000Y-62900000D03*
X162900000Y-62900000D03*
X155400000Y-101900000D03*
X161400000Y-104900000D03*
X147900000Y-77900000D03*
X159900000Y-83900000D03*
X159900000Y-98900000D03*
X161400000Y-59900000D03*
X158400000Y-62900000D03*
X161400000Y-89900000D03*
X167400000Y-113900000D03*
X161400000Y-76400000D03*
X159900000Y-115400000D03*
X159900000Y-101900000D03*
X161400000Y-73400000D03*
X161400000Y-103400000D03*
X144900000Y-61400000D03*
X159900000Y-103400000D03*
X165900000Y-82400000D03*
X161400000Y-74900000D03*
X161400000Y-116900000D03*
X165900000Y-89900000D03*
X159900000Y-113900000D03*
X164400000Y-103400000D03*
X162900000Y-85400000D03*
X162900000Y-70400000D03*
X167400000Y-82400000D03*
X140400000Y-62900000D03*
X162900000Y-86900000D03*
X162900000Y-74900000D03*
X162900000Y-82400000D03*
X164400000Y-86900000D03*
X162900000Y-80900000D03*
X146400000Y-59900000D03*
X162900000Y-71900000D03*
X165900000Y-80900000D03*
X164400000Y-113900000D03*
X167400000Y-59900000D03*
X153900000Y-116900000D03*
X164400000Y-88400000D03*
X165900000Y-88400000D03*
X164400000Y-104900000D03*
X141900000Y-98900000D03*
X164400000Y-100400000D03*
X164400000Y-116900000D03*
X158400000Y-104900000D03*
X167400000Y-83900000D03*
X144900000Y-59900000D03*
X165900000Y-104900000D03*
X164400000Y-82400000D03*
X167400000Y-112400000D03*
X167400000Y-86900000D03*
X164400000Y-97400000D03*
X146400000Y-82400000D03*
X164400000Y-89900000D03*
X165900000Y-71900000D03*
X165900000Y-112400000D03*
X167400000Y-88400000D03*
X159900000Y-80900000D03*
X167400000Y-116900000D03*
X167400000Y-100400000D03*
X165900000Y-76400000D03*
X165900000Y-86900000D03*
X167400000Y-89900000D03*
X167400000Y-85400000D03*
X167400000Y-80900000D03*
X167400000Y-106400000D03*
X141900000Y-104900000D03*
X153900000Y-100400000D03*
X144900000Y-92900000D03*
X146400000Y-64400000D03*
X144900000Y-62900000D03*
X140400000Y-110900000D03*
X140400000Y-67400000D03*
X140400000Y-59900000D03*
X159900000Y-86900000D03*
X141900000Y-64400000D03*
X141900000Y-107900000D03*
X153900000Y-113900000D03*
X140400000Y-70400000D03*
X140400000Y-106400000D03*
X140400000Y-109400000D03*
X140400000Y-65900000D03*
X156900000Y-103400000D03*
X143400000Y-59900000D03*
X158400000Y-83900000D03*
X143400000Y-65900000D03*
X143400000Y-98900000D03*
X156900000Y-88400000D03*
X141900000Y-100400000D03*
X141900000Y-92900000D03*
X146400000Y-61400000D03*
X146400000Y-83900000D03*
X140400000Y-64400000D03*
X156900000Y-82400000D03*
X153900000Y-86900000D03*
X140400000Y-98900000D03*
X141900000Y-68900000D03*
X141900000Y-103400000D03*
X156900000Y-59900000D03*
X140400000Y-68900000D03*
X158400000Y-61400000D03*
X140400000Y-107900000D03*
X140400000Y-113900000D03*
X143400000Y-64400000D03*
X141900000Y-65900000D03*
X156900000Y-104900000D03*
X144900000Y-64400000D03*
X141900000Y-67400000D03*
X141900000Y-101900000D03*
X140400000Y-116900000D03*
X141900000Y-106400000D03*
X143400000Y-113900000D03*
X146400000Y-62900000D03*
X144900000Y-113900000D03*
X146400000Y-65900000D03*
X140400000Y-101900000D03*
X144900000Y-65900000D03*
X143400000Y-62900000D03*
X146400000Y-85400000D03*
X146400000Y-112400000D03*
X146400000Y-113900000D03*
X146400000Y-86900000D03*
X153900000Y-101900000D03*
X146400000Y-92900000D03*
X147900000Y-61400000D03*
X155400000Y-86900000D03*
X158400000Y-85400000D03*
X155400000Y-59900000D03*
X158400000Y-89900000D03*
X158400000Y-103400000D03*
X153900000Y-115400000D03*
X155400000Y-116900000D03*
X156900000Y-61400000D03*
X156900000Y-80900000D03*
X156900000Y-85400000D03*
X153900000Y-95900000D03*
X155400000Y-61400000D03*
X158400000Y-59900000D03*
X158400000Y-80900000D03*
X158400000Y-82400000D03*
X158400000Y-112400000D03*
X155400000Y-85400000D03*
X156900000Y-89900000D03*
X158400000Y-113900000D03*
X158400000Y-115400000D03*
X158400000Y-116900000D03*
X153900000Y-112400000D03*
X155400000Y-79400000D03*
X156900000Y-97400000D03*
X155400000Y-95900000D03*
X156900000Y-116900000D03*
X155400000Y-103400000D03*
X158400000Y-88400000D03*
X153900000Y-104900000D03*
X155400000Y-82400000D03*
X156900000Y-101900000D03*
X158400000Y-74900000D03*
X155400000Y-62900000D03*
X155400000Y-104900000D03*
X159900000Y-85400000D03*
X159900000Y-82400000D03*
X159900000Y-88400000D03*
X159900000Y-61400000D03*
X159900000Y-74900000D03*
D37*
X142000000Y-115500000D03*
X156500000Y-114250000D03*
X156500000Y-110750000D03*
X166000000Y-102500000D03*
X166000000Y-115500000D03*
X166025000Y-97000000D03*
X166025000Y-94460000D03*
X166025000Y-110790000D03*
X166025000Y-108250000D03*
X166000000Y-78000000D03*
X166000000Y-69290000D03*
X166000000Y-66750000D03*
X142000000Y-61500000D03*
X154630400Y-98191000D03*
X152928600Y-94000000D03*
X151226800Y-98191000D03*
X149525000Y-94000000D03*
X147823200Y-98191000D03*
X166000000Y-61500000D03*
X148500000Y-106500000D03*
X166000000Y-74000000D03*
M02*
