M48
; DRILL file {KiCad 8.0.2} date 2024-06-04T16:14:46-0400
; FORMAT={-:-/ absolute / metric / decimal}
; #@! TF.CreationDate,2024-06-04T16:14:46-04:00
; #@! TF.GenerationSoftware,Kicad,Pcbnew,8.0.2
; #@! TF.FileFunction,MixedPlating,1,2
FMAT,2
METRIC
; #@! TA.AperFunction,Plated,PTH,ViaDrill
T1C0.300
; #@! TA.AperFunction,Plated,PTH,ComponentDrill
T2C0.800
; #@! TA.AperFunction,Plated,PTH,ComponentDrill
T3C0.838
; #@! TA.AperFunction,Plated,PTH,ComponentDrill
T4C1.000
; #@! TA.AperFunction,NonPlated,NPTH,ComponentDrill
T5C2.200
%
G90
G05
T1
X140.0Y-71.5
X140.0Y-72.5
X140.0Y-74.0
X140.0Y-75.5
X140.0Y-77.0
X140.0Y-78.5
X140.0Y-80.0
X140.0Y-81.5
X140.0Y-83.0
X140.0Y-84.5
X140.0Y-86.0
X140.0Y-87.5
X140.0Y-89.0
X140.0Y-91.0
X140.0Y-95.0
X140.0Y-97.0
X140.4Y-59.9
X140.4Y-62.9
X140.4Y-64.4
X140.4Y-65.9
X140.4Y-67.4
X140.4Y-68.9
X140.4Y-70.4
X140.4Y-92.9
X140.4Y-98.9
X140.4Y-100.4
X140.4Y-101.9
X140.4Y-103.4
X140.4Y-104.9
X140.4Y-106.4
X140.4Y-107.9
X140.4Y-109.4
X140.4Y-110.9
X140.4Y-112.4
X140.4Y-113.9
X140.4Y-116.9
X141.5Y-70.0
X141.9Y-64.4
X141.9Y-65.9
X141.9Y-67.4
X141.9Y-68.9
X141.9Y-92.9
X141.9Y-98.9
X141.9Y-100.4
X141.9Y-101.9
X141.9Y-103.4
X141.9Y-104.9
X141.9Y-106.4
X141.9Y-107.9
X143.0Y-68.5
X143.4Y-59.9
X143.4Y-62.9
X143.4Y-64.4
X143.4Y-65.9
X143.4Y-67.4
X143.4Y-92.9
X143.4Y-98.9
X143.4Y-113.9
X143.4Y-116.9
X144.5Y-67.0
X144.9Y-59.9
X144.9Y-61.4
X144.9Y-62.9
X144.9Y-64.4
X144.9Y-65.9
X144.9Y-92.9
X144.9Y-113.9
X144.9Y-115.4
X144.9Y-116.9
X146.4Y-59.9
X146.4Y-61.4
X146.4Y-62.9
X146.4Y-64.4
X146.4Y-65.9
X146.4Y-77.9
X146.4Y-79.4
X146.4Y-80.9
X146.4Y-82.4
X146.4Y-83.9
X146.4Y-85.4
X146.4Y-86.9
X146.4Y-92.9
X146.4Y-112.4
X146.4Y-113.9
X146.4Y-115.4
X146.4Y-116.9
X147.9Y-59.9
X147.9Y-61.4
X147.9Y-77.9
X147.9Y-79.4
X147.9Y-80.9
X147.9Y-82.4
X147.9Y-83.9
X147.9Y-85.4
X147.9Y-86.9
X147.9Y-112.4
X147.9Y-113.9
X147.9Y-115.4
X147.9Y-116.9
X149.0Y-72.5
X149.0Y-74.0
X149.4Y-59.9
X149.4Y-61.4
X149.4Y-71.9
X149.4Y-73.4
X149.4Y-74.9
X149.4Y-76.4
X149.4Y-77.9
X149.4Y-79.4
X149.4Y-80.9
X149.4Y-82.4
X149.4Y-83.9
X149.4Y-85.4
X149.4Y-86.9
X149.4Y-112.4
X149.4Y-113.9
X149.4Y-115.4
X149.4Y-116.9
X150.0Y-68.0
X150.0Y-70.5
X150.0Y-96.5
X150.0Y-100.0
X150.5Y-108.0
X150.9Y-59.9
X150.9Y-61.4
X150.9Y-76.4
X150.9Y-77.9
X150.9Y-79.4
X150.9Y-80.9
X150.9Y-82.4
X150.9Y-83.9
X150.9Y-85.4
X150.9Y-86.9
X150.9Y-100.4
X150.9Y-101.9
X150.9Y-103.4
X150.9Y-104.9
X150.9Y-106.4
X150.9Y-112.4
X150.9Y-113.9
X150.9Y-115.4
X150.9Y-116.9
X151.0Y-68.0
X151.0Y-70.5
X151.0Y-96.0
X151.5Y-95.0
X152.0Y-97.0
X152.0Y-106.5
X152.4Y-59.9
X152.4Y-61.4
X152.4Y-62.9
X152.4Y-76.4
X152.4Y-77.9
X152.4Y-79.4
X152.4Y-80.9
X152.4Y-82.4
X152.4Y-83.9
X152.4Y-85.4
X152.4Y-86.9
X152.4Y-95.9
X152.4Y-100.4
X152.4Y-101.9
X152.4Y-103.4
X152.4Y-104.9
X152.4Y-112.4
X152.4Y-113.9
X152.4Y-115.4
X152.4Y-116.9
X152.5Y-64.5
X153.0Y-97.0
X153.0Y-98.5
X153.0Y-99.5
X153.9Y-59.9
X153.9Y-61.4
X153.9Y-62.9
X153.9Y-77.9
X153.9Y-79.4
X153.9Y-80.9
X153.9Y-82.4
X153.9Y-83.9
X153.9Y-85.4
X153.9Y-86.9
X153.9Y-95.9
X153.9Y-100.4
X153.9Y-101.9
X153.9Y-103.4
X153.9Y-104.9
X153.9Y-112.4
X153.9Y-113.9
X153.9Y-115.4
X153.9Y-116.9
X154.0Y-72.0
X154.5Y-64.0
X154.5Y-96.5
X155.0Y-113.0
X155.4Y-59.9
X155.4Y-61.4
X155.4Y-62.9
X155.4Y-79.4
X155.4Y-80.9
X155.4Y-82.4
X155.4Y-83.9
X155.4Y-85.4
X155.4Y-86.9
X155.4Y-88.4
X155.4Y-95.9
X155.4Y-101.9
X155.4Y-103.4
X155.4Y-104.9
X155.4Y-116.9
X155.5Y-78.0
X156.0Y-64.0
X156.0Y-97.0
X156.9Y-59.9
X156.9Y-61.4
X156.9Y-62.9
X156.9Y-80.9
X156.9Y-82.4
X156.9Y-83.9
X156.9Y-85.4
X156.9Y-86.9
X156.9Y-88.4
X156.9Y-89.9
X156.9Y-95.9
X156.9Y-97.4
X156.9Y-98.9
X156.9Y-101.9
X156.9Y-103.4
X156.9Y-104.9
X156.9Y-116.9
X157.0Y-79.5
X157.5Y-64.0
X158.4Y-59.9
X158.4Y-61.4
X158.4Y-62.9
X158.4Y-74.9
X158.4Y-80.9
X158.4Y-82.4
X158.4Y-83.9
X158.4Y-85.4
X158.4Y-86.9
X158.4Y-88.4
X158.4Y-89.9
X158.4Y-103.4
X158.4Y-104.9
X158.4Y-112.4
X158.4Y-113.9
X158.4Y-115.4
X158.4Y-116.9
X158.5Y-76.0
X159.0Y-64.0
X159.5Y-111.5
X159.9Y-59.9
X159.9Y-61.4
X159.9Y-62.9
X159.9Y-74.9
X159.9Y-76.4
X159.9Y-80.9
X159.9Y-82.4
X159.9Y-83.9
X159.9Y-85.4
X159.9Y-86.9
X159.9Y-88.4
X159.9Y-89.9
X159.9Y-98.9
X159.9Y-101.9
X159.9Y-103.4
X159.9Y-104.9
X159.9Y-112.4
X159.9Y-113.9
X159.9Y-115.4
X159.9Y-116.9
X160.0Y-79.0
X160.5Y-111.5
X161.4Y-59.9
X161.4Y-61.4
X161.4Y-62.9
X161.4Y-71.9
X161.4Y-73.4
X161.4Y-74.9
X161.4Y-76.4
X161.4Y-80.9
X161.4Y-82.4
X161.4Y-83.9
X161.4Y-85.4
X161.4Y-86.9
X161.4Y-88.4
X161.4Y-89.9
X161.4Y-103.4
X161.4Y-104.9
X161.4Y-112.4
X161.4Y-113.9
X161.4Y-115.4
X161.4Y-116.9
X161.5Y-79.0
X161.5Y-111.5
X162.5Y-113.0
X162.9Y-59.9
X162.9Y-61.4
X162.9Y-62.9
X162.9Y-68.9
X162.9Y-70.4
X162.9Y-71.9
X162.9Y-73.4
X162.9Y-74.9
X162.9Y-76.4
X162.9Y-80.9
X162.9Y-82.4
X162.9Y-83.9
X162.9Y-85.4
X162.9Y-86.9
X162.9Y-88.4
X162.9Y-89.9
X162.9Y-95.9
X162.9Y-97.4
X162.9Y-103.4
X162.9Y-104.9
X162.9Y-113.9
X162.9Y-115.4
X162.9Y-116.9
X163.0Y-79.0
X163.5Y-113.0
X164.0Y-115.5
X164.4Y-59.9
X164.4Y-62.9
X164.4Y-68.9
X164.4Y-70.4
X164.4Y-71.9
X164.4Y-73.4
X164.4Y-74.9
X164.4Y-76.4
X164.4Y-80.9
X164.4Y-82.4
X164.4Y-83.9
X164.4Y-85.4
X164.4Y-86.9
X164.4Y-88.4
X164.4Y-89.9
X164.4Y-95.9
X164.4Y-97.4
X164.4Y-100.4
X164.4Y-103.4
X164.4Y-104.9
X164.4Y-112.4
X164.4Y-113.9
X164.4Y-116.9
X164.5Y-111.0
X165.5Y-113.5
X165.9Y-71.9
X165.9Y-76.4
X165.9Y-80.9
X165.9Y-82.4
X165.9Y-83.9
X165.9Y-85.4
X165.9Y-86.9
X165.9Y-88.4
X165.9Y-89.9
X165.9Y-100.4
X165.9Y-104.9
X165.9Y-112.4
X166.0Y-117.5
X166.5Y-113.0
X167.4Y-59.9
X167.4Y-62.9
X167.4Y-80.9
X167.4Y-82.4
X167.4Y-83.9
X167.4Y-85.4
X167.4Y-86.9
X167.4Y-88.4
X167.4Y-89.9
X167.4Y-100.4
X167.4Y-104.9
X167.4Y-106.4
X167.4Y-112.4
X167.4Y-113.9
X167.4Y-116.9
X168.0Y-92.0
X168.0Y-93.5
X168.0Y-101.0
X168.0Y-102.0
X168.0Y-103.0
X168.0Y-104.0
X168.0Y-107.5
X168.0Y-108.5
X168.0Y-109.5
X168.0Y-110.5
X168.0Y-111.5
X168.0Y-113.0
X168.0Y-115.5
T2
X156.5Y-110.75
X156.5Y-114.25
T3
X147.823Y-98.191
X149.525Y-94.0
X151.227Y-98.191
X152.929Y-94.0
X154.63Y-98.191
T4
X148.5Y-106.5
X166.0Y-66.75
X166.0Y-69.29
X166.0Y-74.0
X166.0Y-78.0
X166.0Y-102.5
X166.025Y-94.46
X166.025Y-97.0
X166.025Y-108.25
X166.025Y-110.79
T5
X142.0Y-61.5
X142.0Y-115.5
X166.0Y-61.5
X166.0Y-115.5
M30
