%TF.GenerationSoftware,KiCad,Pcbnew,8.0.2*%
%TF.CreationDate,2024-06-04T16:14:45-04:00*%
%TF.ProjectId,Power Supply,506f7765-7220-4537-9570-706c792e6b69,rev?*%
%TF.SameCoordinates,Original*%
%TF.FileFunction,Soldermask,Top*%
%TF.FilePolarity,Negative*%
%FSLAX46Y46*%
G04 Gerber Fmt 4.6, Leading zero omitted, Abs format (unit mm)*
G04 Created by KiCad (PCBNEW 8.0.2) date 2024-06-04 16:14:45*
%MOMM*%
%LPD*%
G01*
G04 APERTURE LIST*
G04 Aperture macros list*
%AMRoundRect*
0 Rectangle with rounded corners*
0 $1 Rounding radius*
0 $2 $3 $4 $5 $6 $7 $8 $9 X,Y pos of 4 corners*
0 Add a 4 corners polygon primitive as box body*
4,1,4,$2,$3,$4,$5,$6,$7,$8,$9,$2,$3,0*
0 Add four circle primitives for the rounded corners*
1,1,$1+$1,$2,$3*
1,1,$1+$1,$4,$5*
1,1,$1+$1,$6,$7*
1,1,$1+$1,$8,$9*
0 Add four rect primitives between the rounded corners*
20,1,$1+$1,$2,$3,$4,$5,0*
20,1,$1+$1,$4,$5,$6,$7,0*
20,1,$1+$1,$6,$7,$8,$9,0*
20,1,$1+$1,$8,$9,$2,$3,0*%
G04 Aperture macros list end*
%ADD10RoundRect,0.250000X-0.337500X-0.475000X0.337500X-0.475000X0.337500X0.475000X-0.337500X0.475000X0*%
%ADD11RoundRect,0.250000X-0.475000X0.337500X-0.475000X-0.337500X0.475000X-0.337500X0.475000X0.337500X0*%
%ADD12RoundRect,0.250000X-0.450000X0.350000X-0.450000X-0.350000X0.450000X-0.350000X0.450000X0.350000X0*%
%ADD13C,2.200000*%
%ADD14C,1.600000*%
%ADD15RoundRect,0.250000X-0.350000X-0.450000X0.350000X-0.450000X0.350000X0.450000X-0.350000X0.450000X0*%
%ADD16R,1.700000X1.700000*%
%ADD17RoundRect,0.250000X0.450000X-0.350000X0.450000X0.350000X-0.450000X0.350000X-0.450000X-0.350000X0*%
%ADD18O,1.700000X1.700000*%
%ADD19RoundRect,0.250000X0.337500X0.475000X-0.337500X0.475000X-0.337500X-0.475000X0.337500X-0.475000X0*%
%ADD20RoundRect,0.250000X0.475000X-0.337500X0.475000X0.337500X-0.475000X0.337500X-0.475000X-0.337500X0*%
%ADD21RoundRect,0.250000X0.250000X-0.250000X0.250000X0.250000X-0.250000X0.250000X-0.250000X-0.250000X0*%
%ADD22C,1.397000*%
%ADD23R,1.397000X1.397000*%
%ADD24R,1.650000X2.850000*%
%ADD25RoundRect,0.100000X-0.625000X-0.100000X0.625000X-0.100000X0.625000X0.100000X-0.625000X0.100000X0*%
%ADD26RoundRect,0.250000X0.275000X0.350000X-0.275000X0.350000X-0.275000X-0.350000X0.275000X-0.350000X0*%
G04 APERTURE END LIST*
D10*
%TO.C,C14*%
X147537500Y-75500000D03*
X145462500Y-75500000D03*
%TD*%
D11*
%TO.C,C3*%
X158525000Y-96537500D03*
X158525000Y-94462500D03*
%TD*%
%TO.C,C13*%
X142000000Y-111500000D03*
X142000000Y-109425000D03*
%TD*%
%TO.C,C10*%
X158590000Y-69537500D03*
X158590000Y-67462500D03*
%TD*%
D12*
%TO.C,R1*%
X161500000Y-101000000D03*
X161500000Y-99000000D03*
%TD*%
D13*
%TO.C,H3*%
X142000000Y-115500000D03*
%TD*%
D14*
%TO.C,C1*%
X156500000Y-114250000D03*
X156500000Y-110750000D03*
%TD*%
D15*
%TO.C,R3*%
X147500000Y-73000000D03*
X145500000Y-73000000D03*
%TD*%
D16*
%TO.C,Div*%
X166000000Y-102500000D03*
%TD*%
D13*
%TO.C,H4*%
X166000000Y-115500000D03*
%TD*%
D11*
%TO.C,C5*%
X144025000Y-97037500D03*
X144025000Y-94962500D03*
%TD*%
%TO.C,C6*%
X141525000Y-97037500D03*
X141525000Y-94962500D03*
%TD*%
D12*
%TO.C,R5*%
X151000000Y-75000000D03*
X151000000Y-73000000D03*
%TD*%
D17*
%TO.C,R6*%
X160000000Y-71500000D03*
X160000000Y-73500000D03*
%TD*%
D10*
%TO.C,C8*%
X150537500Y-63000000D03*
X148462500Y-63000000D03*
%TD*%
%TO.C,C7*%
X150537500Y-65500000D03*
X148462500Y-65500000D03*
%TD*%
D18*
%TO.C,5V*%
X166025000Y-97000000D03*
D16*
X166025000Y-94460000D03*
%TD*%
D19*
%TO.C,C15*%
X141462500Y-91000000D03*
X143537500Y-91000000D03*
%TD*%
D11*
%TO.C,C2*%
X144500000Y-111537500D03*
X144500000Y-109462500D03*
%TD*%
D18*
%TO.C,J3*%
X166025000Y-110790000D03*
D16*
X166025000Y-108250000D03*
%TD*%
%TO.C,Div*%
X166000000Y-78000000D03*
%TD*%
D18*
%TO.C,3.3V*%
X166000000Y-69290000D03*
D16*
X166000000Y-66750000D03*
%TD*%
D20*
%TO.C,C12*%
X157500000Y-71462500D03*
X157500000Y-73537500D03*
%TD*%
D13*
%TO.C,H1*%
X142000000Y-61500000D03*
%TD*%
D17*
%TO.C,R2*%
X158500000Y-99000000D03*
X158500000Y-101000000D03*
%TD*%
%TO.C,R4*%
X153000000Y-73000000D03*
X153000000Y-75000000D03*
%TD*%
D21*
%TO.C,D1*%
X163000000Y-109250000D03*
X163000000Y-111750000D03*
%TD*%
D22*
%TO.C,U1*%
X154630400Y-98191000D03*
X152928600Y-94000000D03*
X151226800Y-98191000D03*
X149525000Y-94000000D03*
D23*
X147823200Y-98191000D03*
%TD*%
D11*
%TO.C,C11*%
X161090000Y-69537500D03*
X161090000Y-67462500D03*
%TD*%
D24*
%TO.C,U2*%
X150590000Y-69290000D03*
D25*
X152740000Y-67665000D03*
X152740000Y-68315000D03*
X152740000Y-68965000D03*
X152740000Y-69615000D03*
X152740000Y-70265000D03*
X152740000Y-70915000D03*
X148440000Y-70915000D03*
X148440000Y-70265000D03*
X148440000Y-69615000D03*
X148440000Y-68965000D03*
X148440000Y-68315000D03*
X148440000Y-67665000D03*
%TD*%
D13*
%TO.C,H2*%
X166000000Y-61500000D03*
%TD*%
D16*
%TO.C,+6*%
X148500000Y-106500000D03*
%TD*%
%TO.C,GND*%
X166000000Y-74000000D03*
%TD*%
D26*
%TO.C,FB1*%
X148350000Y-110500000D03*
X150650000Y-110500000D03*
%TD*%
D11*
%TO.C,C4*%
X161000000Y-96537500D03*
X161000000Y-94462500D03*
%TD*%
%TO.C,C9*%
X156090000Y-69537500D03*
X156090000Y-67462500D03*
%TD*%
M02*
