%TF.GenerationSoftware,KiCad,Pcbnew,8.0.2*%
%TF.CreationDate,2024-06-08T00:27:40-04:00*%
%TF.ProjectId,EIS Board,45495320-426f-4617-9264-2e6b69636164,rev?*%
%TF.SameCoordinates,Original*%
%TF.FileFunction,Legend,Bot*%
%TF.FilePolarity,Positive*%
%FSLAX46Y46*%
G04 Gerber Fmt 4.6, Leading zero omitted, Abs format (unit mm)*
G04 Created by KiCad (PCBNEW 8.0.2) date 2024-06-08 00:27:40*
%MOMM*%
%LPD*%
G01*
G04 APERTURE LIST*
%ADD10C,0.150000*%
%ADD11C,0.152400*%
%ADD12C,0.000000*%
%ADD13C,0.120000*%
%ADD14C,0.200000*%
%ADD15C,0.127000*%
%ADD16C,0.350000*%
G04 APERTURE END LIST*
D10*
X116238095Y-78045180D02*
X116238095Y-77235657D01*
X116238095Y-77235657D02*
X116285714Y-77140419D01*
X116285714Y-77140419D02*
X116333333Y-77092800D01*
X116333333Y-77092800D02*
X116428571Y-77045180D01*
X116428571Y-77045180D02*
X116619047Y-77045180D01*
X116619047Y-77045180D02*
X116714285Y-77092800D01*
X116714285Y-77092800D02*
X116761904Y-77140419D01*
X116761904Y-77140419D02*
X116809523Y-77235657D01*
X116809523Y-77235657D02*
X116809523Y-78045180D01*
X117714285Y-78045180D02*
X117523809Y-78045180D01*
X117523809Y-78045180D02*
X117428571Y-77997561D01*
X117428571Y-77997561D02*
X117380952Y-77949942D01*
X117380952Y-77949942D02*
X117285714Y-77807085D01*
X117285714Y-77807085D02*
X117238095Y-77616609D01*
X117238095Y-77616609D02*
X117238095Y-77235657D01*
X117238095Y-77235657D02*
X117285714Y-77140419D01*
X117285714Y-77140419D02*
X117333333Y-77092800D01*
X117333333Y-77092800D02*
X117428571Y-77045180D01*
X117428571Y-77045180D02*
X117619047Y-77045180D01*
X117619047Y-77045180D02*
X117714285Y-77092800D01*
X117714285Y-77092800D02*
X117761904Y-77140419D01*
X117761904Y-77140419D02*
X117809523Y-77235657D01*
X117809523Y-77235657D02*
X117809523Y-77473752D01*
X117809523Y-77473752D02*
X117761904Y-77568990D01*
X117761904Y-77568990D02*
X117714285Y-77616609D01*
X117714285Y-77616609D02*
X117619047Y-77664228D01*
X117619047Y-77664228D02*
X117428571Y-77664228D01*
X117428571Y-77664228D02*
X117333333Y-77616609D01*
X117333333Y-77616609D02*
X117285714Y-77568990D01*
X117285714Y-77568990D02*
X117238095Y-77473752D01*
X114567950Y-80467832D02*
X114567950Y-80229737D01*
X114329855Y-80324975D02*
X114567950Y-80229737D01*
X114567950Y-80229737D02*
X114806045Y-80324975D01*
X114425093Y-80039261D02*
X114567950Y-80229737D01*
X114567950Y-80229737D02*
X114710807Y-80039261D01*
X114567949Y-79377471D02*
X114567949Y-79615566D01*
X114806044Y-79520328D02*
X114567949Y-79615566D01*
X114567949Y-79615566D02*
X114329854Y-79520328D01*
X114710806Y-79806042D02*
X114567949Y-79615566D01*
X114567949Y-79615566D02*
X114425092Y-79806042D01*
X111738095Y-69045180D02*
X111738095Y-68235657D01*
X111738095Y-68235657D02*
X111785714Y-68140419D01*
X111785714Y-68140419D02*
X111833333Y-68092800D01*
X111833333Y-68092800D02*
X111928571Y-68045180D01*
X111928571Y-68045180D02*
X112119047Y-68045180D01*
X112119047Y-68045180D02*
X112214285Y-68092800D01*
X112214285Y-68092800D02*
X112261904Y-68140419D01*
X112261904Y-68140419D02*
X112309523Y-68235657D01*
X112309523Y-68235657D02*
X112309523Y-69045180D01*
X113309523Y-68045180D02*
X112738095Y-68045180D01*
X113023809Y-68045180D02*
X113023809Y-69045180D01*
X113023809Y-69045180D02*
X112928571Y-68902323D01*
X112928571Y-68902323D02*
X112833333Y-68807085D01*
X112833333Y-68807085D02*
X112738095Y-68759466D01*
X110067950Y-71467832D02*
X110067950Y-71229737D01*
X109829855Y-71324975D02*
X110067950Y-71229737D01*
X110067950Y-71229737D02*
X110306045Y-71324975D01*
X109925093Y-71039261D02*
X110067950Y-71229737D01*
X110067950Y-71229737D02*
X110210807Y-71039261D01*
X110067949Y-70377471D02*
X110067949Y-70615566D01*
X110306044Y-70520328D02*
X110067949Y-70615566D01*
X110067949Y-70615566D02*
X109829854Y-70520328D01*
X110210806Y-70806042D02*
X110067949Y-70615566D01*
X110067949Y-70615566D02*
X109925092Y-70806042D01*
X125964807Y-81859580D02*
X126012426Y-81907200D01*
X126012426Y-81907200D02*
X126155283Y-81954819D01*
X126155283Y-81954819D02*
X126250521Y-81954819D01*
X126250521Y-81954819D02*
X126393378Y-81907200D01*
X126393378Y-81907200D02*
X126488616Y-81811961D01*
X126488616Y-81811961D02*
X126536235Y-81716723D01*
X126536235Y-81716723D02*
X126583854Y-81526247D01*
X126583854Y-81526247D02*
X126583854Y-81383390D01*
X126583854Y-81383390D02*
X126536235Y-81192914D01*
X126536235Y-81192914D02*
X126488616Y-81097676D01*
X126488616Y-81097676D02*
X126393378Y-81002438D01*
X126393378Y-81002438D02*
X126250521Y-80954819D01*
X126250521Y-80954819D02*
X126155283Y-80954819D01*
X126155283Y-80954819D02*
X126012426Y-81002438D01*
X126012426Y-81002438D02*
X125964807Y-81050057D01*
X125012426Y-81954819D02*
X125583854Y-81954819D01*
X125298140Y-81954819D02*
X125298140Y-80954819D01*
X125298140Y-80954819D02*
X125393378Y-81097676D01*
X125393378Y-81097676D02*
X125488616Y-81192914D01*
X125488616Y-81192914D02*
X125583854Y-81240533D01*
X124060045Y-81954819D02*
X124631473Y-81954819D01*
X124345759Y-81954819D02*
X124345759Y-80954819D01*
X124345759Y-80954819D02*
X124440997Y-81097676D01*
X124440997Y-81097676D02*
X124536235Y-81192914D01*
X124536235Y-81192914D02*
X124631473Y-81240533D01*
X130666666Y-62359580D02*
X130714285Y-62407200D01*
X130714285Y-62407200D02*
X130857142Y-62454819D01*
X130857142Y-62454819D02*
X130952380Y-62454819D01*
X130952380Y-62454819D02*
X131095237Y-62407200D01*
X131095237Y-62407200D02*
X131190475Y-62311961D01*
X131190475Y-62311961D02*
X131238094Y-62216723D01*
X131238094Y-62216723D02*
X131285713Y-62026247D01*
X131285713Y-62026247D02*
X131285713Y-61883390D01*
X131285713Y-61883390D02*
X131238094Y-61692914D01*
X131238094Y-61692914D02*
X131190475Y-61597676D01*
X131190475Y-61597676D02*
X131095237Y-61502438D01*
X131095237Y-61502438D02*
X130952380Y-61454819D01*
X130952380Y-61454819D02*
X130857142Y-61454819D01*
X130857142Y-61454819D02*
X130714285Y-61502438D01*
X130714285Y-61502438D02*
X130666666Y-61550057D01*
X130190475Y-62454819D02*
X129999999Y-62454819D01*
X129999999Y-62454819D02*
X129904761Y-62407200D01*
X129904761Y-62407200D02*
X129857142Y-62359580D01*
X129857142Y-62359580D02*
X129761904Y-62216723D01*
X129761904Y-62216723D02*
X129714285Y-62026247D01*
X129714285Y-62026247D02*
X129714285Y-61645295D01*
X129714285Y-61645295D02*
X129761904Y-61550057D01*
X129761904Y-61550057D02*
X129809523Y-61502438D01*
X129809523Y-61502438D02*
X129904761Y-61454819D01*
X129904761Y-61454819D02*
X130095237Y-61454819D01*
X130095237Y-61454819D02*
X130190475Y-61502438D01*
X130190475Y-61502438D02*
X130238094Y-61550057D01*
X130238094Y-61550057D02*
X130285713Y-61645295D01*
X130285713Y-61645295D02*
X130285713Y-61883390D01*
X130285713Y-61883390D02*
X130238094Y-61978628D01*
X130238094Y-61978628D02*
X130190475Y-62026247D01*
X130190475Y-62026247D02*
X130095237Y-62073866D01*
X130095237Y-62073866D02*
X129904761Y-62073866D01*
X129904761Y-62073866D02*
X129809523Y-62026247D01*
X129809523Y-62026247D02*
X129761904Y-61978628D01*
X129761904Y-61978628D02*
X129714285Y-61883390D01*
X121166666Y-70454819D02*
X121499999Y-69978628D01*
X121738094Y-70454819D02*
X121738094Y-69454819D01*
X121738094Y-69454819D02*
X121357142Y-69454819D01*
X121357142Y-69454819D02*
X121261904Y-69502438D01*
X121261904Y-69502438D02*
X121214285Y-69550057D01*
X121214285Y-69550057D02*
X121166666Y-69645295D01*
X121166666Y-69645295D02*
X121166666Y-69788152D01*
X121166666Y-69788152D02*
X121214285Y-69883390D01*
X121214285Y-69883390D02*
X121261904Y-69931009D01*
X121261904Y-69931009D02*
X121357142Y-69978628D01*
X121357142Y-69978628D02*
X121738094Y-69978628D01*
X120785713Y-69550057D02*
X120738094Y-69502438D01*
X120738094Y-69502438D02*
X120642856Y-69454819D01*
X120642856Y-69454819D02*
X120404761Y-69454819D01*
X120404761Y-69454819D02*
X120309523Y-69502438D01*
X120309523Y-69502438D02*
X120261904Y-69550057D01*
X120261904Y-69550057D02*
X120214285Y-69645295D01*
X120214285Y-69645295D02*
X120214285Y-69740533D01*
X120214285Y-69740533D02*
X120261904Y-69883390D01*
X120261904Y-69883390D02*
X120833332Y-70454819D01*
X120833332Y-70454819D02*
X120214285Y-70454819D01*
X108464807Y-77492571D02*
X108798140Y-77016380D01*
X109036235Y-77492571D02*
X109036235Y-76492571D01*
X109036235Y-76492571D02*
X108655283Y-76492571D01*
X108655283Y-76492571D02*
X108560045Y-76540190D01*
X108560045Y-76540190D02*
X108512426Y-76587809D01*
X108512426Y-76587809D02*
X108464807Y-76683047D01*
X108464807Y-76683047D02*
X108464807Y-76825904D01*
X108464807Y-76825904D02*
X108512426Y-76921142D01*
X108512426Y-76921142D02*
X108560045Y-76968761D01*
X108560045Y-76968761D02*
X108655283Y-77016380D01*
X108655283Y-77016380D02*
X109036235Y-77016380D01*
X107512426Y-77492571D02*
X108083854Y-77492571D01*
X107798140Y-77492571D02*
X107798140Y-76492571D01*
X107798140Y-76492571D02*
X107893378Y-76635428D01*
X107893378Y-76635428D02*
X107988616Y-76730666D01*
X107988616Y-76730666D02*
X108083854Y-76778285D01*
X106655283Y-76825904D02*
X106655283Y-77492571D01*
X106893378Y-76444952D02*
X107131473Y-77159237D01*
X107131473Y-77159237D02*
X106512426Y-77159237D01*
X121917319Y-71535192D02*
X121441128Y-71201859D01*
X121917319Y-70963764D02*
X120917319Y-70963764D01*
X120917319Y-70963764D02*
X120917319Y-71344716D01*
X120917319Y-71344716D02*
X120964938Y-71439954D01*
X120964938Y-71439954D02*
X121012557Y-71487573D01*
X121012557Y-71487573D02*
X121107795Y-71535192D01*
X121107795Y-71535192D02*
X121250652Y-71535192D01*
X121250652Y-71535192D02*
X121345890Y-71487573D01*
X121345890Y-71487573D02*
X121393509Y-71439954D01*
X121393509Y-71439954D02*
X121441128Y-71344716D01*
X121441128Y-71344716D02*
X121441128Y-70963764D01*
X121917319Y-72487573D02*
X121917319Y-71916145D01*
X121917319Y-72201859D02*
X120917319Y-72201859D01*
X120917319Y-72201859D02*
X121060176Y-72106621D01*
X121060176Y-72106621D02*
X121155414Y-72011383D01*
X121155414Y-72011383D02*
X121203033Y-71916145D01*
X120917319Y-73344716D02*
X120917319Y-73154240D01*
X120917319Y-73154240D02*
X120964938Y-73059002D01*
X120964938Y-73059002D02*
X121012557Y-73011383D01*
X121012557Y-73011383D02*
X121155414Y-72916145D01*
X121155414Y-72916145D02*
X121345890Y-72868526D01*
X121345890Y-72868526D02*
X121726842Y-72868526D01*
X121726842Y-72868526D02*
X121822080Y-72916145D01*
X121822080Y-72916145D02*
X121869700Y-72963764D01*
X121869700Y-72963764D02*
X121917319Y-73059002D01*
X121917319Y-73059002D02*
X121917319Y-73249478D01*
X121917319Y-73249478D02*
X121869700Y-73344716D01*
X121869700Y-73344716D02*
X121822080Y-73392335D01*
X121822080Y-73392335D02*
X121726842Y-73439954D01*
X121726842Y-73439954D02*
X121488747Y-73439954D01*
X121488747Y-73439954D02*
X121393509Y-73392335D01*
X121393509Y-73392335D02*
X121345890Y-73344716D01*
X121345890Y-73344716D02*
X121298271Y-73249478D01*
X121298271Y-73249478D02*
X121298271Y-73059002D01*
X121298271Y-73059002D02*
X121345890Y-72963764D01*
X121345890Y-72963764D02*
X121393509Y-72916145D01*
X121393509Y-72916145D02*
X121488747Y-72868526D01*
X118166666Y-63854819D02*
X118499999Y-63378628D01*
X118738094Y-63854819D02*
X118738094Y-62854819D01*
X118738094Y-62854819D02*
X118357142Y-62854819D01*
X118357142Y-62854819D02*
X118261904Y-62902438D01*
X118261904Y-62902438D02*
X118214285Y-62950057D01*
X118214285Y-62950057D02*
X118166666Y-63045295D01*
X118166666Y-63045295D02*
X118166666Y-63188152D01*
X118166666Y-63188152D02*
X118214285Y-63283390D01*
X118214285Y-63283390D02*
X118261904Y-63331009D01*
X118261904Y-63331009D02*
X118357142Y-63378628D01*
X118357142Y-63378628D02*
X118738094Y-63378628D01*
X117309523Y-62854819D02*
X117499999Y-62854819D01*
X117499999Y-62854819D02*
X117595237Y-62902438D01*
X117595237Y-62902438D02*
X117642856Y-62950057D01*
X117642856Y-62950057D02*
X117738094Y-63092914D01*
X117738094Y-63092914D02*
X117785713Y-63283390D01*
X117785713Y-63283390D02*
X117785713Y-63664342D01*
X117785713Y-63664342D02*
X117738094Y-63759580D01*
X117738094Y-63759580D02*
X117690475Y-63807200D01*
X117690475Y-63807200D02*
X117595237Y-63854819D01*
X117595237Y-63854819D02*
X117404761Y-63854819D01*
X117404761Y-63854819D02*
X117309523Y-63807200D01*
X117309523Y-63807200D02*
X117261904Y-63759580D01*
X117261904Y-63759580D02*
X117214285Y-63664342D01*
X117214285Y-63664342D02*
X117214285Y-63426247D01*
X117214285Y-63426247D02*
X117261904Y-63331009D01*
X117261904Y-63331009D02*
X117309523Y-63283390D01*
X117309523Y-63283390D02*
X117404761Y-63235771D01*
X117404761Y-63235771D02*
X117595237Y-63235771D01*
X117595237Y-63235771D02*
X117690475Y-63283390D01*
X117690475Y-63283390D02*
X117738094Y-63331009D01*
X117738094Y-63331009D02*
X117785713Y-63426247D01*
X122966666Y-65854819D02*
X123299999Y-65378628D01*
X123538094Y-65854819D02*
X123538094Y-64854819D01*
X123538094Y-64854819D02*
X123157142Y-64854819D01*
X123157142Y-64854819D02*
X123061904Y-64902438D01*
X123061904Y-64902438D02*
X123014285Y-64950057D01*
X123014285Y-64950057D02*
X122966666Y-65045295D01*
X122966666Y-65045295D02*
X122966666Y-65188152D01*
X122966666Y-65188152D02*
X123014285Y-65283390D01*
X123014285Y-65283390D02*
X123061904Y-65331009D01*
X123061904Y-65331009D02*
X123157142Y-65378628D01*
X123157142Y-65378628D02*
X123538094Y-65378628D01*
X122490475Y-65854819D02*
X122299999Y-65854819D01*
X122299999Y-65854819D02*
X122204761Y-65807200D01*
X122204761Y-65807200D02*
X122157142Y-65759580D01*
X122157142Y-65759580D02*
X122061904Y-65616723D01*
X122061904Y-65616723D02*
X122014285Y-65426247D01*
X122014285Y-65426247D02*
X122014285Y-65045295D01*
X122014285Y-65045295D02*
X122061904Y-64950057D01*
X122061904Y-64950057D02*
X122109523Y-64902438D01*
X122109523Y-64902438D02*
X122204761Y-64854819D01*
X122204761Y-64854819D02*
X122395237Y-64854819D01*
X122395237Y-64854819D02*
X122490475Y-64902438D01*
X122490475Y-64902438D02*
X122538094Y-64950057D01*
X122538094Y-64950057D02*
X122585713Y-65045295D01*
X122585713Y-65045295D02*
X122585713Y-65283390D01*
X122585713Y-65283390D02*
X122538094Y-65378628D01*
X122538094Y-65378628D02*
X122490475Y-65426247D01*
X122490475Y-65426247D02*
X122395237Y-65473866D01*
X122395237Y-65473866D02*
X122204761Y-65473866D01*
X122204761Y-65473866D02*
X122109523Y-65426247D01*
X122109523Y-65426247D02*
X122061904Y-65378628D01*
X122061904Y-65378628D02*
X122014285Y-65283390D01*
X135142857Y-60454819D02*
X135476190Y-59978628D01*
X135714285Y-60454819D02*
X135714285Y-59454819D01*
X135714285Y-59454819D02*
X135333333Y-59454819D01*
X135333333Y-59454819D02*
X135238095Y-59502438D01*
X135238095Y-59502438D02*
X135190476Y-59550057D01*
X135190476Y-59550057D02*
X135142857Y-59645295D01*
X135142857Y-59645295D02*
X135142857Y-59788152D01*
X135142857Y-59788152D02*
X135190476Y-59883390D01*
X135190476Y-59883390D02*
X135238095Y-59931009D01*
X135238095Y-59931009D02*
X135333333Y-59978628D01*
X135333333Y-59978628D02*
X135714285Y-59978628D01*
X134190476Y-60454819D02*
X134761904Y-60454819D01*
X134476190Y-60454819D02*
X134476190Y-59454819D01*
X134476190Y-59454819D02*
X134571428Y-59597676D01*
X134571428Y-59597676D02*
X134666666Y-59692914D01*
X134666666Y-59692914D02*
X134761904Y-59740533D01*
X133285714Y-59454819D02*
X133761904Y-59454819D01*
X133761904Y-59454819D02*
X133809523Y-59931009D01*
X133809523Y-59931009D02*
X133761904Y-59883390D01*
X133761904Y-59883390D02*
X133666666Y-59835771D01*
X133666666Y-59835771D02*
X133428571Y-59835771D01*
X133428571Y-59835771D02*
X133333333Y-59883390D01*
X133333333Y-59883390D02*
X133285714Y-59931009D01*
X133285714Y-59931009D02*
X133238095Y-60026247D01*
X133238095Y-60026247D02*
X133238095Y-60264342D01*
X133238095Y-60264342D02*
X133285714Y-60359580D01*
X133285714Y-60359580D02*
X133333333Y-60407200D01*
X133333333Y-60407200D02*
X133428571Y-60454819D01*
X133428571Y-60454819D02*
X133666666Y-60454819D01*
X133666666Y-60454819D02*
X133761904Y-60407200D01*
X133761904Y-60407200D02*
X133809523Y-60359580D01*
X125964807Y-79704819D02*
X126298140Y-79228628D01*
X126536235Y-79704819D02*
X126536235Y-78704819D01*
X126536235Y-78704819D02*
X126155283Y-78704819D01*
X126155283Y-78704819D02*
X126060045Y-78752438D01*
X126060045Y-78752438D02*
X126012426Y-78800057D01*
X126012426Y-78800057D02*
X125964807Y-78895295D01*
X125964807Y-78895295D02*
X125964807Y-79038152D01*
X125964807Y-79038152D02*
X126012426Y-79133390D01*
X126012426Y-79133390D02*
X126060045Y-79181009D01*
X126060045Y-79181009D02*
X126155283Y-79228628D01*
X126155283Y-79228628D02*
X126536235Y-79228628D01*
X125012426Y-79704819D02*
X125583854Y-79704819D01*
X125298140Y-79704819D02*
X125298140Y-78704819D01*
X125298140Y-78704819D02*
X125393378Y-78847676D01*
X125393378Y-78847676D02*
X125488616Y-78942914D01*
X125488616Y-78942914D02*
X125583854Y-78990533D01*
X124631473Y-78800057D02*
X124583854Y-78752438D01*
X124583854Y-78752438D02*
X124488616Y-78704819D01*
X124488616Y-78704819D02*
X124250521Y-78704819D01*
X124250521Y-78704819D02*
X124155283Y-78752438D01*
X124155283Y-78752438D02*
X124107664Y-78800057D01*
X124107664Y-78800057D02*
X124060045Y-78895295D01*
X124060045Y-78895295D02*
X124060045Y-78990533D01*
X124060045Y-78990533D02*
X124107664Y-79133390D01*
X124107664Y-79133390D02*
X124679092Y-79704819D01*
X124679092Y-79704819D02*
X124060045Y-79704819D01*
X133454819Y-79357142D02*
X132978628Y-79023809D01*
X133454819Y-78785714D02*
X132454819Y-78785714D01*
X132454819Y-78785714D02*
X132454819Y-79166666D01*
X132454819Y-79166666D02*
X132502438Y-79261904D01*
X132502438Y-79261904D02*
X132550057Y-79309523D01*
X132550057Y-79309523D02*
X132645295Y-79357142D01*
X132645295Y-79357142D02*
X132788152Y-79357142D01*
X132788152Y-79357142D02*
X132883390Y-79309523D01*
X132883390Y-79309523D02*
X132931009Y-79261904D01*
X132931009Y-79261904D02*
X132978628Y-79166666D01*
X132978628Y-79166666D02*
X132978628Y-78785714D01*
X133454819Y-80309523D02*
X133454819Y-79738095D01*
X133454819Y-80023809D02*
X132454819Y-80023809D01*
X132454819Y-80023809D02*
X132597676Y-79928571D01*
X132597676Y-79928571D02*
X132692914Y-79833333D01*
X132692914Y-79833333D02*
X132740533Y-79738095D01*
X132883390Y-80880952D02*
X132835771Y-80785714D01*
X132835771Y-80785714D02*
X132788152Y-80738095D01*
X132788152Y-80738095D02*
X132692914Y-80690476D01*
X132692914Y-80690476D02*
X132645295Y-80690476D01*
X132645295Y-80690476D02*
X132550057Y-80738095D01*
X132550057Y-80738095D02*
X132502438Y-80785714D01*
X132502438Y-80785714D02*
X132454819Y-80880952D01*
X132454819Y-80880952D02*
X132454819Y-81071428D01*
X132454819Y-81071428D02*
X132502438Y-81166666D01*
X132502438Y-81166666D02*
X132550057Y-81214285D01*
X132550057Y-81214285D02*
X132645295Y-81261904D01*
X132645295Y-81261904D02*
X132692914Y-81261904D01*
X132692914Y-81261904D02*
X132788152Y-81214285D01*
X132788152Y-81214285D02*
X132835771Y-81166666D01*
X132835771Y-81166666D02*
X132883390Y-81071428D01*
X132883390Y-81071428D02*
X132883390Y-80880952D01*
X132883390Y-80880952D02*
X132931009Y-80785714D01*
X132931009Y-80785714D02*
X132978628Y-80738095D01*
X132978628Y-80738095D02*
X133073866Y-80690476D01*
X133073866Y-80690476D02*
X133264342Y-80690476D01*
X133264342Y-80690476D02*
X133359580Y-80738095D01*
X133359580Y-80738095D02*
X133407200Y-80785714D01*
X133407200Y-80785714D02*
X133454819Y-80880952D01*
X133454819Y-80880952D02*
X133454819Y-81071428D01*
X133454819Y-81071428D02*
X133407200Y-81166666D01*
X133407200Y-81166666D02*
X133359580Y-81214285D01*
X133359580Y-81214285D02*
X133264342Y-81261904D01*
X133264342Y-81261904D02*
X133073866Y-81261904D01*
X133073866Y-81261904D02*
X132978628Y-81214285D01*
X132978628Y-81214285D02*
X132931009Y-81166666D01*
X132931009Y-81166666D02*
X132883390Y-81071428D01*
X103666666Y-65359580D02*
X103714285Y-65407200D01*
X103714285Y-65407200D02*
X103857142Y-65454819D01*
X103857142Y-65454819D02*
X103952380Y-65454819D01*
X103952380Y-65454819D02*
X104095237Y-65407200D01*
X104095237Y-65407200D02*
X104190475Y-65311961D01*
X104190475Y-65311961D02*
X104238094Y-65216723D01*
X104238094Y-65216723D02*
X104285713Y-65026247D01*
X104285713Y-65026247D02*
X104285713Y-64883390D01*
X104285713Y-64883390D02*
X104238094Y-64692914D01*
X104238094Y-64692914D02*
X104190475Y-64597676D01*
X104190475Y-64597676D02*
X104095237Y-64502438D01*
X104095237Y-64502438D02*
X103952380Y-64454819D01*
X103952380Y-64454819D02*
X103857142Y-64454819D01*
X103857142Y-64454819D02*
X103714285Y-64502438D01*
X103714285Y-64502438D02*
X103666666Y-64550057D01*
X102809523Y-64454819D02*
X102999999Y-64454819D01*
X102999999Y-64454819D02*
X103095237Y-64502438D01*
X103095237Y-64502438D02*
X103142856Y-64550057D01*
X103142856Y-64550057D02*
X103238094Y-64692914D01*
X103238094Y-64692914D02*
X103285713Y-64883390D01*
X103285713Y-64883390D02*
X103285713Y-65264342D01*
X103285713Y-65264342D02*
X103238094Y-65359580D01*
X103238094Y-65359580D02*
X103190475Y-65407200D01*
X103190475Y-65407200D02*
X103095237Y-65454819D01*
X103095237Y-65454819D02*
X102904761Y-65454819D01*
X102904761Y-65454819D02*
X102809523Y-65407200D01*
X102809523Y-65407200D02*
X102761904Y-65359580D01*
X102761904Y-65359580D02*
X102714285Y-65264342D01*
X102714285Y-65264342D02*
X102714285Y-65026247D01*
X102714285Y-65026247D02*
X102761904Y-64931009D01*
X102761904Y-64931009D02*
X102809523Y-64883390D01*
X102809523Y-64883390D02*
X102904761Y-64835771D01*
X102904761Y-64835771D02*
X103095237Y-64835771D01*
X103095237Y-64835771D02*
X103190475Y-64883390D01*
X103190475Y-64883390D02*
X103238094Y-64931009D01*
X103238094Y-64931009D02*
X103285713Y-65026247D01*
X126042857Y-71754819D02*
X126376190Y-71278628D01*
X126614285Y-71754819D02*
X126614285Y-70754819D01*
X126614285Y-70754819D02*
X126233333Y-70754819D01*
X126233333Y-70754819D02*
X126138095Y-70802438D01*
X126138095Y-70802438D02*
X126090476Y-70850057D01*
X126090476Y-70850057D02*
X126042857Y-70945295D01*
X126042857Y-70945295D02*
X126042857Y-71088152D01*
X126042857Y-71088152D02*
X126090476Y-71183390D01*
X126090476Y-71183390D02*
X126138095Y-71231009D01*
X126138095Y-71231009D02*
X126233333Y-71278628D01*
X126233333Y-71278628D02*
X126614285Y-71278628D01*
X125090476Y-71754819D02*
X125661904Y-71754819D01*
X125376190Y-71754819D02*
X125376190Y-70754819D01*
X125376190Y-70754819D02*
X125471428Y-70897676D01*
X125471428Y-70897676D02*
X125566666Y-70992914D01*
X125566666Y-70992914D02*
X125661904Y-71040533D01*
X124757142Y-70754819D02*
X124138095Y-70754819D01*
X124138095Y-70754819D02*
X124471428Y-71135771D01*
X124471428Y-71135771D02*
X124328571Y-71135771D01*
X124328571Y-71135771D02*
X124233333Y-71183390D01*
X124233333Y-71183390D02*
X124185714Y-71231009D01*
X124185714Y-71231009D02*
X124138095Y-71326247D01*
X124138095Y-71326247D02*
X124138095Y-71564342D01*
X124138095Y-71564342D02*
X124185714Y-71659580D01*
X124185714Y-71659580D02*
X124233333Y-71707200D01*
X124233333Y-71707200D02*
X124328571Y-71754819D01*
X124328571Y-71754819D02*
X124614285Y-71754819D01*
X124614285Y-71754819D02*
X124709523Y-71707200D01*
X124709523Y-71707200D02*
X124757142Y-71659580D01*
X132161904Y-68754819D02*
X132161904Y-69564342D01*
X132161904Y-69564342D02*
X132114285Y-69659580D01*
X132114285Y-69659580D02*
X132066666Y-69707200D01*
X132066666Y-69707200D02*
X131971428Y-69754819D01*
X131971428Y-69754819D02*
X131780952Y-69754819D01*
X131780952Y-69754819D02*
X131685714Y-69707200D01*
X131685714Y-69707200D02*
X131638095Y-69659580D01*
X131638095Y-69659580D02*
X131590476Y-69564342D01*
X131590476Y-69564342D02*
X131590476Y-68754819D01*
X131161904Y-68850057D02*
X131114285Y-68802438D01*
X131114285Y-68802438D02*
X131019047Y-68754819D01*
X131019047Y-68754819D02*
X130780952Y-68754819D01*
X130780952Y-68754819D02*
X130685714Y-68802438D01*
X130685714Y-68802438D02*
X130638095Y-68850057D01*
X130638095Y-68850057D02*
X130590476Y-68945295D01*
X130590476Y-68945295D02*
X130590476Y-69040533D01*
X130590476Y-69040533D02*
X130638095Y-69183390D01*
X130638095Y-69183390D02*
X131209523Y-69754819D01*
X131209523Y-69754819D02*
X130590476Y-69754819D01*
X103666666Y-63454819D02*
X103999999Y-62978628D01*
X104238094Y-63454819D02*
X104238094Y-62454819D01*
X104238094Y-62454819D02*
X103857142Y-62454819D01*
X103857142Y-62454819D02*
X103761904Y-62502438D01*
X103761904Y-62502438D02*
X103714285Y-62550057D01*
X103714285Y-62550057D02*
X103666666Y-62645295D01*
X103666666Y-62645295D02*
X103666666Y-62788152D01*
X103666666Y-62788152D02*
X103714285Y-62883390D01*
X103714285Y-62883390D02*
X103761904Y-62931009D01*
X103761904Y-62931009D02*
X103857142Y-62978628D01*
X103857142Y-62978628D02*
X104238094Y-62978628D01*
X103333332Y-62454819D02*
X102714285Y-62454819D01*
X102714285Y-62454819D02*
X103047618Y-62835771D01*
X103047618Y-62835771D02*
X102904761Y-62835771D01*
X102904761Y-62835771D02*
X102809523Y-62883390D01*
X102809523Y-62883390D02*
X102761904Y-62931009D01*
X102761904Y-62931009D02*
X102714285Y-63026247D01*
X102714285Y-63026247D02*
X102714285Y-63264342D01*
X102714285Y-63264342D02*
X102761904Y-63359580D01*
X102761904Y-63359580D02*
X102809523Y-63407200D01*
X102809523Y-63407200D02*
X102904761Y-63454819D01*
X102904761Y-63454819D02*
X103190475Y-63454819D01*
X103190475Y-63454819D02*
X103285713Y-63407200D01*
X103285713Y-63407200D02*
X103333332Y-63359580D01*
X117642857Y-73429580D02*
X117690476Y-73477200D01*
X117690476Y-73477200D02*
X117833333Y-73524819D01*
X117833333Y-73524819D02*
X117928571Y-73524819D01*
X117928571Y-73524819D02*
X118071428Y-73477200D01*
X118071428Y-73477200D02*
X118166666Y-73381961D01*
X118166666Y-73381961D02*
X118214285Y-73286723D01*
X118214285Y-73286723D02*
X118261904Y-73096247D01*
X118261904Y-73096247D02*
X118261904Y-72953390D01*
X118261904Y-72953390D02*
X118214285Y-72762914D01*
X118214285Y-72762914D02*
X118166666Y-72667676D01*
X118166666Y-72667676D02*
X118071428Y-72572438D01*
X118071428Y-72572438D02*
X117928571Y-72524819D01*
X117928571Y-72524819D02*
X117833333Y-72524819D01*
X117833333Y-72524819D02*
X117690476Y-72572438D01*
X117690476Y-72572438D02*
X117642857Y-72620057D01*
X116690476Y-73524819D02*
X117261904Y-73524819D01*
X116976190Y-73524819D02*
X116976190Y-72524819D01*
X116976190Y-72524819D02*
X117071428Y-72667676D01*
X117071428Y-72667676D02*
X117166666Y-72762914D01*
X117166666Y-72762914D02*
X117261904Y-72810533D01*
X115833333Y-72524819D02*
X116023809Y-72524819D01*
X116023809Y-72524819D02*
X116119047Y-72572438D01*
X116119047Y-72572438D02*
X116166666Y-72620057D01*
X116166666Y-72620057D02*
X116261904Y-72762914D01*
X116261904Y-72762914D02*
X116309523Y-72953390D01*
X116309523Y-72953390D02*
X116309523Y-73334342D01*
X116309523Y-73334342D02*
X116261904Y-73429580D01*
X116261904Y-73429580D02*
X116214285Y-73477200D01*
X116214285Y-73477200D02*
X116119047Y-73524819D01*
X116119047Y-73524819D02*
X115928571Y-73524819D01*
X115928571Y-73524819D02*
X115833333Y-73477200D01*
X115833333Y-73477200D02*
X115785714Y-73429580D01*
X115785714Y-73429580D02*
X115738095Y-73334342D01*
X115738095Y-73334342D02*
X115738095Y-73096247D01*
X115738095Y-73096247D02*
X115785714Y-73001009D01*
X115785714Y-73001009D02*
X115833333Y-72953390D01*
X115833333Y-72953390D02*
X115928571Y-72905771D01*
X115928571Y-72905771D02*
X116119047Y-72905771D01*
X116119047Y-72905771D02*
X116214285Y-72953390D01*
X116214285Y-72953390D02*
X116261904Y-73001009D01*
X116261904Y-73001009D02*
X116309523Y-73096247D01*
X108464807Y-81897332D02*
X108512426Y-81944952D01*
X108512426Y-81944952D02*
X108655283Y-81992571D01*
X108655283Y-81992571D02*
X108750521Y-81992571D01*
X108750521Y-81992571D02*
X108893378Y-81944952D01*
X108893378Y-81944952D02*
X108988616Y-81849713D01*
X108988616Y-81849713D02*
X109036235Y-81754475D01*
X109036235Y-81754475D02*
X109083854Y-81563999D01*
X109083854Y-81563999D02*
X109083854Y-81421142D01*
X109083854Y-81421142D02*
X109036235Y-81230666D01*
X109036235Y-81230666D02*
X108988616Y-81135428D01*
X108988616Y-81135428D02*
X108893378Y-81040190D01*
X108893378Y-81040190D02*
X108750521Y-80992571D01*
X108750521Y-80992571D02*
X108655283Y-80992571D01*
X108655283Y-80992571D02*
X108512426Y-81040190D01*
X108512426Y-81040190D02*
X108464807Y-81087809D01*
X107512426Y-81992571D02*
X108083854Y-81992571D01*
X107798140Y-81992571D02*
X107798140Y-80992571D01*
X107798140Y-80992571D02*
X107893378Y-81135428D01*
X107893378Y-81135428D02*
X107988616Y-81230666D01*
X107988616Y-81230666D02*
X108083854Y-81278285D01*
X106893378Y-80992571D02*
X106798140Y-80992571D01*
X106798140Y-80992571D02*
X106702902Y-81040190D01*
X106702902Y-81040190D02*
X106655283Y-81087809D01*
X106655283Y-81087809D02*
X106607664Y-81183047D01*
X106607664Y-81183047D02*
X106560045Y-81373523D01*
X106560045Y-81373523D02*
X106560045Y-81611618D01*
X106560045Y-81611618D02*
X106607664Y-81802094D01*
X106607664Y-81802094D02*
X106655283Y-81897332D01*
X106655283Y-81897332D02*
X106702902Y-81944952D01*
X106702902Y-81944952D02*
X106798140Y-81992571D01*
X106798140Y-81992571D02*
X106893378Y-81992571D01*
X106893378Y-81992571D02*
X106988616Y-81944952D01*
X106988616Y-81944952D02*
X107036235Y-81897332D01*
X107036235Y-81897332D02*
X107083854Y-81802094D01*
X107083854Y-81802094D02*
X107131473Y-81611618D01*
X107131473Y-81611618D02*
X107131473Y-81373523D01*
X107131473Y-81373523D02*
X107083854Y-81183047D01*
X107083854Y-81183047D02*
X107036235Y-81087809D01*
X107036235Y-81087809D02*
X106988616Y-81040190D01*
X106988616Y-81040190D02*
X106893378Y-80992571D01*
X103666666Y-69859580D02*
X103714285Y-69907200D01*
X103714285Y-69907200D02*
X103857142Y-69954819D01*
X103857142Y-69954819D02*
X103952380Y-69954819D01*
X103952380Y-69954819D02*
X104095237Y-69907200D01*
X104095237Y-69907200D02*
X104190475Y-69811961D01*
X104190475Y-69811961D02*
X104238094Y-69716723D01*
X104238094Y-69716723D02*
X104285713Y-69526247D01*
X104285713Y-69526247D02*
X104285713Y-69383390D01*
X104285713Y-69383390D02*
X104238094Y-69192914D01*
X104238094Y-69192914D02*
X104190475Y-69097676D01*
X104190475Y-69097676D02*
X104095237Y-69002438D01*
X104095237Y-69002438D02*
X103952380Y-68954819D01*
X103952380Y-68954819D02*
X103857142Y-68954819D01*
X103857142Y-68954819D02*
X103714285Y-69002438D01*
X103714285Y-69002438D02*
X103666666Y-69050057D01*
X102714285Y-69954819D02*
X103285713Y-69954819D01*
X102999999Y-69954819D02*
X102999999Y-68954819D01*
X102999999Y-68954819D02*
X103095237Y-69097676D01*
X103095237Y-69097676D02*
X103190475Y-69192914D01*
X103190475Y-69192914D02*
X103285713Y-69240533D01*
X125142857Y-62454819D02*
X125476190Y-61978628D01*
X125714285Y-62454819D02*
X125714285Y-61454819D01*
X125714285Y-61454819D02*
X125333333Y-61454819D01*
X125333333Y-61454819D02*
X125238095Y-61502438D01*
X125238095Y-61502438D02*
X125190476Y-61550057D01*
X125190476Y-61550057D02*
X125142857Y-61645295D01*
X125142857Y-61645295D02*
X125142857Y-61788152D01*
X125142857Y-61788152D02*
X125190476Y-61883390D01*
X125190476Y-61883390D02*
X125238095Y-61931009D01*
X125238095Y-61931009D02*
X125333333Y-61978628D01*
X125333333Y-61978628D02*
X125714285Y-61978628D01*
X124190476Y-62454819D02*
X124761904Y-62454819D01*
X124476190Y-62454819D02*
X124476190Y-61454819D01*
X124476190Y-61454819D02*
X124571428Y-61597676D01*
X124571428Y-61597676D02*
X124666666Y-61692914D01*
X124666666Y-61692914D02*
X124761904Y-61740533D01*
X123238095Y-62454819D02*
X123809523Y-62454819D01*
X123523809Y-62454819D02*
X123523809Y-61454819D01*
X123523809Y-61454819D02*
X123619047Y-61597676D01*
X123619047Y-61597676D02*
X123714285Y-61692914D01*
X123714285Y-61692914D02*
X123809523Y-61740533D01*
X121166666Y-68359580D02*
X121214285Y-68407200D01*
X121214285Y-68407200D02*
X121357142Y-68454819D01*
X121357142Y-68454819D02*
X121452380Y-68454819D01*
X121452380Y-68454819D02*
X121595237Y-68407200D01*
X121595237Y-68407200D02*
X121690475Y-68311961D01*
X121690475Y-68311961D02*
X121738094Y-68216723D01*
X121738094Y-68216723D02*
X121785713Y-68026247D01*
X121785713Y-68026247D02*
X121785713Y-67883390D01*
X121785713Y-67883390D02*
X121738094Y-67692914D01*
X121738094Y-67692914D02*
X121690475Y-67597676D01*
X121690475Y-67597676D02*
X121595237Y-67502438D01*
X121595237Y-67502438D02*
X121452380Y-67454819D01*
X121452380Y-67454819D02*
X121357142Y-67454819D01*
X121357142Y-67454819D02*
X121214285Y-67502438D01*
X121214285Y-67502438D02*
X121166666Y-67550057D01*
X120261904Y-67454819D02*
X120738094Y-67454819D01*
X120738094Y-67454819D02*
X120785713Y-67931009D01*
X120785713Y-67931009D02*
X120738094Y-67883390D01*
X120738094Y-67883390D02*
X120642856Y-67835771D01*
X120642856Y-67835771D02*
X120404761Y-67835771D01*
X120404761Y-67835771D02*
X120309523Y-67883390D01*
X120309523Y-67883390D02*
X120261904Y-67931009D01*
X120261904Y-67931009D02*
X120214285Y-68026247D01*
X120214285Y-68026247D02*
X120214285Y-68264342D01*
X120214285Y-68264342D02*
X120261904Y-68359580D01*
X120261904Y-68359580D02*
X120309523Y-68407200D01*
X120309523Y-68407200D02*
X120404761Y-68454819D01*
X120404761Y-68454819D02*
X120642856Y-68454819D01*
X120642856Y-68454819D02*
X120738094Y-68407200D01*
X120738094Y-68407200D02*
X120785713Y-68359580D01*
X108464807Y-75397332D02*
X108512426Y-75444952D01*
X108512426Y-75444952D02*
X108655283Y-75492571D01*
X108655283Y-75492571D02*
X108750521Y-75492571D01*
X108750521Y-75492571D02*
X108893378Y-75444952D01*
X108893378Y-75444952D02*
X108988616Y-75349713D01*
X108988616Y-75349713D02*
X109036235Y-75254475D01*
X109036235Y-75254475D02*
X109083854Y-75063999D01*
X109083854Y-75063999D02*
X109083854Y-74921142D01*
X109083854Y-74921142D02*
X109036235Y-74730666D01*
X109036235Y-74730666D02*
X108988616Y-74635428D01*
X108988616Y-74635428D02*
X108893378Y-74540190D01*
X108893378Y-74540190D02*
X108750521Y-74492571D01*
X108750521Y-74492571D02*
X108655283Y-74492571D01*
X108655283Y-74492571D02*
X108512426Y-74540190D01*
X108512426Y-74540190D02*
X108464807Y-74587809D01*
X107512426Y-75492571D02*
X108083854Y-75492571D01*
X107798140Y-75492571D02*
X107798140Y-74492571D01*
X107798140Y-74492571D02*
X107893378Y-74635428D01*
X107893378Y-74635428D02*
X107988616Y-74730666D01*
X107988616Y-74730666D02*
X108083854Y-74778285D01*
X107131473Y-74587809D02*
X107083854Y-74540190D01*
X107083854Y-74540190D02*
X106988616Y-74492571D01*
X106988616Y-74492571D02*
X106750521Y-74492571D01*
X106750521Y-74492571D02*
X106655283Y-74540190D01*
X106655283Y-74540190D02*
X106607664Y-74587809D01*
X106607664Y-74587809D02*
X106560045Y-74683047D01*
X106560045Y-74683047D02*
X106560045Y-74778285D01*
X106560045Y-74778285D02*
X106607664Y-74921142D01*
X106607664Y-74921142D02*
X107179092Y-75492571D01*
X107179092Y-75492571D02*
X106560045Y-75492571D01*
X112666666Y-64179580D02*
X112714285Y-64227200D01*
X112714285Y-64227200D02*
X112857142Y-64274819D01*
X112857142Y-64274819D02*
X112952380Y-64274819D01*
X112952380Y-64274819D02*
X113095237Y-64227200D01*
X113095237Y-64227200D02*
X113190475Y-64131961D01*
X113190475Y-64131961D02*
X113238094Y-64036723D01*
X113238094Y-64036723D02*
X113285713Y-63846247D01*
X113285713Y-63846247D02*
X113285713Y-63703390D01*
X113285713Y-63703390D02*
X113238094Y-63512914D01*
X113238094Y-63512914D02*
X113190475Y-63417676D01*
X113190475Y-63417676D02*
X113095237Y-63322438D01*
X113095237Y-63322438D02*
X112952380Y-63274819D01*
X112952380Y-63274819D02*
X112857142Y-63274819D01*
X112857142Y-63274819D02*
X112714285Y-63322438D01*
X112714285Y-63322438D02*
X112666666Y-63370057D01*
X112095237Y-63703390D02*
X112190475Y-63655771D01*
X112190475Y-63655771D02*
X112238094Y-63608152D01*
X112238094Y-63608152D02*
X112285713Y-63512914D01*
X112285713Y-63512914D02*
X112285713Y-63465295D01*
X112285713Y-63465295D02*
X112238094Y-63370057D01*
X112238094Y-63370057D02*
X112190475Y-63322438D01*
X112190475Y-63322438D02*
X112095237Y-63274819D01*
X112095237Y-63274819D02*
X111904761Y-63274819D01*
X111904761Y-63274819D02*
X111809523Y-63322438D01*
X111809523Y-63322438D02*
X111761904Y-63370057D01*
X111761904Y-63370057D02*
X111714285Y-63465295D01*
X111714285Y-63465295D02*
X111714285Y-63512914D01*
X111714285Y-63512914D02*
X111761904Y-63608152D01*
X111761904Y-63608152D02*
X111809523Y-63655771D01*
X111809523Y-63655771D02*
X111904761Y-63703390D01*
X111904761Y-63703390D02*
X112095237Y-63703390D01*
X112095237Y-63703390D02*
X112190475Y-63751009D01*
X112190475Y-63751009D02*
X112238094Y-63798628D01*
X112238094Y-63798628D02*
X112285713Y-63893866D01*
X112285713Y-63893866D02*
X112285713Y-64084342D01*
X112285713Y-64084342D02*
X112238094Y-64179580D01*
X112238094Y-64179580D02*
X112190475Y-64227200D01*
X112190475Y-64227200D02*
X112095237Y-64274819D01*
X112095237Y-64274819D02*
X111904761Y-64274819D01*
X111904761Y-64274819D02*
X111809523Y-64227200D01*
X111809523Y-64227200D02*
X111761904Y-64179580D01*
X111761904Y-64179580D02*
X111714285Y-64084342D01*
X111714285Y-64084342D02*
X111714285Y-63893866D01*
X111714285Y-63893866D02*
X111761904Y-63798628D01*
X111761904Y-63798628D02*
X111809523Y-63751009D01*
X111809523Y-63751009D02*
X111904761Y-63703390D01*
X135954819Y-71857142D02*
X135478628Y-71523809D01*
X135954819Y-71285714D02*
X134954819Y-71285714D01*
X134954819Y-71285714D02*
X134954819Y-71666666D01*
X134954819Y-71666666D02*
X135002438Y-71761904D01*
X135002438Y-71761904D02*
X135050057Y-71809523D01*
X135050057Y-71809523D02*
X135145295Y-71857142D01*
X135145295Y-71857142D02*
X135288152Y-71857142D01*
X135288152Y-71857142D02*
X135383390Y-71809523D01*
X135383390Y-71809523D02*
X135431009Y-71761904D01*
X135431009Y-71761904D02*
X135478628Y-71666666D01*
X135478628Y-71666666D02*
X135478628Y-71285714D01*
X135954819Y-72809523D02*
X135954819Y-72238095D01*
X135954819Y-72523809D02*
X134954819Y-72523809D01*
X134954819Y-72523809D02*
X135097676Y-72428571D01*
X135097676Y-72428571D02*
X135192914Y-72333333D01*
X135192914Y-72333333D02*
X135240533Y-72238095D01*
X134954819Y-73142857D02*
X134954819Y-73809523D01*
X134954819Y-73809523D02*
X135954819Y-73380952D01*
X135359580Y-79357142D02*
X135407200Y-79309523D01*
X135407200Y-79309523D02*
X135454819Y-79166666D01*
X135454819Y-79166666D02*
X135454819Y-79071428D01*
X135454819Y-79071428D02*
X135407200Y-78928571D01*
X135407200Y-78928571D02*
X135311961Y-78833333D01*
X135311961Y-78833333D02*
X135216723Y-78785714D01*
X135216723Y-78785714D02*
X135026247Y-78738095D01*
X135026247Y-78738095D02*
X134883390Y-78738095D01*
X134883390Y-78738095D02*
X134692914Y-78785714D01*
X134692914Y-78785714D02*
X134597676Y-78833333D01*
X134597676Y-78833333D02*
X134502438Y-78928571D01*
X134502438Y-78928571D02*
X134454819Y-79071428D01*
X134454819Y-79071428D02*
X134454819Y-79166666D01*
X134454819Y-79166666D02*
X134502438Y-79309523D01*
X134502438Y-79309523D02*
X134550057Y-79357142D01*
X135454819Y-80309523D02*
X135454819Y-79738095D01*
X135454819Y-80023809D02*
X134454819Y-80023809D01*
X134454819Y-80023809D02*
X134597676Y-79928571D01*
X134597676Y-79928571D02*
X134692914Y-79833333D01*
X134692914Y-79833333D02*
X134740533Y-79738095D01*
X134454819Y-80642857D02*
X134454819Y-81309523D01*
X134454819Y-81309523D02*
X135454819Y-80880952D01*
X123166666Y-68054819D02*
X123499999Y-67578628D01*
X123738094Y-68054819D02*
X123738094Y-67054819D01*
X123738094Y-67054819D02*
X123357142Y-67054819D01*
X123357142Y-67054819D02*
X123261904Y-67102438D01*
X123261904Y-67102438D02*
X123214285Y-67150057D01*
X123214285Y-67150057D02*
X123166666Y-67245295D01*
X123166666Y-67245295D02*
X123166666Y-67388152D01*
X123166666Y-67388152D02*
X123214285Y-67483390D01*
X123214285Y-67483390D02*
X123261904Y-67531009D01*
X123261904Y-67531009D02*
X123357142Y-67578628D01*
X123357142Y-67578628D02*
X123738094Y-67578628D01*
X122595237Y-67483390D02*
X122690475Y-67435771D01*
X122690475Y-67435771D02*
X122738094Y-67388152D01*
X122738094Y-67388152D02*
X122785713Y-67292914D01*
X122785713Y-67292914D02*
X122785713Y-67245295D01*
X122785713Y-67245295D02*
X122738094Y-67150057D01*
X122738094Y-67150057D02*
X122690475Y-67102438D01*
X122690475Y-67102438D02*
X122595237Y-67054819D01*
X122595237Y-67054819D02*
X122404761Y-67054819D01*
X122404761Y-67054819D02*
X122309523Y-67102438D01*
X122309523Y-67102438D02*
X122261904Y-67150057D01*
X122261904Y-67150057D02*
X122214285Y-67245295D01*
X122214285Y-67245295D02*
X122214285Y-67292914D01*
X122214285Y-67292914D02*
X122261904Y-67388152D01*
X122261904Y-67388152D02*
X122309523Y-67435771D01*
X122309523Y-67435771D02*
X122404761Y-67483390D01*
X122404761Y-67483390D02*
X122595237Y-67483390D01*
X122595237Y-67483390D02*
X122690475Y-67531009D01*
X122690475Y-67531009D02*
X122738094Y-67578628D01*
X122738094Y-67578628D02*
X122785713Y-67673866D01*
X122785713Y-67673866D02*
X122785713Y-67864342D01*
X122785713Y-67864342D02*
X122738094Y-67959580D01*
X122738094Y-67959580D02*
X122690475Y-68007200D01*
X122690475Y-68007200D02*
X122595237Y-68054819D01*
X122595237Y-68054819D02*
X122404761Y-68054819D01*
X122404761Y-68054819D02*
X122309523Y-68007200D01*
X122309523Y-68007200D02*
X122261904Y-67959580D01*
X122261904Y-67959580D02*
X122214285Y-67864342D01*
X122214285Y-67864342D02*
X122214285Y-67673866D01*
X122214285Y-67673866D02*
X122261904Y-67578628D01*
X122261904Y-67578628D02*
X122309523Y-67531009D01*
X122309523Y-67531009D02*
X122404761Y-67483390D01*
X108464807Y-79954819D02*
X108798140Y-79478628D01*
X109036235Y-79954819D02*
X109036235Y-78954819D01*
X109036235Y-78954819D02*
X108655283Y-78954819D01*
X108655283Y-78954819D02*
X108560045Y-79002438D01*
X108560045Y-79002438D02*
X108512426Y-79050057D01*
X108512426Y-79050057D02*
X108464807Y-79145295D01*
X108464807Y-79145295D02*
X108464807Y-79288152D01*
X108464807Y-79288152D02*
X108512426Y-79383390D01*
X108512426Y-79383390D02*
X108560045Y-79431009D01*
X108560045Y-79431009D02*
X108655283Y-79478628D01*
X108655283Y-79478628D02*
X109036235Y-79478628D01*
X107512426Y-79954819D02*
X108083854Y-79954819D01*
X107798140Y-79954819D02*
X107798140Y-78954819D01*
X107798140Y-78954819D02*
X107893378Y-79097676D01*
X107893378Y-79097676D02*
X107988616Y-79192914D01*
X107988616Y-79192914D02*
X108083854Y-79240533D01*
X106893378Y-78954819D02*
X106798140Y-78954819D01*
X106798140Y-78954819D02*
X106702902Y-79002438D01*
X106702902Y-79002438D02*
X106655283Y-79050057D01*
X106655283Y-79050057D02*
X106607664Y-79145295D01*
X106607664Y-79145295D02*
X106560045Y-79335771D01*
X106560045Y-79335771D02*
X106560045Y-79573866D01*
X106560045Y-79573866D02*
X106607664Y-79764342D01*
X106607664Y-79764342D02*
X106655283Y-79859580D01*
X106655283Y-79859580D02*
X106702902Y-79907200D01*
X106702902Y-79907200D02*
X106798140Y-79954819D01*
X106798140Y-79954819D02*
X106893378Y-79954819D01*
X106893378Y-79954819D02*
X106988616Y-79907200D01*
X106988616Y-79907200D02*
X107036235Y-79859580D01*
X107036235Y-79859580D02*
X107083854Y-79764342D01*
X107083854Y-79764342D02*
X107131473Y-79573866D01*
X107131473Y-79573866D02*
X107131473Y-79335771D01*
X107131473Y-79335771D02*
X107083854Y-79145295D01*
X107083854Y-79145295D02*
X107036235Y-79050057D01*
X107036235Y-79050057D02*
X106988616Y-79002438D01*
X106988616Y-79002438D02*
X106893378Y-78954819D01*
X103666666Y-67954819D02*
X103999999Y-67478628D01*
X104238094Y-67954819D02*
X104238094Y-66954819D01*
X104238094Y-66954819D02*
X103857142Y-66954819D01*
X103857142Y-66954819D02*
X103761904Y-67002438D01*
X103761904Y-67002438D02*
X103714285Y-67050057D01*
X103714285Y-67050057D02*
X103666666Y-67145295D01*
X103666666Y-67145295D02*
X103666666Y-67288152D01*
X103666666Y-67288152D02*
X103714285Y-67383390D01*
X103714285Y-67383390D02*
X103761904Y-67431009D01*
X103761904Y-67431009D02*
X103857142Y-67478628D01*
X103857142Y-67478628D02*
X104238094Y-67478628D01*
X102714285Y-67954819D02*
X103285713Y-67954819D01*
X102999999Y-67954819D02*
X102999999Y-66954819D01*
X102999999Y-66954819D02*
X103095237Y-67097676D01*
X103095237Y-67097676D02*
X103190475Y-67192914D01*
X103190475Y-67192914D02*
X103285713Y-67240533D01*
X123859832Y-71535192D02*
X123907452Y-71487573D01*
X123907452Y-71487573D02*
X123955071Y-71344716D01*
X123955071Y-71344716D02*
X123955071Y-71249478D01*
X123955071Y-71249478D02*
X123907452Y-71106621D01*
X123907452Y-71106621D02*
X123812213Y-71011383D01*
X123812213Y-71011383D02*
X123716975Y-70963764D01*
X123716975Y-70963764D02*
X123526499Y-70916145D01*
X123526499Y-70916145D02*
X123383642Y-70916145D01*
X123383642Y-70916145D02*
X123193166Y-70963764D01*
X123193166Y-70963764D02*
X123097928Y-71011383D01*
X123097928Y-71011383D02*
X123002690Y-71106621D01*
X123002690Y-71106621D02*
X122955071Y-71249478D01*
X122955071Y-71249478D02*
X122955071Y-71344716D01*
X122955071Y-71344716D02*
X123002690Y-71487573D01*
X123002690Y-71487573D02*
X123050309Y-71535192D01*
X123955071Y-72487573D02*
X123955071Y-71916145D01*
X123955071Y-72201859D02*
X122955071Y-72201859D01*
X122955071Y-72201859D02*
X123097928Y-72106621D01*
X123097928Y-72106621D02*
X123193166Y-72011383D01*
X123193166Y-72011383D02*
X123240785Y-71916145D01*
X122955071Y-73392335D02*
X122955071Y-72916145D01*
X122955071Y-72916145D02*
X123431261Y-72868526D01*
X123431261Y-72868526D02*
X123383642Y-72916145D01*
X123383642Y-72916145D02*
X123336023Y-73011383D01*
X123336023Y-73011383D02*
X123336023Y-73249478D01*
X123336023Y-73249478D02*
X123383642Y-73344716D01*
X123383642Y-73344716D02*
X123431261Y-73392335D01*
X123431261Y-73392335D02*
X123526499Y-73439954D01*
X123526499Y-73439954D02*
X123764594Y-73439954D01*
X123764594Y-73439954D02*
X123859832Y-73392335D01*
X123859832Y-73392335D02*
X123907452Y-73344716D01*
X123907452Y-73344716D02*
X123955071Y-73249478D01*
X123955071Y-73249478D02*
X123955071Y-73011383D01*
X123955071Y-73011383D02*
X123907452Y-72916145D01*
X123907452Y-72916145D02*
X123859832Y-72868526D01*
D11*
%TO.C,U6*%
X115323600Y-79024000D02*
X118676400Y-79024000D01*
X118676400Y-75976000D02*
X115323600Y-75976000D01*
D12*
G36*
X120314700Y-78690752D02*
G01*
X120060700Y-78690752D01*
X120060700Y-78309752D01*
X120314700Y-78309752D01*
X120314700Y-78690752D01*
G37*
D11*
%TO.C,U1*%
X110823600Y-70024000D02*
X114176400Y-70024000D01*
X114176400Y-66976000D02*
X110823600Y-66976000D01*
D12*
G36*
X115814700Y-69690752D02*
G01*
X115560700Y-69690752D01*
X115560700Y-69309752D01*
X115814700Y-69309752D01*
X115814700Y-69690752D01*
G37*
D13*
%TO.C,C11*%
X122761252Y-82235000D02*
X122238748Y-82235000D01*
X122761252Y-80765000D02*
X122238748Y-80765000D01*
%TO.C,C9*%
X130761252Y-64235000D02*
X130238748Y-64235000D01*
X130761252Y-62765000D02*
X130238748Y-62765000D01*
%TO.C,R2*%
X118227064Y-70735000D02*
X117772936Y-70735000D01*
X118227064Y-69265000D02*
X117772936Y-69265000D01*
%TO.C,R14*%
X111272936Y-77735000D02*
X111727064Y-77735000D01*
X111272936Y-76265000D02*
X111727064Y-76265000D01*
%TO.C,R16*%
X120727500Y-75272936D02*
X120727500Y-75727064D01*
X122197500Y-75272936D02*
X122197500Y-75727064D01*
%TO.C,R6*%
X118227064Y-65735000D02*
X117772936Y-65735000D01*
X118227064Y-64265000D02*
X117772936Y-64265000D01*
%TO.C,R9*%
X125272936Y-66235000D02*
X125727064Y-66235000D01*
X125272936Y-64765000D02*
X125727064Y-64765000D01*
%TO.C,R15*%
X133765000Y-62272936D02*
X133765000Y-62727064D01*
X135235000Y-62272936D02*
X135235000Y-62727064D01*
%TO.C,R12*%
X122764564Y-79985000D02*
X122310436Y-79985000D01*
X122764564Y-78515000D02*
X122310436Y-78515000D01*
%TO.C,R18*%
X132265000Y-76727064D02*
X132265000Y-76272936D01*
X133735000Y-76727064D02*
X133735000Y-76272936D01*
%TO.C,C6*%
X106238748Y-64265000D02*
X106761252Y-64265000D01*
X106238748Y-65735000D02*
X106761252Y-65735000D01*
%TO.C,R13*%
X125272936Y-70235000D02*
X125727064Y-70235000D01*
X125272936Y-68765000D02*
X125727064Y-68765000D01*
D14*
%TO.C,U2*%
X136040000Y-64815000D02*
G75*
G02*
X135840000Y-64815000I-100000J0D01*
G01*
X135840000Y-64815000D02*
G75*
G02*
X136040000Y-64815000I100000J0D01*
G01*
D15*
X129300000Y-70300000D02*
X133700000Y-70300000D01*
X129300000Y-64700000D02*
X133700000Y-64700000D01*
D13*
%TO.C,R3*%
X106272936Y-62265000D02*
X106727064Y-62265000D01*
X106272936Y-63735000D02*
X106727064Y-63735000D01*
%TO.C,C16*%
X116738748Y-74015000D02*
X117261252Y-74015000D01*
X116738748Y-75485000D02*
X117261252Y-75485000D01*
%TO.C,C10*%
X111238748Y-82235000D02*
X111761252Y-82235000D01*
X111238748Y-80765000D02*
X111761252Y-80765000D01*
%TO.C,C1*%
X106238748Y-68765000D02*
X106761252Y-68765000D01*
X106238748Y-70235000D02*
X106761252Y-70235000D01*
%TO.C,R11*%
X125272936Y-64235000D02*
X125727064Y-64235000D01*
X125272936Y-62765000D02*
X125727064Y-62765000D01*
%TO.C,C5*%
X118298752Y-68735000D02*
X117776248Y-68735000D01*
X118298752Y-67265000D02*
X117776248Y-67265000D01*
%TO.C,C12*%
X111238748Y-75735000D02*
X111761252Y-75735000D01*
X111238748Y-74265000D02*
X111761252Y-74265000D01*
%TO.C,C8*%
X112238748Y-66235000D02*
X112761252Y-66235000D01*
X112238748Y-64765000D02*
X112761252Y-64765000D01*
%TO.C,R17*%
X133265000Y-72727064D02*
X133265000Y-72272936D01*
X134735000Y-72727064D02*
X134735000Y-72272936D01*
%TO.C,C17*%
X134265000Y-76761252D02*
X134265000Y-76238748D01*
X135735000Y-76761252D02*
X135735000Y-76238748D01*
%TO.C,R8*%
X125272936Y-68235000D02*
X125727064Y-68235000D01*
X125272936Y-66765000D02*
X125727064Y-66765000D01*
%TO.C,R10*%
X111272936Y-80235000D02*
X111727064Y-80235000D01*
X111272936Y-78765000D02*
X111727064Y-78765000D01*
%TO.C,R1*%
X106272936Y-66765000D02*
X106727064Y-66765000D01*
X106272936Y-68235000D02*
X106727064Y-68235000D01*
%TO.C,C15*%
X122727500Y-75276248D02*
X122727500Y-75798752D01*
X124197500Y-75276248D02*
X124197500Y-75798752D01*
%TD*%
D16*
X127120000Y-51920000D03*
X127120000Y-54460000D03*
X127120000Y-57000000D03*
X127120000Y-59540000D03*
X119500000Y-59540000D03*
X119500000Y-57000000D03*
X119500000Y-54460000D03*
X119500000Y-51920000D03*
X138000000Y-75540000D03*
X138000000Y-73000000D03*
X138000000Y-70460000D03*
X138000000Y-67920000D03*
X138000000Y-65380000D03*
X129000000Y-95500000D03*
X129000000Y-98040000D03*
X126460000Y-95500000D03*
X126460000Y-98040000D03*
X123920000Y-95500000D03*
X123920000Y-98040000D03*
X121380000Y-95500000D03*
X121380000Y-98040000D03*
X118840000Y-95500000D03*
X118840000Y-98040000D03*
X116300000Y-95500000D03*
X116300000Y-98040000D03*
X137000000Y-57500000D03*
X102500000Y-52500000D03*
X132500000Y-52000000D03*
X102500000Y-97500000D03*
X137500000Y-97500000D03*
X115000000Y-86710000D03*
X115000000Y-89250000D03*
X137500000Y-52500000D03*
X115620000Y-52000000D03*
X113080000Y-52000000D03*
X110540000Y-52000000D03*
X108000000Y-52000000D03*
M02*
