M48
METRIC,TZ
T1C0.300
T2C0.800
T3C0.813
T4C1.000
%
G90
G05
T1
X100750Y-88000
X101450Y-57048
X101450Y-58548
X101450Y-60048
X101450Y-61548
X101450Y-63048
X101450Y-75048
X101450Y-76548
X101450Y-78048
X101450Y-79548
X101450Y-81048
X101450Y-84048
X101450Y-85548
X102490Y-54628
X102490Y-64788
X102490Y-67328
X102490Y-69868
X102490Y-72408
X102490Y-82568
X102490Y-90188
X102490Y-92728
X102490Y-95268
X103000Y-59000
X103000Y-77000
X103000Y-78250
X103000Y-79500
X103000Y-80750
X103000Y-84500
X103000Y-85500
X103000Y-88000
X103250Y-57750
X103250Y-62250
X103750Y-75500
X104000Y-57250
X104000Y-57250
X104450Y-93048
X104750Y-74500
X105030Y-52088
X105030Y-72408
X105030Y-95268
X105030Y-97808
X106250Y-78000
X106250Y-79250
X106250Y-80500
X106250Y-81750
X106250Y-84750
X106250Y-86000
X106250Y-88000
X106750Y-58000
X107000Y-71600
X107000Y-77000
X107169Y-83172
X107500Y-59000
X107500Y-60250
X107570Y-97808
X107750Y-76000
X108000Y-85000
X108500Y-88000
X108950Y-78048
X108950Y-79548
X108950Y-81048
X108950Y-82548
X108950Y-99048
X109005Y-68400
X109250Y-64750
X109750Y-63750
X110000Y-53750
X110000Y-56000
X110000Y-62750
X110110Y-59708
X110110Y-85108
X110450Y-99048
X110500Y-65500
X110750Y-83500
X111000Y-55000
X111500Y-64250
X111500Y-95000
X111750Y-84000
X112250Y-68000
X112250Y-69000
X112500Y-62000
X112500Y-83250
X112650Y-54628
X112650Y-57168
X112650Y-72408
X112750Y-67250
X112750Y-69500
X112750Y-96250
X113000Y-63750
X113000Y-86500
X113000Y-88000
X113500Y-68500
X113750Y-63750
X113750Y-88000
X113800Y-74400
X113900Y-75400
X114000Y-62250
X114000Y-80500
X114000Y-95000
X114100Y-93600
X114250Y-91000
X114500Y-88000
X114750Y-74500
X115000Y-98000
X115250Y-63750
X115250Y-65500
X115250Y-84500
X115500Y-62000
X115750Y-88000
X116000Y-77500
X116000Y-83750
X116450Y-72048
X116450Y-79548
X116450Y-91548
X116500Y-88000
X117250Y-88000
X117730Y-52088
X117730Y-59708
X117750Y-82750
X117950Y-91548
X118000Y-55750
X118500Y-66000
X118500Y-86000
X119250Y-80250
X119450Y-91548
X119500Y-83250
X119750Y-81250
X120000Y-73500
X120250Y-65000
X120270Y-62248
X120950Y-91548
X121200Y-73250
X121250Y-66000
X121500Y-57500
X121500Y-68000
X122000Y-73250
X122000Y-84500
X122500Y-70500
X122500Y-78000
X122500Y-96500
X122810Y-52088
X122810Y-54628
X122810Y-87648
X123620Y-70630
X123950Y-58548
X123950Y-61548
X124750Y-89750
X125000Y-88000
X125247Y-74511
X125250Y-51500
X125325Y-90250
X125350Y-54628
X125350Y-57168
X125350Y-59708
X125750Y-52750
X125975Y-90250
X126500Y-74250
X126500Y-78500
X126950Y-88548
X127000Y-75000
X127250Y-71900
X127500Y-62000
X128000Y-63000
X128000Y-73500
X128250Y-62000
X128282Y-71730
X128450Y-81048
X128450Y-90048
X128450Y-91548
X128450Y-93048
X128500Y-72500
X128750Y-88000
X129000Y-83750
X129000Y-85250
X129000Y-86750
X129500Y-56500
X129802Y-76039
X129950Y-51048
X130250Y-65250
X130430Y-59708
X130750Y-55500
X130750Y-67250
X131250Y-64750
X131450Y-54048
X131450Y-57048
X131500Y-62500
X131750Y-68250
X132350Y-66500
X132500Y-71000
X132500Y-88000
X132970Y-54628
X132970Y-57168
X132970Y-59708
X132970Y-80028
X132970Y-82568
X132970Y-90188
X132970Y-92728
X132970Y-95268
X132970Y-97808
X133000Y-85500
X133250Y-68475
X133250Y-69750
X134000Y-88000
X134450Y-57048
X135500Y-74250
X135510Y-52088
X135510Y-54628
X135510Y-80028
X135510Y-82568
X135510Y-85108
X135510Y-87648
X135510Y-90188
X135510Y-92728
X135510Y-95268
X135510Y-97808
X136000Y-65500
X136500Y-67000
X136500Y-69000
X136500Y-72500
X136500Y-75750
X137000Y-72000
X137000Y-88000
X138050Y-54628
X138050Y-59708
X138050Y-62248
X138050Y-77488
X138050Y-80028
X138050Y-82568
X138050Y-85108
X138050Y-90188
X138050Y-92728
X138050Y-95268
X138750Y-72000
X138950Y-57048
X139250Y-88000
T2
X115000Y-86710
X115000Y-89250
T3
X119500Y-51920
X119500Y-54460
X119500Y-57000
X119500Y-59540
X127120Y-51920
X127120Y-54460
X127120Y-57000
X127120Y-59540
T4
X108000Y-52000
X110540Y-52000
X113080Y-52000
X115620Y-52000
X116300Y-95500
X116300Y-98040
X118840Y-95500
X118840Y-98040
X121380Y-95500
X121380Y-98040
X123920Y-95500
X123920Y-98040
X126460Y-95500
X126460Y-98040
X129000Y-95500
X129000Y-98040
X132500Y-52000
X137000Y-57500
X138000Y-65380
X138000Y-67920
X138000Y-70460
X138000Y-73000
X138000Y-75540
M30
